<svg width="89" height="40" viewBox="0 0 89 40" fill="none" xmlns="http://www.w3.org/2000/svg">
<path fill-rule="evenodd" clip-rule="evenodd" d="M5.80957 27.5947C6.78502 27.5947 7.6442 27.7767 8.38672 28.1406C9.12928 28.4901 9.70462 28.9853 10.1123 29.626C10.5345 30.2521 10.7451 30.9876 10.7451 31.832V39.7383H8.03711V38.4902C7.88607 38.6568 7.72654 38.8115 7.55664 38.9521C7.13444 39.287 6.65389 39.549 6.11523 39.7383C5.57653 39.913 4.9794 40 4.32422 40C3.49435 40 2.7736 39.8616 2.16211 39.585C1.5507 39.3083 1.07704 38.9158 0.742188 38.4062C0.407305 37.8821 0.240234 37.2771 0.240234 36.5928C0.24029 35.9377 0.385611 35.3552 0.676758 34.8457C0.967961 34.3216 1.41975 33.8846 2.03125 33.5352C2.64273 33.1858 3.41496 32.9385 4.34668 32.793L7.88477 32.2158V31.832C7.88477 31.3224 7.68014 30.9003 7.27246 30.5654C6.87935 30.2161 6.35534 30.041 5.7002 30.041C5.08887 30.041 4.54287 30.2083 4.0625 30.543C3.59661 30.8633 3.25454 31.2934 3.03613 31.832L0.699219 30.6963C0.932183 30.0703 1.29601 29.5314 1.79102 29.0801C2.3006 28.6142 2.89776 28.2503 3.58203 27.9883C4.26631 27.7262 5.00883 27.5947 5.80957 27.5947ZM4.89258 34.9111C4.32473 35.0131 3.90164 35.195 3.625 35.457C3.34838 35.7191 3.21094 36.0621 3.21094 36.4844C3.21104 36.8918 3.36336 37.2194 3.66895 37.4668C3.98927 37.6998 4.38271 37.8164 4.84863 37.8164C5.44544 37.8164 5.96962 37.6927 6.4209 37.4453C6.88676 37.1833 7.24369 36.8263 7.49121 36.375C7.75329 35.9236 7.88476 35.4284 7.88477 34.8896V34.4023L4.89258 34.9111Z" fill="black"/>
<path fill-rule="evenodd" clip-rule="evenodd" d="M35.9971 27.5947C36.9286 27.5948 37.7437 27.7481 38.4424 28.0537C39.1558 28.3595 39.7608 28.7816 40.2559 29.3203C40.7508 29.859 41.1295 30.4779 41.3916 31.1768C41.6536 31.861 41.7842 32.6036 41.7842 33.4043C41.7842 33.6081 41.7694 33.8197 41.7402 34.0381C41.7257 34.2562 41.69 34.4454 41.6318 34.6055H33.0723C33.109 35.0142 33.2026 35.3928 33.3545 35.7412C33.6165 36.2944 33.9943 36.7245 34.4893 37.0303C34.9989 37.336 35.5821 37.4883 36.2373 37.4883C36.8923 37.4882 37.4452 37.3498 37.8965 37.0732C38.3623 36.7967 38.7262 36.4257 38.9883 35.96L41.3037 37.0957C41.0707 37.6634 40.7069 38.1658 40.2119 38.6025C39.7169 39.0393 39.1267 39.3814 38.4424 39.6289C37.7727 39.8763 37.0301 40 36.2148 40C34.9919 40 33.9221 39.7231 33.0049 39.1699C32.0876 38.6167 31.3739 37.8672 30.8643 36.9209C30.3547 35.9745 30.0996 34.9256 30.0996 33.7754C30.0997 32.5818 30.3548 31.5265 30.8643 30.6094C31.3884 29.6776 32.0944 28.942 32.9824 28.4033C33.8851 27.8646 34.8905 27.5947 35.9971 27.5947ZM35.9971 29.9541C35.4002 29.9541 34.8682 30.1064 34.4023 30.4121C33.9364 30.7033 33.5796 31.1403 33.332 31.7227C33.2437 31.9379 33.1773 32.1711 33.1309 32.4219H38.7246C38.7014 32.1519 38.6449 31.8968 38.5518 31.6572C38.3625 31.1331 38.0421 30.7178 37.5908 30.4121C37.1542 30.1065 36.6229 29.9542 35.9971 29.9541Z" fill="black"/>
<path d="M49.6748 27.5947C50.5193 27.5947 51.3062 27.7479 52.0342 28.0537C52.762 28.3449 53.388 28.7524 53.9121 29.2764C54.4508 29.7859 54.8364 30.3979 55.0693 31.1113L52.5586 32.2031C52.3402 31.6062 51.9685 31.1257 51.4443 30.7617C50.9347 30.3977 50.3446 30.2158 49.6748 30.2158C49.0489 30.2159 48.4881 30.3691 47.9932 30.6748C47.5129 30.9805 47.134 31.4028 46.8574 31.9414C46.5809 32.48 46.4434 33.0991 46.4434 33.7979C46.4434 34.4966 46.5808 35.1156 46.8574 35.6543C47.134 36.1929 47.5128 36.6152 47.9932 36.9209C48.4881 37.2266 49.0489 37.3788 49.6748 37.3789C50.3591 37.3789 50.9562 37.197 51.4658 36.833C51.9754 36.469 52.3402 35.9816 52.5586 35.3701L55.0693 36.5059C54.8364 37.1755 54.4577 37.7797 53.9336 38.3184C53.4095 38.8424 52.7836 39.2577 52.0557 39.5635C51.3277 39.8546 50.5338 40 49.6748 40C48.4956 39.9999 47.4326 39.731 46.4863 39.1924C45.5546 38.6391 44.819 37.8966 44.2803 36.9648C43.7416 36.0184 43.4727 34.9548 43.4727 33.7754C43.4727 32.5964 43.7418 31.541 44.2803 30.6094C44.8189 29.6776 45.5546 28.942 46.4863 28.4033C47.4326 27.8647 48.4956 27.5948 49.6748 27.5947Z" fill="black"/>
<path fill-rule="evenodd" clip-rule="evenodd" d="M63.0498 27.5947C64.2146 27.5947 65.2704 27.8646 66.2168 28.4033C67.1632 28.942 67.9135 29.6775 68.4668 30.6094C69.0345 31.5266 69.3184 32.5896 69.3184 33.7979C69.3183 34.9916 69.0346 36.0546 68.4668 36.9863C67.899 37.9182 67.1417 38.6537 66.1953 39.1924C65.2489 39.7311 64.2001 40 63.0498 40C61.8851 40 60.8222 39.7311 59.8613 39.1924C58.9149 38.6537 58.1577 37.9182 57.5898 36.9863C57.0366 36.0546 56.7598 34.9917 56.7598 33.7979C56.7598 32.6041 57.0367 31.5411 57.5898 30.6094C58.1576 29.6776 58.915 28.942 59.8613 28.4033C60.8076 27.8646 61.8706 27.5948 63.0498 27.5947ZM63.0498 30.2158C62.3949 30.2159 61.8201 30.3762 61.3252 30.6963C60.8302 31.002 60.4367 31.4243 60.1455 31.9629C59.8689 32.4871 59.7305 33.099 59.7305 33.7979C59.7305 34.4821 59.8689 35.1011 60.1455 35.6543C60.4367 36.1929 60.8302 36.6152 61.3252 36.9209C61.8201 37.2265 62.3949 37.3789 63.0498 37.3789C63.6903 37.3789 64.251 37.2265 64.7314 36.9209C65.2265 36.6152 65.613 36.193 65.8896 35.6543C66.1808 35.1011 66.3261 34.4821 66.3262 33.7979C66.3262 33.099 66.1808 32.487 65.8896 31.9629C65.613 31.4242 65.2265 31.002 64.7314 30.6963C64.251 30.3761 63.6903 30.2158 63.0498 30.2158Z" fill="black"/>
<path fill-rule="evenodd" clip-rule="evenodd" d="M82.4072 27.5947C83.339 27.5948 84.1547 27.748 84.8535 28.0537C85.5668 28.3595 86.1711 28.7817 86.666 29.3203C87.161 29.859 87.5397 30.4779 87.8018 31.1768C88.0638 31.861 88.1943 32.6036 88.1943 33.4043C88.1943 33.6081 88.1805 33.8197 88.1514 34.0381C88.1368 34.2563 88.1002 34.4454 88.042 34.6055H79.4824C79.5192 35.0142 79.6128 35.3928 79.7646 35.7412C80.0267 36.2945 80.4053 36.7245 80.9004 37.0303C81.4099 37.3359 81.9924 37.4883 82.6475 37.4883C83.3025 37.4882 83.8554 37.3498 84.3066 37.0732C84.7726 36.7966 85.1373 36.4259 85.3994 35.96L87.7139 37.0957C87.4809 37.6634 87.117 38.1658 86.6221 38.6025C86.1271 39.0392 85.5376 39.3814 84.8535 39.6289C84.1838 39.8764 83.4404 40 82.625 40C81.4021 39.9999 80.3322 39.7231 79.415 39.1699C78.4978 38.6167 77.784 37.8673 77.2744 36.9209C76.7648 35.9745 76.5098 34.9256 76.5098 33.7754C76.5098 32.5818 76.765 31.5265 77.2744 30.6094C77.7985 29.6777 78.5046 28.942 79.3926 28.4033C80.2953 27.8646 81.3007 27.5947 82.4072 27.5947ZM82.4072 29.9541C81.8103 29.9541 81.2784 30.1064 80.8125 30.4121C80.3466 30.7033 79.9897 31.1403 79.7422 31.7227C79.6539 31.9379 79.5875 32.1711 79.541 32.4219H85.1348C85.1116 32.1519 85.0551 31.8968 84.9619 31.6572C84.7726 31.1331 84.4523 30.7178 84.001 30.4121C83.5643 30.1066 83.033 29.9541 82.4072 29.9541Z" fill="black"/>
<path d="M20.1328 39.7383H17.2715V23.2051H20.1328V39.7383Z" fill="black"/>
<path d="M74.3486 39.7383H71.4883V23.2051H74.3486V39.7383Z" fill="black"/>
<path d="M27.0107 25.3457C27.0107 26.525 26.727 27.4929 26.1592 28.25C25.6059 28.9926 24.7834 29.4809 23.6914 29.7139V28.2939C24.1719 28.1775 24.5574 27.9659 24.8486 27.6602C25.1544 27.3398 25.3442 26.9612 25.417 26.5244H24.1279V23.4668H27.0107V25.3457Z" fill="black"/>
<path d="M7.25098 25.7607H4.43359L2.11816 21.9824H5.83105L7.25098 25.7607Z" fill="black"/>
<path d="M37.3506 25.7607H34.5332L35.9531 21.9824H39.666L37.3506 25.7607Z" fill="black"/>
<path fill-rule="evenodd" clip-rule="evenodd" d="M14.5117 4.38965C15.4871 4.38969 16.3464 4.57158 17.0889 4.93555C17.8313 5.28492 18.4058 5.78045 18.8135 6.4209C19.2357 7.04698 19.4473 7.78247 19.4473 8.62695V16.5332H16.7393V15.2852C16.5882 15.4517 16.4287 15.6064 16.2588 15.7471C15.8366 16.0819 15.356 16.3439 14.8174 16.5332C14.2787 16.7079 13.6815 16.7949 13.0264 16.7949C12.1964 16.7949 11.4758 16.6565 10.8643 16.3799C10.2528 16.1033 9.77921 15.7107 9.44434 15.2012C9.10945 14.677 8.94238 14.072 8.94238 13.3877C8.94244 12.7327 9.08776 12.1501 9.37891 11.6406C9.67011 11.1165 10.1219 10.6795 10.7334 10.3301C11.3448 9.9808 12.1163 9.73346 13.0479 9.58789L16.5859 9.01074V8.62695C16.5859 8.11735 16.3823 7.69523 15.9746 7.36035C15.5815 7.01093 15.0575 6.83596 14.4023 6.83594C13.7909 6.83594 13.2451 7.00402 12.7646 7.33887C12.2987 7.65919 11.9557 8.08823 11.7373 8.62695L9.40039 7.49121C9.63335 6.86513 9.99812 6.32636 10.4932 5.875C11.0027 5.40918 11.6 5.04524 12.2842 4.7832C12.9684 4.52122 13.7111 4.38965 14.5117 4.38965ZM13.5938 11.7061C13.0261 11.808 12.6037 11.99 12.3271 12.252C12.0505 12.514 11.9121 12.8571 11.9121 13.2793C11.9122 13.6868 12.0654 14.0143 12.3711 14.2617C12.6914 14.4947 13.0849 14.6113 13.5508 14.6113C14.1476 14.6113 14.6718 14.4877 15.123 14.2402C15.5889 13.9782 15.9458 13.6212 16.1934 13.1699C16.4554 12.7186 16.5859 12.2233 16.5859 11.6846V11.1973L13.5938 11.7061Z" fill="black"/>
<path fill-rule="evenodd" clip-rule="evenodd" d="M24.9531 5.85254C25.2938 5.48009 25.7004 5.17325 26.1758 4.93555C26.8745 4.57167 27.6826 4.3897 28.5996 4.38965C29.7207 4.38965 30.733 4.66649 31.6357 5.21973C32.5384 5.77298 33.2522 6.51549 33.7764 7.44727C34.3151 8.37911 34.584 9.42797 34.584 10.5928C34.584 11.7429 34.3219 12.791 33.7979 13.7373C33.2737 14.6837 32.56 15.434 31.6572 15.9873C30.7546 16.5259 29.7282 16.7949 28.5781 16.7949C27.7191 16.7949 26.9253 16.6278 26.1973 16.293C25.6324 16.0163 25.1606 15.6467 24.7783 15.1875V16.5332H22.0918V0H24.9531V5.85254ZM28.251 7.01074C27.6249 7.01074 27.0565 7.16397 26.5469 7.46973C26.0521 7.77541 25.6593 8.20479 25.3682 8.75781C25.0915 9.29653 24.9531 9.90845 24.9531 10.5928C24.9532 11.2916 25.0916 11.9106 25.3682 12.4492C25.6593 12.9877 26.052 13.4101 26.5469 13.7158C27.0565 14.0216 27.6249 14.1748 28.251 14.1748C28.906 14.1747 29.4885 14.0215 29.998 13.7158C30.5075 13.4101 30.9002 12.9877 31.1768 12.4492C31.4679 11.9106 31.6142 11.2916 31.6143 10.5928C31.6143 9.89389 31.468 9.28197 31.1768 8.75781C30.9002 8.2193 30.5075 7.79691 29.998 7.49121C29.4885 7.17096 28.906 7.01081 28.251 7.01074Z" fill="black"/>
<path fill-rule="evenodd" clip-rule="evenodd" d="M47.3574 4.38965C48.3328 4.38971 49.1921 4.5716 49.9346 4.93555C50.6769 5.28493 51.2515 5.78046 51.6592 6.4209C52.0814 7.04698 52.293 7.78247 52.293 8.62695V16.5332H49.585V15.2852C49.4339 15.4518 49.2744 15.6064 49.1045 15.7471C48.6823 16.0819 48.2017 16.3439 47.6631 16.5332C47.1244 16.7079 46.5272 16.7949 45.8721 16.7949C45.0422 16.7949 44.3215 16.6565 43.71 16.3799C43.0985 16.1033 42.6249 15.7107 42.29 15.2012C41.9552 14.677 41.7881 14.072 41.7881 13.3877C41.7881 12.7327 41.9335 12.1501 42.2246 11.6406C42.5158 11.1166 42.9668 10.6794 43.5781 10.3301C44.1896 9.98065 44.9618 9.73349 45.8936 9.58789L49.4316 9.01074V8.62695C49.4316 8.11739 49.2279 7.69522 48.8203 7.36035C48.4272 7.01096 47.9031 6.83599 47.248 6.83594C46.6365 6.83594 46.0899 7.00399 45.6094 7.33887C45.1437 7.65915 44.8013 8.08841 44.583 8.62695L42.2461 7.49121C42.479 6.86522 42.843 6.32632 43.3379 5.875C43.8474 5.40916 44.4447 5.04527 45.1289 4.7832C45.8132 4.52112 46.5566 4.38965 47.3574 4.38965ZM46.4395 11.7061C45.8718 11.808 45.4495 11.99 45.1729 12.252C44.8962 12.514 44.7578 12.8571 44.7578 13.2793C44.7579 13.6868 44.9111 14.0143 45.2168 14.2617C45.537 14.4945 45.9299 14.6112 46.3955 14.6113C46.9925 14.6113 47.5174 14.4878 47.9688 14.2402C48.4347 13.9782 48.7915 13.6213 49.0391 13.1699C49.3011 12.7186 49.4316 12.2233 49.4316 11.6846V11.1973L46.4395 11.7061Z" fill="black"/>
<path fill-rule="evenodd" clip-rule="evenodd" d="M57.7979 5.85352C58.1387 5.48065 58.5457 5.17345 59.0215 4.93555C59.7202 4.57169 60.5283 4.38968 61.4453 4.38965C62.5664 4.38965 63.5787 4.66645 64.4814 5.21973C65.3841 5.77299 66.0979 6.51546 66.6221 7.44727C67.1608 8.37911 67.4297 9.42797 67.4297 10.5928C67.4297 11.7429 67.1676 12.791 66.6436 13.7373C66.1194 14.6837 65.4057 15.434 64.5029 15.9873C63.6003 16.5259 62.5739 16.7949 61.4238 16.7949C60.5648 16.7949 59.771 16.6278 59.043 16.293C58.4774 16.016 58.0056 15.6455 57.623 15.1855V16.5332H54.9375V0H57.7979V5.85352ZM61.0957 7.01074C60.4698 7.01081 59.9021 7.16403 59.3926 7.46973C58.8976 7.77548 58.5041 8.20459 58.2129 8.75781C57.9362 9.29653 57.7979 9.90845 57.7979 10.5928C57.7979 11.2916 57.9363 11.9106 58.2129 12.4492C58.5041 12.9879 58.8976 13.4101 59.3926 13.7158C59.9021 14.0215 60.4698 14.1747 61.0957 14.1748C61.7509 14.1748 62.3341 14.0216 62.8438 13.7158C63.3531 13.4101 63.7459 12.9877 64.0225 12.4492C64.3136 11.9106 64.4599 11.2916 64.46 10.5928C64.46 9.89389 64.3137 9.28197 64.0225 8.75781C63.7459 8.21931 63.3531 7.79691 62.8438 7.49121C62.3341 7.17089 61.7509 7.01074 61.0957 7.01074Z" fill="black"/>
<path d="M6.5957 0C6.77029 0 6.95942 0.0148693 7.16309 0.0439453C7.38149 0.058506 7.56436 0.0802553 7.70996 0.109375V2.57715C7.56447 2.54805 7.42587 2.53323 7.29492 2.5332C7.17844 2.51864 7.06872 2.51172 6.9668 2.51172C6.32626 2.51175 5.83085 2.65707 5.48145 2.94824C5.13212 3.22486 4.95804 3.66198 4.95801 4.25879V4.65234H7.60059V7.20703H4.95801V16.5332H2.09668V7.20703H0V4.65234H2.09668V4.25879C2.0967 3.35618 2.27863 2.59185 2.64258 1.96582C3.02106 1.32532 3.54529 0.837804 4.21484 0.50293C4.8846 0.168052 5.67843 3.2092e-06 6.5957 0Z" fill="black"/>
<path d="M39.627 16.5332H36.7656V0H39.627V16.5332Z" fill="black"/>
</svg>
