<?xml version="1.0" standalone="no"?>
<!DOCTYPE svg PUBLIC "-//W3C//DTD SVG 1.1//EN" "http://www.w3.org/Graphics/SVG/1.1/DTD/svg11.dtd">
<svg xmlns="http://www.w3.org/2000/svg">
  <defs>
    <font id="PlusJakartaSans" horiz-adv-x="575">
      <font-face font-family="Plus Jakarta Sans" units-per-em="1000" panose-1="0 0 0 0 0 0 0 0 0 0" ascent="1038" descent="-222" alphabetic="0"/>
      <glyph unicode=" " glyph-name="gid178" horiz-adv-x="178"/>
      <glyph unicode="!" glyph-name="gid189" horiz-adv-x="371" d="M128,226l-9,519H252l-9-519H128ZM119,0V140H252V0H119Z"/>
      <glyph unicode="&quot;" glyph-name="gid220" horiz-adv-x="498" d="M113,462L96,745H214L198,462H113Zm187,0L283,745H401L385,462H300Z"/>
      <glyph unicode="#" glyph-name="gid197" horiz-adv-x="915" d="M135,0l47,164H62V279H215l55,188H150V582H302l47,163H482L435,582H600l46,163H779L732,582H852V467H699L645,279H765V164H612L565,0H433l46,164H315L268,0H135ZM348,279H513l53,188H402L348,279Z"/>
      <glyph unicode="$" glyph-name="gid236" horiz-adv-x="647" d="M338-12q-71,0-131.5,26t-104,72.5T39,195l113,49q27-64 78-100.5T345,107q36,0 62.5,11.5t41,31.5T463,198q0,33-19.5,54.5T385,286L242,332q-87,27-131,81T67,540q0,64 31.5,113t88,76.5T316,757q67,0 123-23.5t96.5-65T596,571L484,521q-22,56-66,86.5T316,638q-34,0-60-11.5t-40.5-32T201,546q0-31 20-54.5T282,455l137-43q89-29 133.5-80T597,206q0-64-33-113T473,16T338-12Zm-48-88V845h85V-100H290Z"/>
      <glyph unicode="%" glyph-name="gid253" horiz-adv-x="1046" d="M153,0L757,745H897L293,0H153ZM270,367q-56,0-100.5,26.5T99,464T73,562t26,98.5T169.5,731T270,757q55,0 99-26t70-70.5T465,562t-26-98t-70-70.5T270,367Zm-1,101q30,0 50,13.5t30.5,35T360,562q0,25-10.5,46T319,643t-50,14q-28,0-48.5-14T189,607.5T178,562q0-23 11-45t31.5-35.5T269,468ZM777-12q-55,0-99.5,26.5T607,85t-26,98t26,98.5T677.5,352T777,378q56,0 100-26t70-70.5T973,183T947,85T877,14.5T777-12Zm0,101q29,0 49.5,13.5t31,35T868,183q0,25-10.5,46t-31,35T777,278q-28,0-48.5-14T697,228.5T686,183q0-23 11-45t31.5-35.5T777,89Z"/>
      <glyph unicode="&amp;" glyph-name="gid223" horiz-adv-x="793" d="M308-12q-69,0-121,25T105.5,83.5T76,190q0,51 18.5,88.5t45.5,64T193.5,386T238,413l65,35q32,17 58.5,34.5t42.5,39T420,572q0,33-21.5,55.5T344,650q-32,0-54.5-22.5T267,571q0-25 11.5-49T306,477.5T337,441L732,0H575L242,365q-23,25-46,54.5T158,485t-15,80q0,58 27.5,101.5t73,67T343,757q55,0 99.5-24t71-66T540,571q0-55-25.5-93.5t-61-65T386,368l-67-40q-22-12-46.5-30.5t-41.5-44T214,192q0-43 26.5-67.5T313,100q28,0 50,9.5t39,24t29,31T453,195L570,365H707L572,155q-15-25-37-54T482,46.5t-73.5-42T308-12Z"/>
      <glyph unicode="&apos;" glyph-name="gid221" horiz-adv-x="311" d="M113,462L96,745H214L198,462H113Z"/>
      <glyph unicode="(" glyph-name="gid204" horiz-adv-x="379" d="M233-170Q149-72 106.5,43T64,288t42,245T233,745H343Q271,638 235.5,523.5T200,288T236,52T343-170H233Z"/>
      <glyph unicode=")" glyph-name="gid205" horiz-adv-x="379" d="M37-170Q108-63 143.5,52T179,288T143.5,523.5T37,745H147q84-97 126-212t42-245T273,43T147-170H37Z"/>
      <glyph unicode="*" glyph-name="gid196" horiz-adv-x="540" d="M196,364l-80,59l73,99L74,561l31,94l115-38V745H320V617l115,38l31-94L351,522l73-99l-81-59l-73,99l-74-99Z"/>
      <glyph unicode="+" glyph-name="gid241" horiz-adv-x="660" d="M274,0V194H80V307H274V500H387V307H580V194H387V0H274Z"/>
      <glyph unicode="," glyph-name="gid185" horiz-adv-x="357" d="M103-156v65q33,8 53.5,30.5T182,0H123V140H255V54q0-88-38.5-141T103-156Z"/>
      <glyph unicode="-" glyph-name="gid200" horiz-adv-x="600" d="M88,214V329H513V214H88Z"/>
      <glyph unicode="." glyph-name="gid184" horiz-adv-x="378" d="M123,0V140H255V0H123Z"/>
      <glyph unicode="/" glyph-name="gid198" horiz-adv-x="506" d="M16-120L348,705H491L159-120H16Z"/>
      <glyph unicode="0" glyph-name="gid128" horiz-adv-x="708" d="M354-12q-89,0-156,48T93.5,171T56,373q0,116 37,202T197,709t156,48q91,0 157.5-48T615,574.5T653,373T615.5,171.5T511,36.5T354-12Zm1,124q51,0 87,31.5t55.5,90T517,373T497.5,512.5t-56,89.5T353,633q-50,0-86-31t-55.5-89.5T192,373q0-80 19.5-138.5t56-90.5T355,112Z"/>
      <glyph unicode="1" glyph-name="gid129" horiz-adv-x="403" d="M173,0V629H29V745H309V0H173Z"/>
      <glyph unicode="2" glyph-name="gid130" horiz-adv-x="597" d="M46,0V103L248,314q60,63 92.5,100.5T386,479t13,55q0,47-29.5,74T294,635q-48,0-83-27.5T160,527L41,564q12,59 49,102.5t90.5,67T294,757q72,0 126.5-26t85-73T536,548q0-40-15-79t-45-79.5T398,299L223,115H546V0H46Z"/>
      <glyph unicode="3" glyph-name="gid131" horiz-adv-x="611" d="M293-12q-61,0-115.5,22.5t-93,64T32,173l119,42q18-51 55-77.5T293,111q40,0 69.5,15T409,169.5T426,237t-16.5,66.5T363,346t-71,15q-19,0-39.5-4T216,345l-31,65L378,630H74V745H531V638L337,411l2,51q67-1 117-29t78-77t28-115q0-72-35-129.5T431,21T293-12Z"/>
      <glyph unicode="4" glyph-name="gid132" horiz-adv-x="654" d="M378,0V164H36V278L370,745H512V278H621V164H512V0H378ZM136,229l-24,49H378V638l35-11L136,229Z"/>
      <glyph unicode="5" glyph-name="gid133" horiz-adv-x="615" d="M297-12q-59,0-112.5,22t-92,62.5T40,169l118,42q17-51 55-75.5T297,111q38,0 67.5,16.5t45.5,46T426,242t-16.5,68T364,355.5T297,372q-39,0-70.5-17T181,306L70,331l59,414H535V630H183l51,59L192,377l-39,32q28,41 68.5,60T320,488q74,0 128.5-32T533,369t30-127T528,112T433,21T297-12Z"/>
      <glyph unicode="6" glyph-name="gid134" horiz-adv-x="602" d="M302-12q-76,0-134.5,32.5T76,108.5T43,235q0,36 7.5,72t28,77T138,475L346,745H508L255,420l-22,24q14,11 29,17.5t30.5,9.5t32.5,3q68,0 121-31t83.5-84.5T560,238q0-72-33-128.5t-91.5-89T302-12Zm0,123q34,0 61.5,15.5t44,44.5T424,236q0,38-16.5,65.5T364,345t-62,16q-34,0-62-16t-44.5-43.5T179,236q0-36 16.5-65T240,126.5T302,111Z"/>
      <glyph unicode="7" glyph-name="gid135" horiz-adv-x="559" d="M72,0L382,630H31V745H525V630L222,0H72Z"/>
      <glyph unicode="8" glyph-name="gid136" horiz-adv-x="632" d="M316-12q-81,0-140.5,30.5T83.5,101T51,215q0,73 39,123.5T203,413l-8-33q-53,17-83.5,66T81,554t30,105t83,72t122,26q68,0 120.5-26t83-72T550,554q0-60-30.5-108.5T436,379l-7,35q74-26 113-76.5T581,214q0-62-32.5-113.5t-92-82T316-12Zm0,115q39,0 68,14.5t45,41T445,219q0,35-16,60.5t-45,40T316,334t-67.5-14.5t-44.5-40T188,219q0-34 16-60.5t44.5-41T316,103Zm0,346q29,0 51,13t34.5,34.5T414,546t-12.5,49.5t-34.5,34T316,642t-51.5-12.5t-35-34T217,546t12.5-49.5t35-34.5T316,449Z"/>
      <glyph unicode="9" glyph-name="gid137" horiz-adv-x="602" d="M94,0L347,326l23-24q-15-11-29-18t-30-10t-34-3q-68,0-121,31T72.5,386.5T42,508q0,72 33.5,128t92,88.5T301,757q76,0 134-32t91.5-87.5T560,510q0-36-8-72t-28.5-76.5T465,270L257,0H94ZM301,385q35,0 62.5,15.5t43.5,44T423,509q0,38-16.5,66T363,619t-62,16q-34,0-62-16t-44.5-44T178,509q0-36 16.5-64.5t44.5-44T301,385Z"/>
      <glyph unicode=":" glyph-name="gid186" horiz-adv-x="378" d="M123,0V140H255V0H123Zm0,404V544H255V404H123Z"/>
      <glyph unicode=";" glyph-name="gid187" horiz-adv-x="398" d="M123-156v64q33,8 54,31T204,0H143V140H275V54q0-88-38.5-141T123-156Zm20,560V544H275V404H143Z"/>
      <glyph unicode="&lt;" glyph-name="gid247" horiz-adv-x="660" d="M557,13L98,208V336L557,532V398L205,249v46L557,146V13Z"/>
      <glyph unicode="=" glyph-name="gid245" horiz-adv-x="660" d="M105,301V414H555V301H105Zm0-242V171H555V59H105Z"/>
      <glyph unicode="&gt;" glyph-name="gid246" horiz-adv-x="660" d="M104,13V146L455,295V249L104,398V532L562,336V208L104,13Z"/>
      <glyph unicode="?" glyph-name="gid191" horiz-adv-x="583" d="M211,226v20q0,44 13.5,78T259,384.5T303,433q31,31 55.5,57.5T383,553q0,22-11,41t-32.5,30T287,635q-42,0-72.5-26T177,540L55,570q9,56 40.5,98t82,65.5T290,757q73,0 124.5-29T493,653t27-97q0-40-16-71t-39.5-56.5T416,378q-32-30-56-63t-24-77V226H211ZM208,0V140H341V0H208Z"/>
      <glyph unicode="@" glyph-name="gid222" horiz-adv-x="927" d="M484-218q-94,0-173,31T173-99T82,36.5T50,210q0,94 32,172.5t91,135t138,88T483,637q94,0 171-32t132.5-89T872,381t30-170q0-65-22.5-112.5t-62-73T725,0q-34,0-67.5,13.5T601.5,55T577,129l24-50q-10-25-33-42.5t-53.5-27T451,0Q393,0 345.5,27.5t-76,76T241,213q0,60 28,110t76.5,80T455,433q49,0 88-18.5T595,365l-10-34v92h91V170q0-36 14-55t38-19q33,0 49,27.5T793,215q0,69-20.5,127.5T713,444.5t-96.5,68T484,537q-73,0-132.5-24.5T248.5,444t-67-103T158,211q0-72 24.5-132.5T251-26T354.5-94T484-118q47,0 90.5,11.5T654-72l46-88q-94-58-216-58ZM462,96q34,0 60,16t40.5,43.5T577,216q0,51-32,85t-82,35q-33,0-60-15t-42.5-42T345,217q0-34 15.5-61.5t42-43.5T462,96Z"/>
      <glyph unicode="A" glyph-name="gid1" horiz-adv-x="712" d="M11,0L268,745H444L701,0H553L500,160H212L158,0H11ZM251,280H461L337,651h38L251,280Z"/>
      <glyph unicode="B" glyph-name="gid10" horiz-adv-x="691" d="M72,0V745H386q74,0 126.5-25.5t81-72T622,535q0-51-27.5-95.5T507,366v63q55-21 87-52t45-69t13-80q0-107-70.5-167.5T386,0H72ZM208,120H400q53,0 84.5,29.5T516,228t-31.5,79T400,337H208V120Zm0,336H393q42,0 67,24.5T485,544t-25,62t-67,23H208V456Z"/>
      <glyph unicode="C" glyph-name="gid11" horiz-adv-x="774" d="M422-12q-80,0-147.5,29t-118,81T78,220T50,373T77.5,526.5t78,122t118.5,80T422,757t143.5-27T673,658.5T736,561L614,504q-21,56-71,92.5T422,633q-70,0-123.5-33t-83-91T186,373t29.5-136.5t83-91.5T422,112q71,0 121,36.5T614,241l122-57q-19-53-63-97.5T565.5,15T422-12Z"/>
      <glyph unicode="D" glyph-name="gid13" horiz-adv-x="740" d="M72,0V745H315q118,0 205.5-47.5T656,566.5T704,373q0-109-48-193.5T520.5,47.5T315,0H72ZM208,120H318q76,0 131.5,31.5t86.5,88T567,373q0,78-31,134t-86.5,87T318,625H208V120Z"/>
      <glyph unicode="E" glyph-name="gid15" horiz-adv-x="595" d="M72,0V745H567V625H208V434H547V314H208V120H567V0H72Z"/>
      <glyph unicode="F" glyph-name="gid20" horiz-adv-x="586" d="M72,0V745H569V625H208V419H524V299H208V0H72Z"/>
      <glyph unicode="G" glyph-name="gid21" horiz-adv-x="808" d="M425-12q-80,0-148,29T158,98T78.5,220T50,373T77.5,526.5t78,122t118.5,80T422,757t143.5-27T673,658.5T736,561L615,503q-21,58-71,94T422,633q-70,0-123.5-33t-83-91T186,373t30.5-136.5T301,145t124-33q57,0 105,22.5t77,64T636,297v57l62-54H422V415H772V340q0-86-29-152T664.5,77.5T553,10.5T425-12Z"/>
      <glyph unicode="H" glyph-name="gid22" horiz-adv-x="733" d="M72,0V745H208V420H525V745H662V0H525V300H208V0H72Z"/>
      <glyph unicode="I" glyph-name="gid23" horiz-adv-x="279" d="M72,0V745H208V0H72Z"/>
      <glyph unicode="J" glyph-name="gid28" horiz-adv-x="393" d="M39,0V125H82q48,0 76.5,27.5T187,226V745H324V231q0-69-29.5-121t-84-81T82,0H39Z"/>
      <glyph unicode="K" glyph-name="gid29" horiz-adv-x="679" d="M72,0V745H208V357l-37,13L488,745H659L362,393l8,96L668,0H508L308,328L208,209V0H72Z"/>
      <glyph unicode="L" glyph-name="gid30" horiz-adv-x="543" d="M72,0V745H208V120H527V0H72Z"/>
      <glyph unicode="M" glyph-name="gid31" horiz-adv-x="893" d="M72,0V745H202L481,366H419L692,745H822V0H685V590l53-13L455,200H439L163,577l45,13V0H72Z"/>
      <glyph unicode="N" glyph-name="gid32" horiz-adv-x="741" d="M72,0V745H178L588,193l-55-11V745H669V0H562L158,556l50,11V0H72Z"/>
      <glyph unicode="O" glyph-name="gid34" horiz-adv-x="878" d="M439-12q-82,0-153,29T162,98T79.5,220.5T50,373q0,83 29,153t82,122t124,80.5T439,757t154-29t124-80.5T799.5,526T829,373q0-82-30-152.5T716,98T592.5,17T439-12Zm0,124q55,0 101,19.5T620.5,186t53,83T692,373T673.5,476.5t-53,83T540,614T439,633q-54,0-100-19t-80.5-54.5t-53.5-83T186,373t19-104t53.5-83T339,131.5T439,112Z"/>
      <glyph unicode="P" glyph-name="gid42" horiz-adv-x="648" d="M72,0V745H350q76,0 134.5-27.5t91.5-80T609,510q0-74-33.5-126.5T484,303T350,275H208V0H72ZM208,395H352q37,0 64,14.5T458,450t15,60q0,35-15,60.5t-42,40T352,625H208V395Z"/>
      <glyph unicode="Q" glyph-name="gid44" horiz-adv-x="878" d="M439-12q-82,0-153,29T162,98T79.5,220.5T50,373q0,83 29,153t82,122t124,80.5T439,757t154-29t124-80.5T799.5,526T829,373q0-82-30-152.5T716,98T592.5,17T439-12Zm0,124q55,0 101,19.5T620.5,186t53,83T692,373T673.5,476.5t-53,83T540,614T439,633q-54,0-100-19t-80.5-54.5t-53.5-83T186,373t19-104t53.5-83T339,131.5T439,112ZM611-90L379,298H521L756-90H611Z"/>
      <glyph unicode="R" glyph-name="gid45" horiz-adv-x="661" d="M72,0V745H349q76,0 134.5-27.5t91.5-80T608,510q0-77-36.5-131T473,299L644,0H490L307,327l88-52H208V0H72ZM208,395H351q37,0 64,14.5T457,450t15,60q0,35-15,60.5t-42,40T351,625H208V395Z"/>
      <glyph unicode="S" glyph-name="gid46" horiz-adv-x="647" d="M338-12q-71,0-131.5,26t-104,72.5T39,195l113,49q27-64 78-100.5T345,107q36,0 62.5,11.5t41,31.5T463,198q0,33-19.5,54.5T385,286L242,332q-87,27-131,81T67,540q0,64 31.5,113t88,76.5T316,757q67,0 123-23.5t96.5-65T596,571L484,521q-22,56-66,86.5T316,638q-34,0-60-11.5t-40.5-32T201,546q0-31 20-54.5T282,455l137-43q89-29 133.5-80T597,206q0-64-33-113T473,16T338-12Z"/>
      <glyph unicode="T" glyph-name="gid47" horiz-adv-x="542" d="M204,0V625H11V745H531V625H341V0H204Z"/>
      <glyph unicode="U" glyph-name="gid48" horiz-adv-x="718" d="M359-12q-86,0-152.5,36T102,123T64,266V745H200V273q0-46 20.5-83T277,132.5T359,112q47,0 82.5,20.5t56,57.5T518,273V745H654V266q0-80-38-143T511.5,24T359-12Z"/>
      <glyph unicode="V" glyph-name="gid53" horiz-adv-x="697" d="M271,0L11,745H159L363,128H334L538,745H686L427,0H271Z"/>
      <glyph unicode="W" glyph-name="gid54" horiz-adv-x="1020" d="M211,0L11,745H157L314,110H276L440,745H581L744,110H706L863,745h146L809,0H653L488,618h44L367,0H211Z"/>
      <glyph unicode="X" glyph-name="gid55" horiz-adv-x="661" d="M11,0L255,375L13,745H169L367,442H295L492,745H648L407,375L650,0H494L295,307h72L167,0H11Z"/>
      <glyph unicode="Y" glyph-name="gid56" horiz-adv-x="660" d="M262,0V330L11,745H166L358,421H303L494,745H649L399,331V0H262Z"/>
      <glyph unicode="Z" glyph-name="gid58" horiz-adv-x="571" d="M14,0V107L375,625H35V745H548V638L188,120H558V0H14Z"/>
      <glyph unicode="[" glyph-name="gid208" horiz-adv-x="416" d="M105-170V745H365V630H237V-55H365V-170H105Z"/>
      <glyph unicode="\" glyph-name="gid199" horiz-adv-x="506" d="M348-120L16,705H159L491-120H348Z"/>
      <glyph unicode="]" glyph-name="gid209" horiz-adv-x="416" d="M51-170V-55H179V630H51V745H311V-170H51Z"/>
      <glyph unicode="^" glyph-name="gid251" horiz-adv-x="660" d="M98,420L268,745H394L563,420H419L304,641h55L243,420H98Z"/>
      <glyph unicode="_" glyph-name="gid203" horiz-adv-x="663" d="M88-115V0H575V-115H88Z"/>
      <glyph unicode="`" glyph-name="gid278" horiz-adv-x="381" d="M229,640L123,813H293l65-173H229Z"/>
      <glyph unicode="a" glyph-name="gid59" horiz-adv-x="580" d="M226-12q-57,0-99,19T62,61.5T39,144q0,45 20,80.5T121,284t106,34l178,29V247L252,221q-39-7-58-25t-19-47q0-28 21.5-44.5T250,88q41,0 72.5,17.5t49,48.5T389,222V362q0,35-27.5,58.5T289,444q-42,0-74.5-22.5T167,362L60,414q16,43 50.5,74.5T192,538t102,18q67,0 118-24.5t79.5-68T520,362V0H396V93l28,2q-21-35-50-58.5t-66-36T226-12Z"/>
      <glyph unicode="b" glyph-name="gid67" horiz-adv-x="672" d="M358-12q-59,0-108.5,23.5T171,79l13,26V0H61V757H192V436l-20,27q28,44 76,68.5T359,556q77,0 139-38t98.5-102T633,272q0-79-36-144T499,25.5T358-12ZM343,108q45,0 80,21t54.5,58T497,272t-19.5,84.5t-54.5,58T343,436q-43,0-77.5-21t-54-58.5T192,272q0-48 19.5-85t54-58T343,108Z"/>
      <glyph unicode="c" glyph-name="gid68" horiz-adv-x="608" d="M323-12q-81,0-145.5,37.5T76,127.5T39,273T76,418T177.5,519T323,556q58,0 108-20.5t86.5-56T570,395L455,345q-15,41-50.5,66T323,436q-43,0-76.5-21T194,357t-19-85t19-85t52.5-58T323,108q47,0 82,25t50,67l115-52q-16-46-52-82.5t-86-57T323-12Z"/>
      <glyph unicode="d" glyph-name="gid70" horiz-adv-x="672" d="M314-12q-79,0-141,37.5T75,128T39,272q0,80 36,144t98.5,102T313,556q62,0 110.5-24.5T500,463l-20-27V757H611V0H487V105l14-26q-28-44-78-67.5T314-12Zm14,120q45,0 79,21t53.5,58T480,272q0,47-19.5,84.5T407,415t-79,21q-44,0-79-21.5t-54.5-58T175,272t19.5-85T249,129t79-21Z"/>
      <glyph unicode="e" glyph-name="gid72" horiz-adv-x="612" d="M319-12q-84,0-147,38T74,129T39,273q0,82 35.5,145.5t97,100.5T309,556q64,0 112.5-21T504,477t52-84.5T574,290q0-14-1.5-29T567,235H147V335H493l-62-47q9,46-4.5,82t-44,57T309,448q-41,0-73-20.5t-48.5-60T175,272q-4-50 13.5-88.5t52-59.5T320,103t76.5,19T446,173l106-52q-16-39-50-69T421.5,5T319-12Z"/>
      <glyph unicode="f" glyph-name="gid77" horiz-adv-x="406" d="M124,0V427H28V544h96v18q0,62 25.5,105.5T221,734t109,23q12,0 26.5-1.5T381,752V639q-10,2-18.5,2.5T347,642q-44,0-68-19.5T255,562V544H376V427H255V0H124Z"/>
      <glyph unicode="g" glyph-name="gid78" horiz-adv-x="652" d="M325-220q-61,0-113,20t-89.5,55.5T68-61L190-15q12-38 47.5-61.5T325-100q40,0 70.5,15T443-41.5T460,27V151l25-30q-28-49-75-74T303,22q-76,0-136,35T73,153T39,290q0,77 34,137t93,94.5T300,556q61,0 107.5-25.5T485,457l-18-33V544H591V27q0-71-34.5-127t-94-88T325-220Zm-6,363q42,0 73.5,18.5T442,213t18,76q0,42-18.5,75.5t-50,52.5T319,436t-74-19t-51.5-52.5T175,289t18.5-75t51-52T319,143Z"/>
      <glyph unicode="h" glyph-name="gid79" horiz-adv-x="593" d="M61,0V757H192V437l-18,19q19,49 62.5,74.5T338,556q60,0 106.5-26T517,457.5T543,350V0H412V319q0,36-14,62t-38.5,40.5T302,436q-32,0-57-14.5T206,381t-14-62V0H61Z"/>
      <glyph unicode="i" glyph-name="gid80" horiz-adv-x="252" d="M61,0V544H192V0H61Zm0,605V745H192V605H61Z"/>
      <glyph unicode="j" glyph-name="gid87" horiz-adv-x="252" d="M-14-221q-13,0-27,1t-23,3v114q18-3 36-3q42,0 65.5,19.5T61-27V544H192V-27q0-62-25-105.5t-71.5-66T-14-221ZM61,605V745H192V605H61Z"/>
      <glyph unicode="k" glyph-name="gid89" horiz-adv-x="577" d="M61,0V757H192V261l-50,15L398,544H561L360,325L565,0H415L237,282l78,16L151,122l41,80V0H61Z"/>
      <glyph unicode="l" glyph-name="gid90" horiz-adv-x="252" d="M61,0V757H192V0H61Z"/>
      <glyph unicode="m" glyph-name="gid91" horiz-adv-x="924" d="M61,0V544H184V418l-14,21q15,59 60,88t106,29q67,0 118-35t66-92l-37-3q25,65 75,97.5T673,556q58,0 103.5-26T848,457.5T874,350V0H743V319q0,36-13,62t-36,40.5T638,436q-31,0-55-14.5T546,381t-13-62V0H402V319q0,36-13,62t-36.5,40.5T297,436q-31,0-55-14.5T205,381t-13-62V0H61Z"/>
      <glyph unicode="n" glyph-name="gid92" horiz-adv-x="593" d="M61,0V544H184V437l-10,19q19,49 62.5,74.5T338,556q60,0 106.5-26T517,457.5T543,350V0H412V319q0,36-14,62t-38.5,40.5T302,436q-32,0-57-14.5T206,381t-14-62V0H61Z"/>
      <glyph unicode="o" glyph-name="gid94" horiz-adv-x="652" d="M327-12q-80,0-145.5,37T77.5,126T39,272T77.5,418T181,519t146,37q80,0 145-37T575.5,418.5T614,272q0-82-39-146T471,25T327-12Zm0,120q44,0 77.5,21t53,58.5T477,272q0,48-19.5,84.5t-53,58T327,436q-45,0-79-21.5t-53.5-58T175,272q0-47 19.5-84.5T248,129t79-21Z"/>
      <glyph unicode="p" glyph-name="gid102" horiz-adv-x="672" d="M61-200V544H184V436l-12,27q28,44 76,68.5T359,556q77,0 139-38t98.5-102T633,272q0-79-36-144T499,25.5T358-12q-59,0-108.5,23.5T171,79l21,26V-200H61ZM343,108q45,0 80,21t54.5,58T497,272t-19.5,84.5t-54.5,58T343,436q-43,0-77.5-21t-54-58.5T192,272q0-48 19.5-85t54-58T343,108Z"/>
      <glyph unicode="q" glyph-name="gid104" horiz-adv-x="672" d="M480-200V105l21-26q-28-44-78-67.5T314-12q-79,0-141,37.5T75,128T39,272q0,80 36,144t98.5,102T313,556q62,0 110.5-24.5T500,463l-13-27V544H611V-200H480ZM328,108q45,0 79,21t53.5,58T480,272q0,47-19.5,84.5T407,415t-79,21q-44,0-79-21.5t-54.5-58T175,272t19.5-85T249,129t79-21Z"/>
      <glyph unicode="r" glyph-name="gid105" horiz-adv-x="374" d="M61,0V544H184V423l-10,18q19,61 59.5,85T331,550h32V434H316q-56,0-90-34.5T192,303V0H61Z"/>
      <glyph unicode="s" glyph-name="gid106" horiz-adv-x="514" d="M268-12q-87,0-151.5,41.5T28,142l98,47q21-46 58.5-72T268,91q36,0 57,16t21,42q0,16-8.5,26.5t-23,18T283,206l-89,25q-69,20-104.5,61T54,389q0,50 25.5,87.5t71,58.5T255,556q77,0 136-37t84-104L375,368q-14,37-47,59t-74,22q-33,0-52-15t-19-39q0-15 8-26t22.5-18T247,338l87-26q67-20 103.5-60T474,154q0-49-26-86.5T376,9T268-12Z"/>
      <glyph unicode="t" glyph-name="gid108" horiz-adv-x="413" d="M309-6Q217-6 166.5,44.5T116,187V427H22V544H32q40,0 62,21t22,61v42H247V544H372V427H247V194q0-27 9.5-46t30-29T339,109q7,0 16.5,1t18.5,2V0q-14-2-32-4T309-6Z"/>
      <glyph unicode="u" glyph-name="gid109" horiz-adv-x="593" d="M255-12q-63,0-109.5,28t-71,78T50,211V544H181V222q0-34 13.5-59.5t39-40T291,108t57,14.5T387,163t14,62V544H532V0H408V107l11-19q-19-50-62.5-75T255-12Z"/>
      <glyph unicode="v" glyph-name="gid114" horiz-adv-x="566" d="M225,0L11,544H154L309,116H256L412,544H555L341,0H225Z"/>
      <glyph unicode="w" glyph-name="gid115" horiz-adv-x="883" d="M198,0L11,544H149L286,131l-48,1L384,544H500L645,132l-48-1L734,544H872L685,0H568L420,431h44L314,0H198Z"/>
      <glyph unicode="x" glyph-name="gid116" horiz-adv-x="558" d="M12,0L202,273L11,544H165L314,324H245L394,544H547L357,273L546,0H393L246,219h67L166,0H12Z"/>
      <glyph unicode="y" glyph-name="gid117" horiz-adv-x="586" d="M127-220q-22,0-43,3.5T46-204V-95q13-3 31.5-6t34.5-3q45,0 65.5,20.5T214-29l36,84L248-55L11,544H152L318,102H268L433,544H575L338-55q-21-52-51-89t-69.5-56.5T127-220Z"/>
      <glyph unicode="z" glyph-name="gid120" horiz-adv-x="481" d="M14,0V106L330,472l20-45H28V544H466V437L156,71l-20,45H468V0H14Z"/>
      <glyph unicode="{" glyph-name="gid206" horiz-adv-x="398" d="M301-170q-84,0-130.5,42.5T124-9V166q0,28-13,43.5T72,225H41V340H72q26,0 39,16t13,43V585q0,75 46.5,117.5T301,745h46V630H301q-21,0-33-12.5T257,582V410q0-40-15.5-72.5T197,284q29-17 44.5-49T257,164V-6q-1-22 11-35.5T301-55h46V-170H301Z"/>
      <glyph unicode="|" glyph-name="gid232" horiz-adv-x="395" d="M131-190V845H264V-190H131Z"/>
      <glyph unicode="}" glyph-name="gid207" horiz-adv-x="398" d="M51-170V-55H97q21,0 33,13.5T142-6V164q-1,39 14.5,71T201,284q-29,21-44.5,53.5T142,410V582q0,23-12,35.5T97,630H51V745H97q85,0 131-42.5T274,585V399q0-27 13.5-43T326,340h31V225H326q-25,0-38.5-15.5T274,166V-9q0-76-46-118.5T97-170H51Z"/>
      <glyph unicode="~" glyph-name="gid249" horiz-adv-x="660" d="M427,190q-34,0-58,10t-42.5,23t-36,23T252,256q-23,0-38-15.5T195,195H88q5,83 44,126.5T237,365q34,0 58-9.5t42.5-23t36-23T411,300q22,0 36,14t20,47H573q-6-84-42.5-127.5T427,190Z"/>
      <glyph unicode="&#xa0;" glyph-name="gid179" horiz-adv-x="178"/>
      <glyph unicode="&#xa1;" glyph-name="gid190" horiz-adv-x="371" d="M119-201l9,519H243l9-519H119Zm0,605V544H252V404H119Z"/>
      <glyph unicode="&#xa2;" glyph-name="gid234" horiz-adv-x="608" d="M323,89q-81,0-145.5,37.5T76,228.5T39,374T76,519T177.5,620T323,657q58,0 108-20.5t86.5-56T570,497L455,446q-15,41-50.5,66T323,537q-43,0-76.5-21T194,458t-19-85q0-47 19-84.5T246.5,230T323,209q47,0 82,25t50,67l115-52q-16-46-52-82t-86-57T323,89ZM278,0V745h85V0H278Z"/>
      <glyph unicode="&#xa3;" glyph-name="gid238" horiz-adv-x="663" d="M36,0V115H136V514q0,73 30.5,127.5t87,85T387,757q61,0 112.5-23T586,669.5T628,571L508,534q-7,50-40.5,75.5T387,635q-55,0-85-31.5T272,514V115H595V0H36Zm0,337v84H456V337H36Z"/>
      <glyph unicode="&#xa4;" glyph-name="gid235" horiz-adv-x="594" d="M115,11L39,87l79,78q-14,23-21.5,49T89,269q0,28 7.5,54.5T118,373L39,452l76,76l79-79q23,14 49,21t54,7q29,0 55.5-7T401,449l79,79l76-76l-79-79q14-23 21-49.5t7-54.5q0-29-7-55t-21-49l79-78L480,11L401,89q-22-13-48.5-20.5T297,61q-27,0-53.5,7T194,89L115,11ZM297,177q26,0 46.5,12.5t33,33.5T389,269q0,26-12.5,46.5t-33,33T297,361q-25,0-46-12.5t-33.5-33T205,269q0-25 12.5-46T251,189.5T297,177Z"/>
      <glyph unicode="&#xa5;" glyph-name="gid239" horiz-adv-x="660" d="M262,0V330L11,745H166L358,421H303L494,745H649L399,331V0H262ZM120,289v83H540V289H120Zm0-144v84H540V145H120Z"/>
      <glyph unicode="&#xa6;" glyph-name="gid233" horiz-adv-x="395" d="M131,428V845H264V428H131Zm0-618V228H264V-190H131Z"/>
      <glyph unicode="&#xa7;" glyph-name="gid225" horiz-adv-x="534" d="M279-97q-91,0-158,43.5T28,64l99,47q24-48 63.5-75.5T279,8q39,0 62.5,17T365,72q0,17-9,29t-25,20.5T296,135l-94,27q-72,20-109.5,63.5T55,327q0,52 27,91t74.5,61T265,501l-1-73q-37,0-58-21.5T185,350q0-22 10-38t28.5-27.5T267,266l80-23q71-21 109-64T494,76q0-51-27-90T391.5-75T279-97Zm0,256v70q39,0 62.5,21.5T365,310q0,22-9.5,38t-28,28T282,395l-80,23q-72,20-109.5,63.5T55,583q0,52 27,91t74.5,61T265,757q78,0 140-38t89-109L394,563q-15,39-51,62.5T264,649q-37,0-58-16.5T185,589q0-18 9.5-30.5T220,539t34-13l93-27q71-21 109-64t38-103q0-51-27-90t-75.5-61T279,159Z"/>
      <glyph unicode="&#xa8;" glyph-name="gid277" horiz-adv-x="534" d="M123,640V778H260V640H123Zm217,0V778H478V640H340Z"/>
      <glyph unicode="&#xa9;" glyph-name="gid226" horiz-adv-x="938" d="M470-12q-80,0-150,30T197,101T114,224T84,374t29.5,149T196,645t123,82.5T470,757q79,0 148.5-29.5t122.5-82t83-122T854,374T824.5,224T742,101T619.5,18T470-12Zm0,93q61,0 113.5,22.5T676,166t62.5,93T761,374q0,60-22.5,113T676,580t-92.5,62.5T470,665q-62,0-115-22.5T262,580t-62.5-92.5T177,374q0-62 22.5-115T262,166t93-62.5T470,81Zm4,82q-58,0-105.5,27.5t-75,75T266,373q0,61 27.5,108T368,555t106,27q45,0 81.5-14.5T617,528t35-57l-90-35q-10,24-32.5,40.5T474,493q-49,0-78.5-33.5T366,373t29.5-86.5T474,253q32,0 55,16t33,40l90-35q-10-32-35-57t-61.5-39.5T474,163Z"/>
      <glyph unicode="&#xaa;" glyph-name="gid126" horiz-adv-x="445" d="M173,355q-62,0-98,30T39,466q0,49 33.5,80.5T174,589l117,19V530l-98-18q-22-4-33.5-13.5T148,470q0-17 12.5-27T193,433q26,0 45.5,11.5t30.5,30T280,517v99q0,21-17.5,36T217,667q-29,0-50.5-16T137,611L52,651q17,48 63.5,76T221,755q73,0 118.5-38.5T385,616V364H286v62l25,3q-25-37-58.5-55.5T173,355Z"/>
      <glyph unicode="&#xab;" glyph-name="gid216" horiz-adv-x="674" d="M198,72L45,269L198,467H343L191,269L343,72H198Zm285,0L330,269L483,467H628L476,269L628,72H483Z"/>
      <glyph unicode="&#xac;" glyph-name="gid250" horiz-adv-x="660" d="M468,40V194H80V307H580V40H468Z"/>
      <glyph unicode="&#xae;" glyph-name="gid227" horiz-adv-x="680" d="M341,271q-71,0-129.5,35t-93,93.5T84,528q0,72 34.5,130t93,92T341,784q53,0 99-19.5T521,710t55-82t20-100q0-70-34-128.5T470,306T341,271Zm0,71q51,0 93,25t67,67.5T526,528q0,52-25.5,94.5t-67,67.5T341,715q-53,0-95-25.5t-67-68T154,528q0-52 25-94.5t68-67T341,342ZM232,393V664H351q44,0 73-21.5T453,573q0-31-14.5-50T402,493l57-100H380l-51,92H306V393H232Zm74,154h47q12,0 19.5,8t7.5,19q0,12-7.5,19.5T353,601H306V547Z"/>
      <glyph unicode="&#xaf;" glyph-name="gid283" horiz-adv-x="455" d="M123,660V768H445V660H123Z"/>
      <glyph unicode="&#xb0;" glyph-name="gid229" horiz-adv-x="535" d="M267,423q-46,0-84,22.5t-60.5,60T100,590q0,46 22.5,84T183,734.5T267,757q47,0 85-22.5T412.5,674T435,590q0-47-22.5-84.5t-60.5-60T267,423Zm0,90q32,0 54.5,22T344,590t-23,55t-54,22q-32,0-54-22t-22-55t22-55t54-22Z"/>
      <glyph unicode="&#xb1;" glyph-name="gid248" horiz-adv-x="660" d="M274,183V329H80V442H274V588H387V442H580V329H387V183H274ZM80,0V113H580V0H80Z"/>
      <glyph unicode="&#xb2;" glyph-name="gid176" horiz-adv-x="410" d="M23,224v84L164,453q36,39 58,63.5T253.5,559t9.5,35q0,29-18.5,45.5T198,656t-50.5-16.5T115,590L20,620q9,42 35.5,72T120,738t78,16q52,0 91.5-18.5t61-51.5T372,607q0-46-24.5-85T281,439L162,316H378V224H23Z"/>
      <glyph unicode="&#xb3;" glyph-name="gid177" horiz-adv-x="425" d="M202,215q-43,0-82.5,16.5T53,278T16,347l95,33q13-33 36.5-49.5T202,314q38,0 60.5,21T285,393q0,35-22,56t-61,21q-33,0-59-13l-25,52L251,655H49v90H373V661L237,507l3,42q47,0 81.5-19T375,476t19-80q0-51-25-92t-68.5-65T202,215Z"/>
      <glyph unicode="&#xb4;" glyph-name="gid279" horiz-adv-x="381" d="M123,640l65,173H358L252,640H123Z"/>
      <glyph unicode="&#xb5;" glyph-name="gid252" horiz-adv-x="593" d="M50-140V544H181V222q0-34 13.5-59.5t38.5-40T291,108q32,0 57,14.5T387,163t14,62V544H532V0H408V125l14-20q-14-59-59-88T255-12q-31,0-58,7.5T147,17l34,46V-140H50Z"/>
      <glyph unicode="&#xb6;" glyph-name="gid224" horiz-adv-x="564" d="M297-100V310q-67,0-117.5,27.5T101,414T73,527q0,65 28,114t78.5,76.5T297,745H433V-100H297Z"/>
      <glyph unicode="&#xb7;" glyph-name="gid193" horiz-adv-x="378" d="M123,202V342H255V202H123Z"/>
      <glyph unicode="&#xb8;" glyph-name="gid284" horiz-adv-x="381" d="M236-237q-26,0-58.5,8.5T123-204l28,75q15-10 33-15.5t35-5.5q22,0 34,9t12,25q0,19-24,30.5T171-69l21,79h77l-9-40q52-7 82-32.5T372-126q0-51-37-81t-99-30Z"/>
      <glyph unicode="&#xb9;" glyph-name="gid175" horiz-adv-x="315" d="M117,224V654H16v91H226V224H117Z"/>
      <glyph unicode="&#xba;" glyph-name="gid127" horiz-adv-x="487" d="M244,355q-56,0-102.5,26T67,452T39,555T67,658t74,71t103,26q56,0 102.5-26t74-71T448,555T420.5,452t-74-71T244,355Zm0,95q29,0 50,14t33,37.5T339,555q0,31-12.5,54.5t-33.5,37T244,660t-50-13.5T160,609t-12-54t12-53.5T194,464t50-14Z"/>
      <glyph unicode="&#xbb;" glyph-name="gid217" horiz-adv-x="674" d="M331,72L483,269L331,467H475L629,269L475,72H331ZM46,72L198,269L46,467H190L344,269L190,72H46Z"/>
      <glyph unicode="&#xbc;" glyph-name="gid170" horiz-adv-x="881" d="M97,328V667H16v78H190V328H97ZM111,0L557,745h93L204,0H111ZM696,0V89H515v78L689,417H790V167h66V89H790V0H696ZM582,134l-17,33H696V346l24-8L582,134Z"/>
      <glyph unicode="&#xbd;" glyph-name="gid169" horiz-adv-x="825" d="M97,328V667H16v78H190V328H97ZM111,0L557,745h93L204,0H111ZM508,0V72L620,188q30,29 46,48.5t23,33t7,25.5q0,20-14,32.5T649,340q-21,0-38-12t-25-37l-81,27q7,33 28.5,56.5t52,36.5T649,424q63,0 101.5-32.5T789,306q0-37-20-68t-50-63L626,79H793V0H508Z"/>
      <glyph unicode="&#xbe;" glyph-name="gid171" horiz-adv-x="953" d="M166,321q-52,0-95,29.5T16,428l83,28q9-25 26-37.5T166,406q28,0 45.5,16T229,465q0,25-16.5,40.5T166,521q-12,0-25.5-3T117,510L95,554L200,668H43v77H305V672L195,551l4,39q56,0 89-34.5T321,467q0-41-20.5-74T245,340.5T166,321ZM183,0L629,745h93L276,0H183ZM768,0V89H587v78L761,417H862V167h66V89H862V0H768ZM654,134l-17,33H768V346l24-8L654,134Z"/>
      <glyph unicode="&#xbf;" glyph-name="gid192" horiz-adv-x="583" d="M293-213q-73,0-124,29T91-109T64-12q0,40 15.5,71T119,115.5T168,166q31,30 55.5,63T248,305v13H373V298q0-44-13.5-78t-35-60T281,111q-31-31-56-57T200-9q0-23 11-41.5T244-80t52-11q43,0 73,25.5T407,3L529-27q-9-55-41-97t-82-65.5T293-213ZM242,404V544H375V404H242Z"/>
      <glyph unicode="&#xc0;" glyph-name="gid6" horiz-adv-x="712" d="M11,0L268,745H444L701,0H553L500,160H212L158,0H11ZM251,280H461L337,651h38L251,280Zm41,562L186,1015H356l65-173H292Z"/>
      <glyph unicode="&#xc1;" glyph-name="gid2" horiz-adv-x="712" d="M11,0L268,745H444L701,0H553L500,160H212L158,0H11ZM251,280H461L337,651h38L251,280Zm41,562l65,173H527L421,842H292Z"/>
      <glyph unicode="&#xc2;" glyph-name="gid4" horiz-adv-x="712" d="M11,0L268,745H444L701,0H553L500,160H212L158,0H11ZM251,280H461L337,651h38L251,280ZM162,842l117,165H434L552,842H422l-65,90l-65-90H162Z"/>
      <glyph unicode="&#xc3;" glyph-name="gid8" horiz-adv-x="712" d="M11,0L268,745H444L701,0H553L500,160H212L158,0H11ZM251,280H461L337,651h38L251,280ZM428,842q-27,0-45.5,8.5t-31.5,19t-26,19T295,897t-26-12.5T260,846H159q0,80 36,117.5t87,37.5q28,0 47-8t33-19t26.5-19t27.5-8q20,0 28,13.5t8,36.5H553q-1-76-37-115.5T428,842Z"/>
      <glyph unicode="&#xc4;" glyph-name="gid5" horiz-adv-x="712" d="M11,0L268,745H444L701,0H553L500,160H212L158,0H11ZM251,280H461L337,651h38L251,280ZM179,842V980H316V842H179Zm217,0V980H534V842H396Z"/>
      <glyph unicode="&#xc5;" glyph-name="gid7" horiz-adv-x="712" d="M11,0L268,745H444L701,0H553L500,160H212L158,0H11ZM251,280H461L337,651h38L251,280ZM357,800q-53,0-89,33.5T232,921q0,53 35.5,86.5T357,1041q53,0 88.5-33.5T481,921q0-54-35.5-87.5T357,800Zm0,78q18,0 29.5,12T398,921t-11.5,30.5T357,963t-30.5-11.5T314,921t12-31t31-12Z"/>
      <glyph unicode="&#xc6;" glyph-name="gid9" horiz-adv-x="991" d="M11,0L268,745H964V625H604V434H944V314H604V120H964L963,0H468V160H212L158,0H11ZM251,280H468V625H367L251,280Z"/>
      <glyph unicode="&#xc7;" glyph-name="gid12" horiz-adv-x="774" d="M422-12q-80,0-147.5,29t-118,81T78,220T50,373T77.5,526.5t78,122t118.5,80T422,757t143.5-27T673,658.5T736,561L614,504q-21,56-71,92.5T422,633q-70,0-123.5-33t-83-91T186,373t29.5-136.5t83-91.5T422,112q71,0 121,36.5T614,241l122-57q-19-53-63-97.5T565.5,15T422-12Zm10-225q-26,0-58.5,8.5T319-204l28,75q15-10 33-15.5t35-5.5q22,0 34,9t12,25q0,19-24,30.5T367-69l21,79h77l-9-40q52-7 82-32.5T568-126q0-51-37-81t-99-30Z"/>
      <glyph unicode="&#xc8;" glyph-name="gid19" horiz-adv-x="595" d="M72,0V745H567V625H208V434H547V314H208V120H567V0H72ZM256,842L150,1015H320l65-173H256Z"/>
      <glyph unicode="&#xc9;" glyph-name="gid16" horiz-adv-x="595" d="M72,0V745H567V625H208V434H547V314H208V120H567V0H72ZM255,842l65,173H490L384,842H255Z"/>
      <glyph unicode="&#xca;" glyph-name="gid17" horiz-adv-x="595" d="M72,0V745H567V625H208V434H547V314H208V120H567V0H72Zm53,842l117,165H397L515,842H385l-65,90l-65-90H125Z"/>
      <glyph unicode="&#xcb;" glyph-name="gid18" horiz-adv-x="595" d="M72,0V745H567V625H208V434H547V314H208V120H567V0H72Zm71,842V980H280V842H143Zm217,0V980H498V842H360Z"/>
      <glyph unicode="&#xcc;" glyph-name="gid27" horiz-adv-x="279" d="M72,0V745H208V0H72Zm4,842L-30,1015H140l65-173H76Z"/>
      <glyph unicode="&#xcd;" glyph-name="gid24" horiz-adv-x="279" d="M72,0V745H208V0H72Zm4,842l65,173H311L205,842H76Z"/>
      <glyph unicode="&#xce;" glyph-name="gid25" horiz-adv-x="279" d="M72,0V745H208V0H72ZM-54,842L63,1007H218L336,842H206l-65,90L76,842H-54Z"/>
      <glyph unicode="&#xcf;" glyph-name="gid26" horiz-adv-x="279" d="M72,0V745H208V0H72ZM-37,842V980H100V842H-37Zm217,0V980H318V842H180Z"/>
      <glyph unicode="&#xd0;" glyph-name="gid14" horiz-adv-x="740" d="M16,316V431H365V316H16ZM72,0V745H315q118,0 205.5-47.5T656,566.5T704,373q0-109-48-193.5T520.5,47.5T315,0H72ZM208,120H318q76,0 131.5,31.5t86.5,88T567,373q0,78-31,134t-86.5,87T318,625H208V120Z"/>
      <glyph unicode="&#xd1;" glyph-name="gid33" horiz-adv-x="741" d="M72,0V745H178L588,193l-55-11V745H669V0H562L158,556l50,11V0H72ZM443,842q-27,0-45.5,8.5t-31.5,19t-26,19T310,897t-26-12.5T275,846H174q0,80 36,117.5t87,37.5q28,0 47-8t33-19t26.5-19t27.5-8q20,0 28,13.5t8,36.5H568q-1-76-37-115.5T443,842Z"/>
      <glyph unicode="&#xd2;" glyph-name="gid38" horiz-adv-x="878" d="M439-12q-82,0-153,29T162,98T79.5,220.5T50,373q0,83 29,153t82,122t124,80.5T439,757t154-29t124-80.5T799.5,526T829,373q0-82-30-152.5T716,98T592.5,17T439-12Zm0,124q55,0 101,19.5T620.5,186t53,83T692,373T673.5,476.5t-53,83T540,614T439,633q-54,0-100-19t-80.5-54.5t-53.5-83T186,373t19-104t53.5-83T339,131.5T439,112ZM375,842L269,1015H439l65-173H375Z"/>
      <glyph unicode="&#xd3;" glyph-name="gid35" horiz-adv-x="878" d="M439-12q-82,0-153,29T162,98T79.5,220.5T50,373q0,83 29,153t82,122t124,80.5T439,757t154-29t124-80.5T799.5,526T829,373q0-82-30-152.5T716,98T592.5,17T439-12Zm0,124q55,0 101,19.5T620.5,186t53,83T692,373T673.5,476.5t-53,83T540,614T439,633q-54,0-100-19t-80.5-54.5t-53.5-83T186,373t19-104t53.5-83T339,131.5T439,112ZM375,842l65,173H610L504,842H375Z"/>
      <glyph unicode="&#xd4;" glyph-name="gid36" horiz-adv-x="878" d="M439-12q-82,0-153,29T162,98T79.5,220.5T50,373q0,83 29,153t82,122t124,80.5T439,757t154-29t124-80.5T799.5,526T829,373q0-82-30-152.5T716,98T592.5,17T439-12Zm0,124q55,0 101,19.5T620.5,186t53,83T692,373T673.5,476.5t-53,83T540,614T439,633q-54,0-100-19t-80.5-54.5t-53.5-83T186,373t19-104t53.5-83T339,131.5T439,112ZM245,842l117,165H517L635,842H505l-65,90l-65-90H245Z"/>
      <glyph unicode="&#xd5;" glyph-name="gid40" horiz-adv-x="878" d="M439-12q-82,0-153,29T162,98T79.5,220.5T50,373q0,83 29,153t82,122t124,80.5T439,757t154-29t124-80.5T799.5,526T829,373q0-82-30-152.5T716,98T592.5,17T439-12Zm0,124q55,0 101,19.5T620.5,186t53,83T692,373T673.5,476.5t-53,83T540,614T439,633q-54,0-100-19t-80.5-54.5t-53.5-83T186,373t19-104t53.5-83T339,131.5T439,112Zm72,730q-27,0-45.5,8.5t-31.5,19t-26,19T378,897t-26-12.5T343,846H242q0,80 36,117.5t87,37.5q28,0 47-8t33-19t26.5-19t27.5-8q20,0 28,13.5t8,36.5H636q-1-76-37-115.5T511,842Z"/>
      <glyph unicode="&#xd6;" glyph-name="gid37" horiz-adv-x="878" d="M439-12q-82,0-153,29T162,98T79.5,220.5T50,373q0,83 29,153t82,122t124,80.5T439,757t154-29t124-80.5T799.5,526T829,373q0-82-30-152.5T716,98T592.5,17T439-12Zm0,124q55,0 101,19.5T620.5,186t53,83T692,373T673.5,476.5t-53,83T540,614T439,633q-54,0-100-19t-80.5-54.5t-53.5-83T186,373t19-104t53.5-83T339,131.5T439,112ZM262,842V980H399V842H262Zm217,0V980H617V842H479Z"/>
      <glyph unicode="&#xd7;" glyph-name="gid243" horiz-adv-x="660" d="M179,0L99,80L251,232L100,382l80,79L330,311L481,461l80-79L409,232L561,80L482,0L330,152L179,0Z"/>
      <glyph unicode="&#xd8;" glyph-name="gid39" horiz-adv-x="878" d="M58,0L668,745H820L210,0H58ZM439-12q-82,0-153,29T162,98T79.5,220.5T50,373q0,83 29,153t82,122t124,80.5T439,757t154-29t124-80.5T799.5,526T829,373q0-82-30-152.5T716,98T592.5,17T439-12Zm0,124q55,0 101,19.5T620.5,186t53,83T692,373T673.5,476.5t-53,83T540,614T439,633q-54,0-100-19t-80.5-54.5t-53.5-83T186,373t19-104t53.5-83T339,131.5T439,112Z"/>
      <glyph unicode="&#xd9;" glyph-name="gid52" horiz-adv-x="718" d="M359-12q-86,0-152.5,36T102,123T64,266V745H200V273q0-46 20.5-83T277,132.5T359,112q47,0 82.5,20.5t56,57.5T518,273V745H654V266q0-80-38-143T511.5,24T359-12ZM295,842L189,1015H359l65-173H295Z"/>
      <glyph unicode="&#xda;" glyph-name="gid49" horiz-adv-x="718" d="M359-12q-86,0-152.5,36T102,123T64,266V745H200V273q0-46 20.5-83T277,132.5T359,112q47,0 82.5,20.5t56,57.5T518,273V745H654V266q0-80-38-143T511.5,24T359-12ZM295,842l65,173H530L424,842H295Z"/>
      <glyph unicode="&#xdb;" glyph-name="gid50" horiz-adv-x="718" d="M359-12q-86,0-152.5,36T102,123T64,266V745H200V273q0-46 20.5-83T277,132.5T359,112q47,0 82.5,20.5t56,57.5T518,273V745H654V266q0-80-38-143T511.5,24T359-12ZM165,842l117,165H437L555,842H425l-65,90l-65-90H165Z"/>
      <glyph unicode="&#xdc;" glyph-name="gid51" horiz-adv-x="718" d="M359-12q-86,0-152.5,36T102,123T64,266V745H200V273q0-46 20.5-83T277,132.5T359,112q47,0 82.5,20.5t56,57.5T518,273V745H654V266q0-80-38-143T511.5,24T359-12ZM182,842V980H319V842H182Zm217,0V980H537V842H399Z"/>
      <glyph unicode="&#xdd;" glyph-name="gid57" horiz-adv-x="660" d="M262,0V330L11,745H166L358,421H303L494,745H649L399,331V0H262Zm4,842l65,173H501L395,842H266Z"/>
      <glyph unicode="&#xde;" glyph-name="gid43" horiz-adv-x="650" d="M65,0V745H201V608H344q76,0 134-27.5t91.5-80T603,372q0-74-33.5-126.5t-92-80T344,138H201V0H65ZM201,258H345q37,0 64,14t42,40t15,60q0,35-15,61t-42,40.5T345,488H201V258Z"/>
      <glyph unicode="&#xdf;" glyph-name="gid107" horiz-adv-x="641" d="M72-157V503q0,79 33,136t91.5,87.5T329,757q73,0 128-26.5t85-74T572,546q0-55-30-99.5T456,382l-8,38q83-27 119-73t36-119q0-70-30.5-121.5T486,27.5T353,0H285V115h60q55,0 88.5,31T467,228q0,50-33.5,80T345,338H285V453h51q29,0 51.5,12T423,498.5T436,547q0,28-13.5,49.5T385,630t-56,12q-38,0-66-16.5T219,578t-16-75V-157H72Z"/>
      <glyph unicode="&#xe0;" glyph-name="gid63" horiz-adv-x="580" d="M226-12q-57,0-99,19T62,61.5T39,144q0,45 20,80.5T121,284t106,34l178,29V247L252,221q-39-7-58-25t-19-47q0-28 21.5-44.5T250,88q41,0 72.5,17.5t49,48.5T389,222V362q0,35-27.5,58.5T289,444q-42,0-74.5-22.5T167,362L60,414q16,43 50.5,74.5T192,538t102,18q67,0 118-24.5t79.5-68T520,362V0H396V93l28,2q-21-35-50-58.5t-66-36T226-12Zm5,652L125,813H295l65-173H231Z"/>
      <glyph unicode="&#xe1;" glyph-name="gid60" horiz-adv-x="580" d="M226-12q-57,0-99,19T62,61.5T39,144q0,45 20,80.5T121,284t106,34l178,29V247L252,221q-39-7-58-25t-19-47q0-28 21.5-44.5T250,88q41,0 72.5,17.5t49,48.5T389,222V362q0,35-27.5,58.5T289,444q-42,0-74.5-22.5T167,362L60,414q16,43 50.5,74.5T192,538t102,18q67,0 118-24.5t79.5-68T520,362V0H396V93l28,2q-21-35-50-58.5t-66-36T226-12Zm4,652l65,173H465L359,640H230Z"/>
      <glyph unicode="&#xe2;" glyph-name="gid61" horiz-adv-x="580" d="M226-12q-57,0-99,19T62,61.5T39,144q0,45 20,80.5T121,284t106,34l178,29V247L252,221q-39-7-58-25t-19-47q0-28 21.5-44.5T250,88q41,0 72.5,17.5t49,48.5T389,222V362q0,35-27.5,58.5T289,444q-42,0-74.5-22.5T167,362L60,414q16,43 50.5,74.5T192,538t102,18q67,0 118-24.5t79.5-68T520,362V0H396V93l28,2q-21-35-50-58.5t-66-36T226-12ZM100,640L217,805H372L490,640H360l-65,90l-65-90H100Z"/>
      <glyph unicode="&#xe3;" glyph-name="gid65" horiz-adv-x="580" d="M226-12q-57,0-99,19T62,61.5T39,144q0,45 20,80.5T121,284t106,34l178,29V247L252,221q-39-7-58-25t-19-47q0-28 21.5-44.5T250,88q41,0 72.5,17.5t49,48.5T389,222V362q0,35-27.5,58.5T289,444q-42,0-74.5-22.5T167,362L60,414q16,43 50.5,74.5T192,538t102,18q67,0 118-24.5t79.5-68T520,362V0H396V93l28,2q-21-35-50-58.5t-66-36T226-12ZM367,640q-27,0-45.5,8.5t-31.5,19t-26,19T234,695t-26-12.5T199,644H98q0,80 36,117.5T221,799q28,0 47-8t33-19t26.5-19t27.5-8q20,0 28,13.5t8,36.5H492q-1-76-37-115.5T367,640Z"/>
      <glyph unicode="&#xe4;" glyph-name="gid62" horiz-adv-x="580" d="M226-12q-57,0-99,19T62,61.5T39,144q0,45 20,80.5T121,284t106,34l178,29V247L252,221q-39-7-58-25t-19-47q0-28 21.5-44.5T250,88q41,0 72.5,17.5t49,48.5T389,222V362q0,35-27.5,58.5T289,444q-42,0-74.5-22.5T167,362L60,414q16,43 50.5,74.5T192,538t102,18q67,0 118-24.5t79.5-68T520,362V0H396V93l28,2q-21-35-50-58.5t-66-36T226-12ZM118,640V778H255V640H118Zm217,0V778H473V640H335Z"/>
      <glyph unicode="&#xe5;" glyph-name="gid64" horiz-adv-x="580" d="M226-12q-57,0-99,19T62,61.5T39,144q0,45 20,80.5T121,284t106,34l178,29V247L252,221q-39-7-58-25t-19-47q0-28 21.5-44.5T250,88q41,0 72.5,17.5t49,48.5T389,222V362q0,35-27.5,58.5T289,444q-42,0-74.5-22.5T167,362L60,414q16,43 50.5,74.5T192,538t102,18q67,0 118-24.5t79.5-68T520,362V0H396V93l28,2q-21-35-50-58.5t-66-36T226-12Zm69,610q-53,0-89,33.5T170,719q0,53 35.5,86.5T295,839q53,0 88.5-33.5T419,719q0-54-35.5-87.5T295,598Zm0,78q18,0 29.5,12T336,719t-11.5,30.5T295,761t-30.5-11.5T252,719t12-31t31-12Z"/>
      <glyph unicode="&#xe6;" glyph-name="gid66" horiz-adv-x="967" d="M226-12q-57,0-99,19T62,61.5T39,144q0,45 20,80.5T121,284t106,34l162,26v18q0,35-27.5,58.5T289,444q-42,0-74.5-22.5T167,362L60,414q16,43 50.5,74.5T192,538t102,18q71,0 124-28.5T497,451l-46,1q37,47 92,75.5T664,556q63,0 112-21t83-58t51.5-84.5T928,290q0-14-1.5-29T922,235H530q4-40 23-69.5t50.5-46T675,103q45,0 76,19t50,51l106-52q-16-39-49.5-69t-77-47T688-12q-65,0-119,25T479,89l28,27V0H396V117l26-28q-22-33-51-55.5t-65-34T226-12ZM250,88q41,0 72.5,17.5t49,48.5T389,222v22L252,221q-39-7-58-25t-19-47q0-28 21.5-44.5T250,88ZM533,335H789q-3,33-19.5,59t-44,40T664,448q-33,0-60.5-13t-46-38.5T533,335Z"/>
      <glyph unicode="&#xe7;" glyph-name="gid69" horiz-adv-x="608" d="M323-12q-81,0-145.5,37.5T76,127.5T39,273T76,418T177.5,519T323,556q58,0 108-20.5t86.5-56T570,395L455,345q-15,41-50.5,66T323,436q-43,0-76.5-21T194,357t-19-85t19-85t52.5-58T323,108q47,0 82,25t50,67l115-52q-16-46-52-82.5t-86-57T323-12Zm10-225q-26,0-58.5,8.5T220-204l28,75q15-10 33-15.5t35-5.5q22,0 34,9t12,25q0,19-24,30.5T268-69l21,79h77l-9-40q52-7 82-32.5T469-126q0-51-37-81t-99-30Z"/>
      <glyph unicode="&#xe8;" glyph-name="gid76" horiz-adv-x="612" d="M319-12q-84,0-147,38T74,129T39,273q0,82 35.5,145.5t97,100.5T309,556q64,0 112.5-21T504,477t52-84.5T574,290q0-14-1.5-29T567,235H147V335H493l-62-47q9,46-4.5,82t-44,57T309,448q-41,0-73-20.5t-48.5-60T175,272q-4-50 13.5-88.5t52-59.5T320,103t76.5,19T446,173l106-52q-16-39-50-69T421.5,5T319-12ZM242,640L136,813H306l65-173H242Z"/>
      <glyph unicode="&#xe9;" glyph-name="gid73" horiz-adv-x="612" d="M319-12q-84,0-147,38T74,129T39,273q0,82 35.5,145.5t97,100.5T309,556q64,0 112.5-21T504,477t52-84.5T574,290q0-14-1.5-29T567,235H147V335H493l-62-47q9,46-4.5,82t-44,57T309,448q-41,0-73-20.5t-48.5-60T175,272q-4-50 13.5-88.5t52-59.5T320,103t76.5,19T446,173l106-52q-16-39-50-69T421.5,5T319-12ZM242,640l65,173H477L371,640H242Z"/>
      <glyph unicode="&#xea;" glyph-name="gid74" horiz-adv-x="612" d="M319-12q-84,0-147,38T74,129T39,273q0,82 35.5,145.5t97,100.5T309,556q64,0 112.5-21T504,477t52-84.5T574,290q0-14-1.5-29T567,235H147V335H493l-62-47q9,46-4.5,82t-44,57T309,448q-41,0-73-20.5t-48.5-60T175,272q-4-50 13.5-88.5t52-59.5T320,103t76.5,19T446,173l106-52q-16-39-50-69T421.5,5T319-12ZM112,640L229,805H384L502,640H372l-65,90l-65-90H112Z"/>
      <glyph unicode="&#xeb;" glyph-name="gid75" horiz-adv-x="612" d="M319-12q-84,0-147,38T74,129T39,273q0,82 35.5,145.5t97,100.5T309,556q64,0 112.5-21T504,477t52-84.5T574,290q0-14-1.5-29T567,235H147V335H493l-62-47q9,46-4.5,82t-44,57T309,448q-41,0-73-20.5t-48.5-60T175,272q-4-50 13.5-88.5t52-59.5T320,103t76.5,19T446,173l106-52q-16-39-50-69T421.5,5T319-12ZM130,640V778H267V640H130Zm217,0V778H485V640H347Z"/>
      <glyph unicode="&#xec;" glyph-name="gid86" horiz-adv-x="228" d="M49,0V544H180V0H49Zm1,640L-56,813H114l65-173H50Z"/>
      <glyph unicode="&#xed;" glyph-name="gid82" horiz-adv-x="228" d="M49,0V544H180V0H49Zm1,640l65,173H285L179,640H50Z"/>
      <glyph unicode="&#xee;" glyph-name="gid83" horiz-adv-x="228" d="M49,0V544H180V0H49ZM-80,640L37,805H192L310,640H180l-65,90L50,640H-80Z"/>
      <glyph unicode="&#xef;" glyph-name="gid84" horiz-adv-x="228" d="M49,0V544H180V0H49ZM-63,640V778H74V640H-63Zm217,0V778H292V640H154Z"/>
      <glyph unicode="&#xf0;" glyph-name="gid71" horiz-adv-x="652" d="M328-12Q269-12 216.5,8.5T124,66.5T61.5,156T39,269q0,79 37,141.5t100,99T319,546q36,0 66-8.5t57-26T494,467l-23-41q-2,47-16.5,87t-40,71.5t-60,52.5T280,669.5T197,681q-26,0-51.5-4T93,664L78,771q74,25 142,25q73,0 134.5-24.5t109.5-69T545.5,599t51-127.5T614,330q0-115-37.5-190.5T475,26T328-12Zm-1,120q44,0 77.5,21t53,57.5T477,268t-18.5,80.5t-52,56.5T327,426q-45,0-79.5-20.5T194,349t-19-81q0-47 20-83t54.5-56.5T327,108ZM222,563v60L562,754V694L222,563Z"/>
      <glyph unicode="&#xf1;" glyph-name="gid93" horiz-adv-x="593" d="M61,0V544H184V437l-10,19q19,49 62.5,74.5T338,556q60,0 106.5-26T517,457.5T543,350V0H412V319q0,36-14,62t-38.5,40.5T302,436q-32,0-57-14.5T206,381t-14-62V0H61ZM369,640q-27,0-45.5,8.5t-31.5,19t-26,19T236,695t-26-12.5T201,644H100q0,80 36,117.5T223,799q28,0 47-8t33-19t26.5-19t27.5-8q20,0 28,13.5t8,36.5H494q-1-76-37-115.5T369,640Z"/>
      <glyph unicode="&#xf2;" glyph-name="gid98" horiz-adv-x="652" d="M327-12q-80,0-145.5,37T77.5,126T39,272T77.5,418T181,519t146,37q80,0 145-37T575.5,418.5T614,272q0-82-39-146T471,25T327-12Zm0,120q44,0 77.5,21t53,58.5T477,272q0,48-19.5,84.5t-53,58T327,436q-45,0-79-21.5t-53.5-58T175,272q0-47 19.5-84.5T248,129t79-21ZM262,640L156,813H326l65-173H262Z"/>
      <glyph unicode="&#xf3;" glyph-name="gid95" horiz-adv-x="652" d="M327-12q-80,0-145.5,37T77.5,126T39,272T77.5,418T181,519t146,37q80,0 145-37T575.5,418.5T614,272q0-82-39-146T471,25T327-12Zm0,120q44,0 77.5,21t53,58.5T477,272q0,48-19.5,84.5t-53,58T327,436q-45,0-79-21.5t-53.5-58T175,272q0-47 19.5-84.5T248,129t79-21ZM262,640l65,173H497L391,640H262Z"/>
      <glyph unicode="&#xf4;" glyph-name="gid96" horiz-adv-x="652" d="M327-12q-80,0-145.5,37T77.5,126T39,272T77.5,418T181,519t146,37q80,0 145-37T575.5,418.5T614,272q0-82-39-146T471,25T327-12Zm0,120q44,0 77.5,21t53,58.5T477,272q0,48-19.5,84.5t-53,58T327,436q-45,0-79-21.5t-53.5-58T175,272q0-47 19.5-84.5T248,129t79-21ZM132,640L249,805H404L522,640H392l-65,90l-65-90H132Z"/>
      <glyph unicode="&#xf5;" glyph-name="gid100" horiz-adv-x="652" d="M327-12q-80,0-145.5,37T77.5,126T39,272T77.5,418T181,519t146,37q80,0 145-37T575.5,418.5T614,272q0-82-39-146T471,25T327-12Zm0,120q44,0 77.5,21t53,58.5T477,272q0,48-19.5,84.5t-53,58T327,436q-45,0-79-21.5t-53.5-58T175,272q0-47 19.5-84.5T248,129t79-21Zm72,532q-27,0-45.5,8.5t-31.5,19t-26,19T266,695t-26-12.5T231,644H130q0,80 36,117.5T253,799q28,0 47-8t33-19t26.5-19t27.5-8q20,0 28,13.5t8,36.5H524q-1-76-37-115.5T399,640Z"/>
      <glyph unicode="&#xf6;" glyph-name="gid97" horiz-adv-x="652" d="M327-12q-80,0-145.5,37T77.5,126T39,272T77.5,418T181,519t146,37q80,0 145-37T575.5,418.5T614,272q0-82-39-146T471,25T327-12Zm0,120q44,0 77.5,21t53,58.5T477,272q0,48-19.5,84.5t-53,58T327,436q-45,0-79-21.5t-53.5-58T175,272q0-47 19.5-84.5T248,129t79-21ZM150,640V778H287V640H150Zm217,0V778H505V640H367Z"/>
      <glyph unicode="&#xf7;" glyph-name="gid244" horiz-adv-x="660" d="M80,194V307H580V194H80ZM264,0V114H396V0H264Zm0,386V500H396V386H264Z"/>
      <glyph unicode="&#xf8;" glyph-name="gid99" horiz-adv-x="652" d="M17,0L486,544H636L167,0H17ZM327-12q-80,0-145.5,37T77.5,126T39,272T77.5,418T181,519t146,37q80,0 145-37T575.5,418.5T614,272q0-82-39-146T471,25T327-12Zm0,120q44,0 77.5,21t53,58.5T477,272q0,48-19.5,84.5t-53,58T327,436q-45,0-79-21.5t-53.5-58T175,272q0-47 19.5-84.5T248,129t79-21Z"/>
      <glyph unicode="&#xf9;" glyph-name="gid113" horiz-adv-x="593" d="M255-12q-63,0-109.5,28t-71,78T50,211V544H181V222q0-34 13.5-59.5t39-40T291,108t57,14.5T387,163t14,62V544H532V0H408V107l11-19q-19-50-62.5-75T255-12ZM233,640L127,813H297l65-173H233Z"/>
      <glyph unicode="&#xfa;" glyph-name="gid110" horiz-adv-x="593" d="M255-12q-63,0-109.5,28t-71,78T50,211V544H181V222q0-34 13.5-59.5t39-40T291,108t57,14.5T387,163t14,62V544H532V0H408V107l11-19q-19-50-62.5-75T255-12ZM232,640l65,173H467L361,640H232Z"/>
      <glyph unicode="&#xfb;" glyph-name="gid111" horiz-adv-x="593" d="M255-12q-63,0-109.5,28t-71,78T50,211V544H181V222q0-34 13.5-59.5t39-40T291,108t57,14.5T387,163t14,62V544H532V0H408V107l11-19q-19-50-62.5-75T255-12ZM102,640L219,805H374L492,640H362l-65,90l-65-90H102Z"/>
      <glyph unicode="&#xfc;" glyph-name="gid112" horiz-adv-x="593" d="M255-12q-63,0-109.5,28t-71,78T50,211V544H181V222q0-34 13.5-59.5t39-40T291,108t57,14.5T387,163t14,62V544H532V0H408V107l11-19q-19-50-62.5-75T255-12ZM120,640V778H257V640H120Zm217,0V778H475V640H337Z"/>
      <glyph unicode="&#xfd;" glyph-name="gid118" horiz-adv-x="586" d="M127-220q-22,0-43,3.5T46-204V-95q13-3 31.5-6t34.5-3q45,0 65.5,20.5T214-29l36,84L248-55L11,544H152L318,102H268L433,544H575L338-55q-21-52-51-89t-69.5-56.5T127-220ZM228,640l65,173H463L357,640H228Z"/>
      <glyph unicode="&#xfe;" glyph-name="gid103" horiz-adv-x="672" d="M61-200V745H184V436l-12,27q28,44 76,68.5T359,556q77,0 139-38t98.5-102T633,272q0-79-36-144T499,25.5T358-12q-59,0-108.5,23.5T171,79l21,26V-200H61ZM343,108q45,0 80,21t54.5,58T497,272t-19.5,84.5t-54.5,58T343,436q-43,0-77.5-21t-54-58.5T192,272q0-48 19.5-85t54-58T343,108Z"/>
      <glyph unicode="&#xff;" glyph-name="gid119" horiz-adv-x="586" d="M127-220q-22,0-43,3.5T46-204V-95q13-3 31.5-6t34.5-3q45,0 65.5,20.5T214-29l36,84L248-55L11,544H152L318,102H268L433,544H575L338-55q-21-52-51-89t-69.5-56.5T127-220ZM116,640V778H253V640H116Zm217,0V778H471V640H333Z"/>
      <glyph unicode="&#x2013;" glyph-name="gid201" horiz-adv-x="655" d="M88,214V329H568V214H88Z"/>
      <glyph unicode="&#x2014;" glyph-name="gid202" horiz-adv-x="985" d="M88,214V329H898V214H88Z"/>
      <glyph unicode="&#x2018;" glyph-name="gid214" horiz-adv-x="357" d="M103,471v86q0,81 38.5,132.5T255,757V692q-34-8-54-29.5T175,611h60V471H103Z"/>
      <glyph unicode="&#x2019;" glyph-name="gid215" horiz-adv-x="357" d="M103,459v65q33,8 53.5,29.5T182,605H123V745H255V659q0-81-38.5-132.5T103,459Z"/>
      <glyph unicode="&#x201a;" glyph-name="gid210" horiz-adv-x="357" d="M103-146v65q33,8 53.5,29.5T182,0H123V140H255V54q0-81-38.5-132.5T103-146Z"/>
      <glyph unicode="&#x201c;" glyph-name="gid212" horiz-adv-x="560" d="M305,471v86q0,81 38.5,132.5T458,757V692q-34-8-54-29.5T378,611h60V471H305Zm-202,0v86q0,81 38.5,132.5T255,757V692q-34-8-54-29.5T175,611h60V471H103Z"/>
      <glyph unicode="&#x201d;" glyph-name="gid213" horiz-adv-x="560" d="M305,459v65q34,8 54,29.5T385,605H325V745H458V659q0-81-38.5-132.5T305,459Zm-202,0v65q33,8 53.5,29.5T182,605H123V745H255V659q0-81-38.5-132.5T103,459Z"/>
      <glyph unicode="&#x201e;" glyph-name="gid211" horiz-adv-x="560" d="M103-146v65q33,8 53.5,29.5T182,0H123V140H255V54q0-81-38.5-132.5T103-146Zm202,0v65q34,8 54,29.5T385,0H325V140H458V54q0-81-38.5-132.5T305-146Z"/>
      <glyph unicode="&#x2022;" glyph-name="gid195" horiz-adv-x="658" d="M332,62q-59,0-106.5,27t-75,75T123,272q0,57 27,102.5T224,447t108,27q58,0 103-27t72-73t28-102q0-60-27-108T435.5,89T332,62Z"/>
      <glyph unicode="&#x2039;" glyph-name="gid218" horiz-adv-x="389" d="M198,72L45,269L198,467H343L191,269L343,72H198Z"/>
      <glyph unicode="&#x203a;" glyph-name="gid219" horiz-adv-x="389" d="M46,72L198,269L46,467H190L344,269L190,72H46Z"/>
    </font>
</defs>
</svg>
