<?xml version="1.0" standalone="no"?>
<!DOCTYPE svg PUBLIC "-//W3C//DTD SVG 1.1//EN" "http://www.w3.org/Graphics/SVG/1.1/DTD/svg11.dtd">
<svg xmlns="http://www.w3.org/2000/svg">
  <defs>
    <font id="PlusJakartaSans" horiz-adv-x="542">
      <font-face font-family="Plus Jakarta Sans Light" units-per-em="1000" panose-1="0 0 0 0 0 0 0 0 0 0" ascent="1038" descent="-222" alphabetic="0"/>
      <glyph unicode=" " glyph-name="gid178" horiz-adv-x="165"/>
      <glyph unicode="!" glyph-name="gid189" horiz-adv-x="269" d="M106,211l-4,534h65l-4-534H106ZM101,0V100h68V0H101Z"/>
      <glyph unicode="&quot;" glyph-name="gid220" horiz-adv-x="371" d="M94,544L83,745h67L139,544H94Zm138,0L220,745h68L277,544H232Z"/>
      <glyph unicode="#" glyph-name="gid197" horiz-adv-x="766" d="M99,0l59,204H38v58H174l64,222H118v58H255l58,203h66L321,542H543l59,203h66L609,542H729V484H593L528,262H648V204H512L453,0H387l59,204H224L165,0H99ZM240,262H462l65,222H304L240,262Z"/>
      <glyph unicode="$" glyph-name="gid236" horiz-adv-x="643" d="M336-12q-71,0-127.5,27t-94,71T61,181l58,21q28-76 83.5-116T335,46q51,0 89.5,17T485,111t22,73q0,58-32.5,90T390,320L254,360q-83,24-122.5,77.5T92,559q0,59 28.5,103.5T198,732t111,25q65,0 116.5-24.5t87-64T563,581l-57-21q-25,69-77,104.5T310,700q-44,0-79-17t-55-48t-20-73q0-51 29-87t97-57l122-36q80-24 123.5-73.5T571,187q0-59-30-103.5t-83.5-70T336-12Zm-35-88V845h58V-100H301Z"/>
      <glyph unicode="%" glyph-name="gid253" horiz-adv-x="951" d="M131,0L744,745h79L210,0H131ZM242,376q-52,0-95,26T78,471T52,567q0,52 26,95.5t69,69T242,757t95-25.5t68.5-69T431,567q0-53-25.5-96T337,402t-95-26Zm0,58q38,0 66.5,19T354,503t17,63q0,35-17,65t-45.5,49.5T242,700q-37,0-66.5-19T129,631.5T112,567t17-64.5T175.5,453T242,434ZM710-12q-52,0-95,26T546,83t-26,96q0,52 26,95.5t69,69T710,369t95-25.5T873.5,275T899,179T873.5,83T805,14T710-12Zm0,58q38,0 66.5,19T822,115t17,63q0,35-17,65t-45.5,49.5T710,312q-37,0-66.5-19T597,243.5T580,179t17-64.5T643.5,65T710,46Z"/>
      <glyph unicode="&amp;" glyph-name="gid223" horiz-adv-x="728" d="M257-12q-57,0-102.5,22.5t-72,63T56,168q0,45 16.5,79.5T114,310t54,50t55,40l40,27q34,23 62.5,47T372,526.5T390,590q0,46-30.5,76T285,696q-46,0-75.5-30.5T180,589q0-32 14.5-61T231,474t44-48L690,0H602L225,382q-23,24-48.5,54.5t-43.5,68T115,587q0,50 22.5,88t61,60T285,757q46,0 84.5-21.5t61.5-59T454,590q0-51-23.5-89.5t-58-67.5T305,381l-39-26q-36-26-68.5-52.5t-53-58.5T124,169q0-56 37.5-88T258,49q41,0 71.5,14t54,36.5t42.5,49T461,200L576,371h75L518,169q-16-25-39-56T425.5,53.5t-72-47T257-12Z"/>
      <glyph unicode="&apos;" glyph-name="gid221" horiz-adv-x="233" d="M94,544L83,745h67L139,544H94Z"/>
      <glyph unicode="(" glyph-name="gid204" horiz-adv-x="282" d="M204-135Q128-46 88.5,68T49,306q0,128 40,240T204,745h58q-72-97-110-210T114,306q0-114 38-227.5T262-135H204Z"/>
      <glyph unicode=")" glyph-name="gid205" horiz-adv-x="282" d="M20-135Q92-35 130,78.5T168,306q0,116-38,229T20,745H78q76-87 115.5-199T233,306q0-124-39-238T78-135H20Z"/>
      <glyph unicode="*" glyph-name="gid196" horiz-adv-x="469" d="M143,391L94,426l90,120L53,590l18,58l133-44V745h61V604l132,44l19-58L285,546l90-120l-49-35L234,510L143,391Z"/>
      <glyph unicode="+" glyph-name="gid241" horiz-adv-x="601" d="M271,0V221H51v60H271V500h60V281H551V221H331V0H271Z"/>
      <glyph unicode="," glyph-name="gid185" horiz-adv-x="259" d="M81-126v34q25,8 37.5,30T131,0H101V100h67V23q0-63-22.5-100.5T81-126Z"/>
      <glyph unicode="-" glyph-name="gid200" horiz-adv-x="483" d="M74,237v58H409V237H74Z"/>
      <glyph unicode="." glyph-name="gid184" horiz-adv-x="274" d="M103,0V100h68V0H103Z"/>
      <glyph unicode="/" glyph-name="gid198" horiz-adv-x="413" d="M2-120L340,705h71L73-120H2Z"/>
      <glyph unicode="0" glyph-name="gid128" horiz-adv-x="723" d="M363-12q-87,0-152.5,48.5T108.5,172T72,373q0,115 36.5,201.5T210,709t152,48q86,0 151-48T614.5,574.5T651,373T615,171.5T514,36.5T363-12Zm0,62q69,0 119,41t77.5,113.5T587,373q0,97-27.5,169.5T482,655.5T362,696q-69,0-119.5-40.5T164.5,542T137,373q0-95 27.5-168T243,91T363,50Z"/>
      <glyph unicode="1" glyph-name="gid129" horiz-adv-x="355" d="M180,0V688H40v57H245V0H180Z"/>
      <glyph unicode="2" glyph-name="gid130" horiz-adv-x="589" d="M57,0V40L266,270q62,68 102.5,113.5t61,84.5T450,553q0,70-41.5,108.5T294,700q-71,0-119-41T110,545L51,558q14,63 48,107.5t84,68T294,757q64,0 113.5-25.5T486,660t29-107q0-45-19.5-87t-56-88T348,273L152,58H531V0H57Z"/>
      <glyph unicode="3" glyph-name="gid131" horiz-adv-x="604" d="M294-12q-60,0-110,22T98.5,73T47,171l55,21q20-67 69.5-106.5T293,46q55,0 97,21.5t65,62T478,224q0,57-24.5,95.5t-66,58T294,397q-11,0-25-1t-25-3l-11,27L438,688H78v57H515V695L315,435l-5,13q64,1 116.5-27t84-78.5T542,224q0-66-31-119.5t-87-85T294-12Z"/>
      <glyph unicode="4" glyph-name="gid132" horiz-adv-x="618" d="M429,0V176H45v53L431,745h58V231h86V176H489V0H429ZM98,208l-8,23H429V686l24-6L98,208Z"/>
      <glyph unicode="5" glyph-name="gid133" horiz-adv-x="612" d="M303-12q-60,0-111,22.5T105.5,74T54,171l54,21q20-69 72.5-107.5T303,46q54,0 94.5,24T461,136.5T484,232t-24,94.5t-64.5,65T304,415q-53,0-97-24.5T143,333L90,344l55,401H519V688H168l27,18L151,386l-21,10q30,40 77.5,59.5T307,475q70,0 124.5-32.5t86-87.5T549,232q0-70-31.5-125t-87-87T303-12Z"/>
      <glyph unicode="6" glyph-name="gid134" horiz-adv-x="592" d="M297-12q-68,0-121.5,31.5T91,106.5T60,234q0,44 11,84t32.5,79T155,476L358,745h78L165,386l-16-4q19,31 44.5,47.5T248,453t57,7q65,0 117-30t82.5-82.5T535,225q0-68-31.5-121.5T418.5,19T297-12Zm1,58q49,0 88,23t61.5,63T470,223q0,52-22.5,92.5t-61,63.5T298,402q-49,0-88.5-23T148,315.5T126,223q0-51 22.5-91.5t61.5-63T298,46Z"/>
      <glyph unicode="7" glyph-name="gid135" horiz-adv-x="533" d="M77,0L419,688H42v57H490V690L146,0H77Z"/>
      <glyph unicode="8" glyph-name="gid136" horiz-adv-x="617" d="M309-12q-71,0-126,29.5t-87,81T64,215q0,72 41,128.5T215,422l2-18q-53,23-82.5,67T105,568q0,54 27,96.5T205,732t104,25t103.5-24t72-67T511,568t-28.5-97T402,404v18q69-21 110.5-78T554,215q0-65-32-116.5t-87.5-81T309-12Zm0,58q54,0 94,20.5T466,125t23,89q0,50-23,88t-63,59t-94,21t-94.5-21t-63-59T129,214q0-51 22.5-88.5t63-58.5T309,46Zm0,394q39,0 70,17t49,46t18,67q0,39-18,67.5T379,683t-70,17t-70.5-17t-50-45.5T170,570q0-38 18.5-67T238,457t71-17Z"/>
      <glyph unicode="9" glyph-name="gid137" horiz-adv-x="592" d="M157,0L427,359l16,5q-18-30-43.5-47.5t-54-24.5T287,285q-64,0-116,30T88,398T57,521q0,69 31.5,122T174,726.5T295,757q69,0 122.5-31.5t84-87T532,512q0-44-10.5-84t-32-79T437,269L234,0H157ZM295,344q50,0 88.5,23t61,63.5T467,522q0,52-23,92t-61.5,63T295,700q-50,0-88.5-23t-61-63T123,522q0-51 22-91.5T206,367t89-23Z"/>
      <glyph unicode=":" glyph-name="gid186" horiz-adv-x="274" d="M103,0V100h68V0H103Zm0,431V531h68V431H103Z"/>
      <glyph unicode=";" glyph-name="gid187" horiz-adv-x="294" d="M103-126v29q26,8 40.5,32.5T159,0H123V100h68V23q0-63-22.5-100.5T103-126Zm20,557V531h68V431H123Z"/>
      <glyph unicode="&lt;" glyph-name="gid247" horiz-adv-x="601" d="M534,45L136,240v52L534,487V421L185,253v26L534,110V45Z"/>
      <glyph unicode="=" glyph-name="gid245" horiz-adv-x="601" d="M76,339v60H526V339H76Zm0-235v60H526V104H76Z"/>
      <glyph unicode="&gt;" glyph-name="gid246" horiz-adv-x="601" d="M68,45v65L416,279V253L68,421v66L465,292V240L68,45Z"/>
      <glyph unicode="?" glyph-name="gid191" horiz-adv-x="487" d="M164,211v7q0,46 16,80.5T222,362t54,55q39,37 70.5,76.5T378,585q0,30-15,56t-44,42.5T249,700q-60,0-101.5-36.5T93,563L35,575q10,56 39.5,96.5t74.5,63T249,757q56,0 100-24t69-63t25-86q0-46-20-82t-50-66.5T313,375q-34-35-60.5-71.5T226,218v-7H164ZM163,0V100h68V0H163Z"/>
      <glyph unicode="@" glyph-name="gid222" horiz-adv-x="928" d="M483-206q-87,0-162,31.5t-131,88T103,45T72,207q0,86 31.5,160.5T191,498t131,87t161,31q91,0 166-33t129.5-90.5t84-130T892,211q0-65-20-112T817,26T735,0q-31,0-58.5,12.5T630.5,48T606,101l16-6q-16-32-39.5-53t-53-31.5T465,0Q408,0 362,28t-73,76T262,212t27,108t73,76.5T465,425q49,0 91.5-22T621,338l-11-13v90h57V135q0-37 18-57t52-20q42,0 67.5,38.5T830,210q0,74-25.5,137.5t-72,111t-110,74T483,559T342.5,532t-111-74.5T159,346.5T133,210q0-75 25.5-139.5T231-43.5t111.5-77T486-148q46,0 88,10t77,30l26-50q-84-48-194-48ZM466,58q41,0 72,20t49,55t18,80q0,68-39,110.5T466,366q-40,0-72.5-19.5t-51-54T324,212q0-44 18.5-79T393,78t73-20Z"/>
      <glyph unicode="A" glyph-name="gid1" horiz-adv-x="648" d="M17,0L291,745h67L632,0H562L494,190H155L86,0H17ZM176,250H472L312,695h24L176,250Z"/>
      <glyph unicode="B" glyph-name="gid10" horiz-adv-x="694" d="M94,0V745H401q61,0 106.5-24t71-66T604,558q0-58-30-103t-84-65v17q44-14 76.5-42.5t50-67.5T634,213q0-97-61.5-155T401,0H94Zm65,60H397q79,0 125.5,41T569,212q0,69-45.5,110.5T402,364H159V60Zm0,363H395q65,0 104.5,37T539,557t-38.5,94T395,685H159V423Z"/>
      <glyph unicode="C" glyph-name="gid11" horiz-adv-x="785" d="M429-12q-77,0-142,28.5T173.5,97t-75,122T72,373q0,83 26.5,153.5t75,122t113.5,80T429,757q75,0 135-27t101-69t59-87l-61-27q-30,67-90.5,108T429,696q-85,0-151.5-41T174,541.5T137,373t37-169T277.5,90.5T429,50q83,0 143.5,40.5T663,198l61-27q-18-44-59-86T564,15.5T429-12Z"/>
      <glyph unicode="D" glyph-name="gid13" horiz-adv-x="743" d="M94,0V745H335q110,0 190.5-45.5T650,570.5T694,373q0-113-44-197T525.5,46T335,0H94Zm65,60H334q89,0 154.5,39t102,109.5T627,373q0,95-36.5,165T488,646.5T334,685H159V60Z"/>
      <glyph unicode="E" glyph-name="gid15" horiz-adv-x="613" d="M94,0V745H564V685H159V404H544V344H159V60H564V0H94Z"/>
      <glyph unicode="F" glyph-name="gid20" horiz-adv-x="587" d="M94,0V745H549V685H159V404H514V344H159V0H94Z"/>
      <glyph unicode="G" glyph-name="gid21" horiz-adv-x="828" d="M431-12q-79,0-144.5,28.5T173,96.5T98.5,218T72,372T98.5,526t75,122t114,80.5T431,757q77,0 137.5-27t102-69T730,574l-60-28q-30,69-91.5,109.5T431,696q-85,0-152-41T174.5,541.5T137,372q0-96 37.5-169t104-113T431,50q77,0 138.5,34.5t97,94T702,315v35l29-31H431v58H767V321q0-70-25.5-130.5T671,84.5t-106.5-71T431-12Z"/>
      <glyph unicode="H" glyph-name="gid22" horiz-adv-x="737" d="M94,0V745h65V406H579V745h65V0H579V346H159V0H94Z"/>
      <glyph unicode="I" glyph-name="gid23" horiz-adv-x="252" d="M94,0V745h65V0H94Z"/>
      <glyph unicode="J" glyph-name="gid28" horiz-adv-x="382" d="M61,0V65h39q57,0 90.5,35T224,200V745h65V198q0-61-23.5-105.5T199.5,24T100,0H61Z"/>
      <glyph unicode="K" glyph-name="gid29" horiz-adv-x="653" d="M94,0V745h65V298l-19,9L532,745h84L314,406l3,46L636,0H557L288,379L159,233V0H94Z"/>
      <glyph unicode="L" glyph-name="gid30" horiz-adv-x="532" d="M94,0V745h65V60H494V0H94Z"/>
      <glyph unicode="M" glyph-name="gid31" horiz-adv-x="827" d="M94,0V745h55L427,331H400L679,745h55V0H669V650l16-9L415,238h-3L142,641l17,9V0H94Z"/>
      <glyph unicode="N" glyph-name="gid32" horiz-adv-x="737" d="M94,0V745h55L600,98H579V745h65V0H589L136,651h23V0H94Z"/>
      <glyph unicode="O" glyph-name="gid34" horiz-adv-x="881" d="M441-12q-77,0-144,28.5t-117.5,80t-79,122T72,373q0,85 28.5,155T180,649.5T297.5,729T441,757q76,0 143-28t117.5-79.5t79.5-122T810,373T781,218.5t-79.5-122T584,16.5T441-12Zm0,62q67,0 123,25t96.5,70T723,248.5T745,373q0,65-22,123.5T660.5,600t-96,70.5T441,696T317.5,670.5t-96-70.5T159,496.5T137,373q0-66 22-124.5T221.5,145T318,75T441,50Z"/>
      <glyph unicode="P" glyph-name="gid42" horiz-adv-x="644" d="M94,0V745H344q71,0 125-28t84.5-79T584,520T553.5,402.5t-84-79T344,295H159V0H94Zm65,355H346q51,0 90,20.5t61,58T519,521t-22,86.5t-61,57T346,685H159V355Z"/>
      <glyph unicode="Q" glyph-name="gid44" horiz-adv-x="881" d="M441-12q-77,0-144,28.5t-117.5,80t-79,122T72,373q0,85 28.5,155T180,649.5T297.5,729T441,757q76,0 143-28t117.5-79.5t79.5-122T810,373T781,218.5t-79.5-122T584,16.5T441-12Zm0,62q67,0 123,25t96.5,70T723,248.5T745,373q0,65-22,123.5T660.5,600t-96,70.5T441,696T317.5,670.5t-96-70.5T159,496.5T137,373q0-66 22-124.5T221.5,145T318,75T441,50ZM664-90L407,298h75L739-90H664Z"/>
      <glyph unicode="R" glyph-name="gid45" horiz-adv-x="638" d="M94,0V745H344q71,0 125-28t84.5-79T584,520q0-80-43.5-136.5T424,306L600,0H523L338,326l54-31H159V0H94Zm65,355H346q51,0 90,20.5t61,58T519,521t-22,86.5t-61,57T346,685H159V355Z"/>
      <glyph unicode="S" glyph-name="gid46" horiz-adv-x="643" d="M336-12q-71,0-127.5,27t-94,71T61,181l58,21q28-76 83.5-116T335,46q51,0 89.5,17T485,111t22,73q0,58-32.5,90T390,320L254,360q-83,24-122.5,77.5T92,559q0,59 28.5,103.5T198,732t111,25q65,0 116.5-24.5t87-64T563,581l-57-21q-25,69-77,104.5T310,700q-44,0-79-17t-55-48t-20-73q0-51 29-87t97-57l122-36q80-24 123.5-73.5T571,187q0-59-30-103.5t-83.5-70T336-12Z"/>
      <glyph unicode="T" glyph-name="gid47" horiz-adv-x="513" d="M225,0V685H17v60H497V685H290V0H225Z"/>
      <glyph unicode="U" glyph-name="gid48" horiz-adv-x="695" d="M348-12q-77,0-135,33t-90.5,91.5T90,247V745h65V245q0-58 24.5-102.5t68-69.5T348,48T448.5,73T516,142.5T540,245V745h65V247q0-76-32-134.5T483,21T348-12Z"/>
      <glyph unicode="V" glyph-name="gid53" horiz-adv-x="653" d="M294,0L17,745H86L336,59H318L567,745h70L360,0H294Z"/>
      <glyph unicode="W" glyph-name="gid54" horiz-adv-x="986" d="M235,0L17,745H84L280,61l-22,1L460,745h67L728,62l-22-1L902,745h68L751,0H685L482,688h23L302,0H235Z"/>
      <glyph unicode="X" glyph-name="gid55" horiz-adv-x="593" d="M17,0L258,381L26,745h76L305,424H288L491,745h75L334,381L577,0H501L288,338h17L92,0H17Z"/>
      <glyph unicode="Y" glyph-name="gid56" horiz-adv-x="624" d="M280,0V340L17,745H90L327,384H298L534,745h73L345,340V0H280Z"/>
      <glyph unicode="Z" glyph-name="gid58" horiz-adv-x="595" d="M28,0V42L472,685H54v60H558V703L115,60H568V0H28Z"/>
      <glyph unicode="[" glyph-name="gid208" horiz-adv-x="298" d="M88-135V745H273V688H153V-77H273v-58H88Z"/>
      <glyph unicode="\" glyph-name="gid199" horiz-adv-x="413" d="M340-120L2,705H73L411-120H340Z"/>
      <glyph unicode="]" glyph-name="gid209" horiz-adv-x="298" d="M25-135v58H145V688H25v57H210V-135H25Z"/>
      <glyph unicode="^" glyph-name="gid251" horiz-adv-x="601" d="M106,427L274,745h53L495,427H426L285,699h33L175,427H106Z"/>
      <glyph unicode="_" glyph-name="gid203" horiz-adv-x="573" d="M74-57V0H499V-57H74Z"/>
      <glyph unicode="`" glyph-name="gid278" horiz-adv-x="341" d="M214,640L103,790h82l90-150H214Z"/>
      <glyph unicode="a" glyph-name="gid59" horiz-adv-x="573" d="M235-12q-50,0-89,19T84,60T61,138q0,39 17,73t55,58.5T232,304l215,36V284L248,251q-68-11-96-41t-28-70q0-43 32.5-70T239,43q58,0 101,26.5t67,70T431,235V367q0,53-38,86t-99,33q-50,0-90-25t-61-65L89,425q15,32 46,59t72,43t87,16q58,0 102.5-22.5t69.5-62T491,367V0H431V111l7-5q-13-32-43-58.5t-70.5-43T235-12Z"/>
      <glyph unicode="b" glyph-name="gid67" horiz-adv-x="671" d="M349-12q-73,0-130.5,35.5T133,121l10,14V0H83V757h60V397l-10,19q30,58 86.5,92.5T349,543q75,0 134-36t93-99t34-142T576,124T483,24.5T349-12Zm-2,60q57,0 102,28.5t71,78T546,266T520,377t-71,77.5T347,483T244,454.5T171,377T144,266t27-111.5t73-78T347,48Z"/>
      <glyph unicode="c" glyph-name="gid68" horiz-adv-x="604" d="M325-12q-76,0-135.5,36.5T95.5,124T61,266q0,80 34.5,142.5t94,98.5T325,543q50,0 92.5-17T493,480t50-67l-53-28q-24,46-67,73t-98,27q-57,0-102.5-28T150,379.5T123,266t27-113.5T222.5,75T325,47q55,0 98,27t67,74l53-29q-17-37-50-66.5t-75.5-47T325-12Z"/>
      <glyph unicode="d" glyph-name="gid70" horiz-adv-x="671" d="M322-12q-74,0-133.5,36.5T95,124T61,266T95,408t93.5,99T322,543q73,0 130-34.5T538,416l-10-19V757h60V0H528V135l10-14q-28-62-85.5-97.5T322-12Zm2,60q58,0 103.5,28.5t72.5,78T527,266T500,377t-72.5,77.5T324,483q-57,0-102-28.5T151,377T125,266t26-111.5t71-78T324,48Z"/>
      <glyph unicode="e" glyph-name="gid72" horiz-adv-x="621" d="M326-12q-75,0-135,36.5t-95,100T61,267T95,408.5T187,507t130,36q55,0 99.5-20t77-55.5t50-81T561,291q0-10-1-21t-3-23H96v55H523l-27-21q6,58-17,104.5t-65.5,74T317,487t-99-28.5t-71-78T123,266q-2-65 25-115t74-78.5T326,44q58,0 101,27.5T497,145l51-27q-18-37-51-66.5T420.5,5T326-12Z"/>
      <glyph unicode="f" glyph-name="gid77" horiz-adv-x="390" d="M138,0V474H30v57H138v51q0,56 22.5,95T222,736.5T308,757q11,0 22.5-1.5T350,752V698q-8,2-19,2.5T314,701q-52,0-84-29.5T198,582V531H330V474H198V0H138Z"/>
      <glyph unicode="g" glyph-name="gid78" horiz-adv-x="663" d="M331-220q-53,0-98,17t-78,46T103-91l54,29q22-43 66.5-71T330-161q50,0 93,19.5t70.5,60T521,20V155l11-14q-28-62-85-97.5T320,8Q246,8 187,44T94.5,141T61,276T94.5,410.5t92,96.5T320,543q70,0 126-34.5T532,416l-11-19V531h60V20q0-69-32-123.5T460.5-189T331-220ZM322,68q56,0 100.5,28T493,171.5T519,276T493,380t-70.5,75T322,483q-57,0-102-28t-70-75T125,276t25-104.5T219.5,96T322,68Z"/>
      <glyph unicode="h" glyph-name="gid79" horiz-adv-x="572" d="M83,0V757h60V424l-15,4q18,53 64.5,84T301,543q55,0 100-25t72-69.5T500,347V0H440V330q0,48-19.5,82.5t-53,53T292,484q-45,0-78.5-21t-52-58T143,320V0H83Z"/>
      <glyph unicode="i" glyph-name="gid80" horiz-adv-x="225" d="M83,0V531h60V0H83Zm0,635V745h60V635H83Z"/>
      <glyph unicode="j" glyph-name="gid87" horiz-adv-x="225" d="M-20-220q-10,0-21,1.5T-60-215v55q19-3 39-3q47,0 75.5,27T83-56V531h60V-56q0-53-21.5-89.5T63.5-201T-20-220ZM83,635V745h60V635H83Z"/>
      <glyph unicode="k" glyph-name="gid89" horiz-adv-x="544" d="M83,0V757h60V216l-31,3L426,531h82L294,317L528,0H453L231,298l40-1L127,149l16,41V0H83Z"/>
      <glyph unicode="l" glyph-name="gid90" horiz-adv-x="225" d="M83,0V757h60V0H83Z"/>
      <glyph unicode="m" glyph-name="gid91" horiz-adv-x="909" d="M83,0V531h60V424l-11,15q20,48 64.5,76T296,543q62,0 113-35.5T480,413l-19-1q17,61 67.5,96T641,543q53,0 97.5-25t72-69.5T838,347V0H778V330q0,48-19.5,82.5t-51.5,53T635,484q-43,0-75.5-21t-51-58T490,320V0H430V330q0,48-19,82.5t-51.5,53T287,484q-43,0-75.5-21T161,405t-18-85V0H83Z"/>
      <glyph unicode="n" glyph-name="gid92" horiz-adv-x="572" d="M83,0V531h60V424l-15,4q18,53 64.5,84T301,543q55,0 100-25t72-69.5T500,347V0H440V330q0,48-19,82.5t-52.5,53T292,484q-45,0-79-21t-52-58t-18-85V0H83Z"/>
      <glyph unicode="o" glyph-name="gid94" horiz-adv-x="659" d="M330-12q-76,0-137,36T96.5,123.5T61,266T96.5,408t96,99T330,543q76,0 137-36t96-98.5T598,266T562,123T465.5,24T330-12Zm0,59q57,0 103.5,28.5T507,154t27,112T507,377t-73,78T330,484T225.5,455.5t-73.5-78T125,266t27.5-112T226,75.5T330,47Z"/>
      <glyph unicode="p" glyph-name="gid102" horiz-adv-x="671" d="M83-200V531h60V397l-10,19q30,58 86.5,92.5T349,543q75,0 134-36t93-99t34-143q0-78-34-141T483,24.5T349-12q-73,0-130.5,35.5T133,121l10,14V-200H83ZM347,48q57,0 102,28.5t71,78T546,266T520,377t-71,77.5T347,483T244,454.5T171,377T144,266t27-111.5t72.5-78T347,48Z"/>
      <glyph unicode="q" glyph-name="gid104" horiz-adv-x="671" d="M528-200V135l10-14q-28-62-85.5-97.5T322-12q-74,0-133.5,36.5T95,124T61,266T95,408t93.5,99T322,543q73,0 130-34.5T538,416l-10-19V531h60V-200H528ZM324,48q58,0 103.5,28.5t72.5,78T527,266T500,377t-72.5,77.5T324,483q-57,0-102-28.5T151,377T125,266t26-111.5t71-78T324,48Z"/>
      <glyph unicode="r" glyph-name="gid105" horiz-adv-x="339" d="M83,0V531h60V432l-11,9q17,45 58.5,71T289,538h34V478H282q-65,0-102-41.5T143,325V0H83Z"/>
      <glyph unicode="s" glyph-name="gid106" horiz-adv-x="508" d="M262-12q-74,0-130,37T50,126l52,24q25-49 67-77.5T262,44q52,0 87.5,25.5T385,137q0,26-13.5,44T337,210.5T292,228l-82,23q-69,19-101.5,56T76,394q0,45 23,78.5t62,52T247,543q66,0 120-34t76-92l-54-25q-21,45-59,70.5T246,488q-48,0-78-25.5T138,398q0-25 12-41.5t31.5-27T222,313l89-26q65-18 100.5-57T447,138q0-43-24-77T357,7.5T262-12Z"/>
      <glyph unicode="t" glyph-name="gid108" horiz-adv-x="384" d="M276-6Q210-6 174,31.5T138,141V474H38v57H76q30,0 46,18t16,49v57h60V531H314V474H198V141q0-22 6.5-43T230,64t55-13q8,0 19.5,1T323,54V0q-11-3-25-4.5T276-6Z"/>
      <glyph unicode="u" glyph-name="gid109" horiz-adv-x="572" d="M271-12q-54,0-99.5,25T99,83.5T72,192V531h60V197q0-47 19.5-80.5t53-51.5T280,47q46,0 79.5,21T411,126.5T429,212V531h60V0H429V108l15-5q-18-52-64-83.5T271-12Z"/>
      <glyph unicode="v" glyph-name="gid114" horiz-adv-x="518" d="M227,0L17,531H84L270,53H247L433,531h69L289,0H227Z"/>
      <glyph unicode="w" glyph-name="gid115" horiz-adv-x="783" d="M199,0L17,531H84L243,50H217L361,531h61L566,50H540L700,531h67L584,0H523L384,464h15L260,0H199Z"/>
      <glyph unicode="x" glyph-name="gid116" horiz-adv-x="481" d="M17,0L204,266L18,531H93L264,286H219L389,531h75L278,266L464,0H389L219,246h45L92,0H17Z"/>
      <glyph unicode="y" glyph-name="gid117" horiz-adv-x="533" d="M85-220q-14,0-30.5,2.5T23-210v56q12-3 27.5-5T79-161q49,1 77,24t51,76l38,89V-28L20,531H86L279,49H255L449,531h67L268-74q-14-33-37-67t-58.5-56.5T85-220Z"/>
      <glyph unicode="z" glyph-name="gid120" horiz-adv-x="442" d="M28,0V48L358,503l14-29H46v57H418V484L88,28L73,58H420V0H28Z"/>
      <glyph unicode="{" glyph-name="gid206" horiz-adv-x="304" d="M248-135q-59,0-96.5,37.5T114,1V200q0,34-16,55T47,276H19v58H47q35,0 51,21.5T114,411V609q0,61 37.5,98.5T248,745h31V688H248q-32,0-50.5-22T179,610V413q1-31-9-58t-35-50q24-20 34.5-49t9.5-58V0q0-33 18.5-55T248-77h31v-58H248Z"/>
      <glyph unicode="|" glyph-name="gid232" horiz-adv-x="285" d="M110-190V845h65V-190H110Z"/>
      <glyph unicode="}" glyph-name="gid207" horiz-adv-x="304" d="M25-135v58H56q33,0 51.5,22T125,0V198q0,29 10.5,58T169,305q-24,23-34.5,50T125,413V610q1,34-17.5,56T56,688H25v57H56q60,0 97-37.5T190,609V411q0-34 16.5-55.5T258,334h27V276H258q-35,0-51.5-21T190,200V1q0-61-37-98.5T56-135H25Z"/>
      <glyph unicode="~" glyph-name="gid249" horiz-adv-x="601" d="M397,212q-33,0-56.5,11.5t-43,26.5t-40,26.5T211,288q-28,0-47.5-16.5T139,216H84q4,65 39,97t85,32q33,0 56.5-11.5t43-26.5t40-26.5T394,269q27,0 45,16t24,56h55q-4-64-37.5-96.5T397,212Z"/>
      <glyph unicode="&#xa0;" glyph-name="gid179" horiz-adv-x="165"/>
      <glyph unicode="&#xa1;" glyph-name="gid190" horiz-adv-x="269" d="M102-214l4,534h57l4-534H102Zm-1,645V531h68V431H101Z"/>
      <glyph unicode="&#xa2;" glyph-name="gid234" horiz-adv-x="604" d="M325,96q-76,0-135.5,36.5T95.5,232T61,374T95.5,515.5t94,99T325,651q50,0 92.5-17T493,587.5T543,520l-53-28q-24,47-67,73.5T325,592q-57,0-102.5-27.5t-72.5-77T123,373q0-64 27-113.5T222.5,182T325,154q55,0 98,27t67,74l53-28q-17-37-50-67t-75.5-47T325,96ZM292,0V745h58V0H292Z"/>
      <glyph unicode="&#xa3;" glyph-name="gid238" horiz-adv-x="646" d="M47,0V58H147V537q0,66 28,115.5t79,77T371,757q60,0 108.5-22.5t80-65.5T599,565l-59-13q-9,71-54,109.5T371,700q-73,0-116-43.5T212,537V58H556V0H47Zm0,351v55H397V351H47Z"/>
      <glyph unicode="&#xa4;" glyph-name="gid235" horiz-adv-x="586" d="M101,37L61,77l75,75q-19,26-29.5,56T96,269t10.5,61T136,387L61,462l40,40l75-75q25,18 55.5,29T293,467t61.5-10.5T411,427l75,75l40-40l-75-75q19-27 29-56.5T490,269t-10-61.5T451,152l75-75L486,37l-75,75q-27-20-57-30T293,72q-28,0-59,9.5T176,112L101,37Zm192,97q38,0 68.5,18.5t49,49T429,269q0,38-18.5,68.5t-49,49T293,405q-37,0-68-18.5t-50-49T156,269q0-37 19-67.5t50-49T293,134Z"/>
      <glyph unicode="&#xa5;" glyph-name="gid239" horiz-adv-x="624" d="M280,0V340L17,745H90L327,384H298L534,745h73L345,340V0H280ZM137,308v55H487V308H137Zm0-155v55H487V153H137Z"/>
      <glyph unicode="&#xa6;" glyph-name="gid233" horiz-adv-x="285" d="M110,428V845h65V428H110Zm0-618V228h65V-190H110Z"/>
      <glyph unicode="&#xa7;" glyph-name="gid225" horiz-adv-x="538" d="M274-97q-78,0-138,39.5T50,47l54,26q26-54 72-83.5T275-40q54,0 91,28t37,72q0,27-13.5,45.5t-36,31.5T305,157l-87,25q-72,21-106.5,59.5T77,332q0,46 24.5,81.5t65,55.5T257,489l-1-43q-51,0-83-30t-32-76q0-26 12.5-45t33-31T230,245l94-27q68-20 105.5-61T467,61q0-45-24.5-81T374-76.5T274-97Zm9,268v43q55,0 92.5,30.5T413,323q0,29-13.5,48.5t-36,33T315,425l-87,25q-72,21-106.5,59.5T87,600q0,47 24,82t65,55t92,20q68,0 124.5-36T472,625l-55-26q-23,47-63,74t-88,27q-51,0-83-27.5T151,604q0-25 12.5-43t33-29.5T240,513l94-27q68-19 105.5-60.5T477,329q0-45-25-81t-69-56.5T283,171Z"/>
      <glyph unicode="&#xa8;" glyph-name="gid277" horiz-adv-x="417" d="M103,640v88h85V640H103Zm165,0v88h85V640H268Z"/>
      <glyph unicode="&#xa9;" glyph-name="gid226" horiz-adv-x="895" d="M448-12q-80,0-150,29.5T175,100T92.5,223T63,373q0,79 29.5,148.5T175,644t122.5,83T448,757q80,0 149.5-30T720,644t82.5-122.5T832,373q0-81-30-150.5T719,100T596.5,17.5T448-12Zm0,59q68,0 127,25t103,69.5t69,104T772,373q0,67-24.5,126t-69,104T575,673T448,698T321,673T217.5,603.5T148,500T123,373t25-127.5t69.5-104T321,72T448,47Zm5,116q-57,0-102.5,27.5t-71.5,75T253,373q0,61 26,108t71.5,74T453,582q42,0 76-14.5t57.5-38T620,479l-53-26q-13,31-42.5,52.5T453,527q-62,0-101-42.5T313,373t39-112t101-43q42,0 71,21t43,53l53-25q-10-27-33.5-50.5T529,178t-76-15Z"/>
      <glyph unicode="&#xaa;" glyph-name="gid126" horiz-adv-x="456" d="M186,364q-54,0-89.5,29.5T61,470q0,43 30,75.5T184,588l142,24V562L197,541q-41-7-58-25t-17-44t20.5-42.5T192,413q37,0 65,16t43,43.5T315,533v95q0,33-24,53.5T228,702q-33,0-59.5-16.5T130,641L79,668q17,38 59,62.5T229,755q64,0 104-35.5T373,628V372H317v74l9-3q-16-34-53.5-56.5T186,364Z"/>
      <glyph unicode="&#xab;" glyph-name="gid216" horiz-adv-x="506" d="M181,81L29,269L181,457h68L100,269L249,81H181Zm228,0L257,269L409,457h68L328,269L477,81H409Z"/>
      <glyph unicode="&#xac;" glyph-name="gid250" horiz-adv-x="601" d="M491,40V221H51v60H551V40H491Z"/>
      <glyph unicode="&#xae;" glyph-name="gid227" horiz-adv-x="639" d="M320,272q-71,0-129.5,34.5t-93,93T63,528q0,71 34.5,129t93,92.5T320,784q53,0 99.5-20T501,709t55-81.5T576,528q0-70-34.5-128.5t-92.5-93T320,272Zm0,51q57,0 103.5,27t74,74T525,528T497.5,631.5t-74,74T320,733q-58,0-104.5-27.5t-74-74T114,528t27.5-103.5t74-74T320,323Zm-93,71V664H331q41,0 67.5-22.5T425,578q0-25-11.5-45.5T377,501l63-107H382l-55,98H278V394H227Zm51,143h53q20,0 31.5,12T374,578q0,18-11.5,29T331,618H278V537Z"/>
      <glyph unicode="&#xaf;" glyph-name="gid283" horiz-adv-x="437" d="M103,660v55H363V660H103Z"/>
      <glyph unicode="&#xb0;" glyph-name="gid229" horiz-adv-x="461" d="M230,463q-41,0-74.5,19t-53,52.5T83,610t19.5,75t53,52.5T231,757t75-19.5t52.5-53T378,609t-19.5-75T306,482t-76-19Zm0,50q38,0 67.5,26.5T327,609q0,45-29.5,71.5T230,707t-67-26.5T134,609q0-43 28.5-69.5T230,513Z"/>
      <glyph unicode="&#xb1;" glyph-name="gid248" horiz-adv-x="601" d="M271,145V331H51v60H271V575h60V391H551V331H331V145H271ZM51,0V60H551V0H51Z"/>
      <glyph unicode="&#xb2;" glyph-name="gid176" horiz-adv-x="428" d="M43,223v43L188,422q42,46 68.5,76t39,54.5T308,606q0,43-26,67.5T212,698q-45,0-76-25.5T94,600L39,615q9,43 33.5,73.5T133,736t78,17q47,0 82.5-18.5t56-50.5T370,609q0-48-28.5-90.5T261,420L128,277H381V223H43Z"/>
      <glyph unicode="&#xb3;" glyph-name="gid177" horiz-adv-x="433" d="M213,215q-42,0-78,15.5T74,274T37,341l53,20q14-42 46-66.5T213,270q52,0 84.5,30.5T330,383q0,53-33.5,81.5T213,493q-22,0-41-5l-13,27L300,691H62v54H371V696L234,523l-3,17q46,0 82-20t57.5-55T392,383t-23-85t-63.5-60.5T213,215Z"/>
      <glyph unicode="&#xb4;" glyph-name="gid279" horiz-adv-x="341" d="M103,640l90,150h82L164,640H103Z"/>
      <glyph unicode="&#xb5;" glyph-name="gid252" horiz-adv-x="572" d="M72-140V531h60V197q0-47 19.5-80.5t53-51.5T280,47q46,0 79.5,21T411,126.5T429,212V531h60V0H429V108l10-15q-19-48-64-76.5T271-12q-46,0-87,19T116,61l16,18V-140H72Z"/>
      <glyph unicode="&#xb6;" glyph-name="gid224" horiz-adv-x="378" d="M203-100V438q-45,0-79.5,20t-55,55T48,592t20,79t55,54.5T203,745h65V-100H203Z"/>
      <glyph unicode="&#xb7;" glyph-name="gid193" horiz-adv-x="274" d="M103,220V320h68V220H103Z"/>
      <glyph unicode="&#xb8;" glyph-name="gid284" horiz-adv-x="382" d="M203-225q-28,0-55,10t-45,28l18,43q16-16 36.5-24.5T197-177q24,0 38,12.5T249-134q0,26-25.5,40T148-75l25,85h48L207-43q47-9 73-33.5T306-135q0-40-29-65t-74-25Z"/>
      <glyph unicode="&#xb9;" glyph-name="gid175" horiz-adv-x="297" d="M123,223V691H25v54H185V223H123Z"/>
      <glyph unicode="&#xba;" glyph-name="gid127" horiz-adv-x="506" d="M254,364q-54,0-98,25.5t-69.5,70T61,560T86.5,660T156,729.5T254,755t97.5-25.5t69-69.5T446,560q0-57-26-101t-69.5-69.5T254,364Zm0,56q36,0 65.5,18.5t47,50T384,560t-17.5,71.5t-46.5,50T254,700t-67-18.5t-47.5-50T122,560q0-39 17.5-71T187,438.5T254,420Z"/>
      <glyph unicode="&#xbb;" glyph-name="gid217" horiz-adv-x="506" d="M257,81L407,269L257,457h69L477,269L326,81H257ZM29,81L179,269L29,457H98L249,269L98,81H29Z"/>
      <glyph unicode="&#xbc;" glyph-name="gid170" horiz-adv-x="877" d="M104,328V694H25v51H163V328H104ZM122,0L568,745h67L189,0H122ZM723,0V95H520v49L721,418h58V144h56V95H779V0H723ZM564,123l-9,21H723V370l17-5L564,123Z"/>
      <glyph unicode="&#xbd;" glyph-name="gid169" horiz-adv-x="844" d="M104,328V694H25v51H163V328H104ZM122,0L568,745h67L189,0H122ZM524,0V42L639,165q33,35 53,58t29.5,41.5T731,304q0,32-19.5,49.5T660,371t-55-18.5T573,299l-52,16q7,34 27,58.5T597,411t63,13q57,0 93.5-32.5T790,308q0-40-24.5-74T706,162L603,51H798V0H524Z"/>
      <glyph unicode="&#xbe;" glyph-name="gid171" horiz-adv-x="969" d="M180,321q-51,0-90.5,27.5T37,422l50,19q11-32 35.5-50T180,373q38,0 62,23t24,61q0,39-24,60.5T180,539q-9,0-19.5-1.5T143,533l-12,27L242,695H58v50H308V698L200,565l-2,18q55-1 91-35.5T325,458q0-38-18.5-69T255,339.5T180,321ZM214,0L660,745h67L281,0H214ZM815,0V95H612v49L813,418h58V144h56V95H871V0H815ZM656,123l-9,21H815V370l17-5L656,123Z"/>
      <glyph unicode="&#xbf;" glyph-name="gid192" horiz-adv-x="487" d="M238-226q-56,0-100,24T69-138.5T44-53Q44-6 64,30t50,66.5T174,157q34,34 60.5,71.5T261,313v7h62v-7q0-45-16-80t-41.5-63.5T211,115q-39-38-70.5-77T109-54q0-29 15.5-55.5t44-43T238-169q60,0 101.5,37T394-32l58-12q-9-55-39-96t-75-63.5T238-226Zm18,657V531h68V431H256Z"/>
      <glyph unicode="&#xc0;" glyph-name="gid6" horiz-adv-x="648" d="M17,0L291,745h67L632,0H562L494,190H155L86,0H17ZM176,250H472L312,695h24L176,250ZM294,854L183,1004h82l90-150H294Z"/>
      <glyph unicode="&#xc1;" glyph-name="gid2" horiz-adv-x="648" d="M17,0L291,745h67L632,0H562L494,190H155L86,0H17ZM176,250H472L312,695h24L176,250ZM294,854l90,150h82L355,854H294Z"/>
      <glyph unicode="&#xc2;" glyph-name="gid4" horiz-adv-x="648" d="M17,0L291,745h67L632,0H562L494,190H155L86,0H17ZM176,250H472L312,695h24L176,250Zm-6,604l123,150h63L480,854H410L325,957L240,854H170Z"/>
      <glyph unicode="&#xc3;" glyph-name="gid8" horiz-adv-x="648" d="M17,0L291,745h67L632,0H562L494,190H155L86,0H17ZM176,250H472L312,695h24L176,250ZM383,854q-26,0-42,10t-27.5,23.5T291,911t-28,10t-27.5-14.5T225,858H174q0,54 24,84.5T265,973q25,0 40.5-10t27-23.5t23-23.5T384,906q19,0 30,16t11,47h50q0-51-24.5-83T383,854Z"/>
      <glyph unicode="&#xc4;" glyph-name="gid5" horiz-adv-x="648" d="M17,0L291,745h67L632,0H562L494,190H155L86,0H17ZM176,250H472L312,695h24L176,250Zm23,604v88h85V854H199Zm165,0v88h85V854H364Z"/>
      <glyph unicode="&#xc5;" glyph-name="gid7" horiz-adv-x="648" d="M17,0L291,745h67L632,0H562L494,190H155L86,0H17ZM176,250H472L312,695h24L176,250ZM324,834q-41,0-71.5,27T222,935q0,46 30,73.5t72,27.5t72.5-27.5T427,935q0-47-30.5-74T324,834Zm0,45q23,0 39,15t16,40q0,26-16,41t-39,15q-22,0-38-15t-16-40q0-26 16-41t38-15Z"/>
      <glyph unicode="&#xc6;" glyph-name="gid9" horiz-adv-x="986" d="M17,0L291,745H937V685H532V404H917V344H532V60H937V0H467V190H155L86,0H17ZM176,250H467V685H333L176,250Z"/>
      <glyph unicode="&#xc7;" glyph-name="gid12" horiz-adv-x="785" d="M429-12q-77,0-142,28.5T173.5,97t-75,122T72,373q0,83 26.5,153.5t75,122t113.5,80T429,757q75,0 135-27t101-69t59-87l-61-27q-30,67-90.5,108T429,696q-85,0-151.5-41T174,541.5T137,373t37-169T277.5,90.5T429,50q83,0 143.5,40.5T663,198l61-27q-18-44-59-86T564,15.5T429-12Zm10-213q-28,0-55,10t-45,28l18,43q16-16 36.5-24.5T433-177q24,0 38,12.5T485-134q0,26-25.5,40T384-75l25,85h48L443-43q47-9 73-33.5T542-135q0-40-29-65t-74-25Z"/>
      <glyph unicode="&#xc8;" glyph-name="gid19" horiz-adv-x="613" d="M94,0V745H564V685H159V404H544V344H159V60H564V0H94ZM299,854L188,1004h82l90-150H299Z"/>
      <glyph unicode="&#xc9;" glyph-name="gid16" horiz-adv-x="613" d="M94,0V745H564V685H159V404H544V344H159V60H564V0H94ZM298,854l90,150h82L359,854H298Z"/>
      <glyph unicode="&#xca;" glyph-name="gid17" horiz-adv-x="613" d="M94,0V745H564V685H159V404H544V344H159V60H564V0H94Zm80,854l123,150h63L484,854H414L329,957L244,854H174Z"/>
      <glyph unicode="&#xcb;" glyph-name="gid18" horiz-adv-x="613" d="M94,0V745H564V685H159V404H544V344H159V60H564V0H94ZM204,854v88h85V854H204Zm165,0v88h85V854H369Z"/>
      <glyph unicode="&#xcc;" glyph-name="gid27" horiz-adv-x="252" d="M94,0V745h65V0H94Zm2,854L-15,1004H67l90-150H96Z"/>
      <glyph unicode="&#xcd;" glyph-name="gid24" horiz-adv-x="252" d="M94,0V745h65V0H94Zm2,854l90,150h82L157,854H96Z"/>
      <glyph unicode="&#xce;" glyph-name="gid25" horiz-adv-x="252" d="M94,0V745h65V0H94ZM-28,854L95,1004h63L282,854H212L127,957L42,854H-28Z"/>
      <glyph unicode="&#xcf;" glyph-name="gid26" horiz-adv-x="252" d="M94,0V745h65V0H94ZM1,854v88H86V854H1Zm165,0v88h85V854H166Z"/>
      <glyph unicode="&#xd0;" glyph-name="gid14" horiz-adv-x="743" d="M29,344v58H324V344H29ZM94,0V745H335q110,0 190.5-45.5T650,570.5T694,373q0-113-44-197T525.5,46T335,0H94Zm65,60H334q89,0 154.5,39t102,109.5T627,373q0,95-36.5,165T488,646.5T334,685H159V60Z"/>
      <glyph unicode="&#xd1;" glyph-name="gid33" horiz-adv-x="737" d="M94,0V745h55L600,98H579V745h65V0H589L136,651h23V0H94ZM427,854q-26,0-42,10t-27.5,23.5T335,911t-28,10t-27.5-14.5T269,858H218q0,54 24,84.5T309,973q25,0 40.5-10t27-23.5t23-23.5T428,906q19,0 30,16t11,47h50q0-51-24.5-83T427,854Z"/>
      <glyph unicode="&#xd2;" glyph-name="gid38" horiz-adv-x="881" d="M441-12q-77,0-144,28.5t-117.5,80t-79,122T72,373q0,85 28.5,155T180,649.5T297.5,729T441,757q76,0 143-28t117.5-79.5t79.5-122T810,373T781,218.5t-79.5-122T584,16.5T441-12Zm0,62q67,0 123,25t96.5,70T723,248.5T745,373q0,65-22,123.5T660.5,600t-96,70.5T441,696T317.5,670.5t-96-70.5T159,496.5T137,373q0-66 22-124.5T221.5,145T318,75T441,50ZM411,854L300,1004h82l90-150H411Z"/>
      <glyph unicode="&#xd3;" glyph-name="gid35" horiz-adv-x="881" d="M441-12q-77,0-144,28.5t-117.5,80t-79,122T72,373q0,85 28.5,155T180,649.5T297.5,729T441,757q76,0 143-28t117.5-79.5t79.5-122T810,373T781,218.5t-79.5-122T584,16.5T441-12Zm0,62q67,0 123,25t96.5,70T723,248.5T745,373q0,65-22,123.5T660.5,600t-96,70.5T441,696T317.5,670.5t-96-70.5T159,496.5T137,373q0-66 22-124.5T221.5,145T318,75T441,50ZM410,854l90,150h82L471,854H410Z"/>
      <glyph unicode="&#xd4;" glyph-name="gid36" horiz-adv-x="881" d="M441-12q-77,0-144,28.5t-117.5,80t-79,122T72,373q0,85 28.5,155T180,649.5T297.5,729T441,757q76,0 143-28t117.5-79.5t79.5-122T810,373T781,218.5t-79.5-122T584,16.5T441-12Zm0,62q67,0 123,25t96.5,70T723,248.5T745,373q0,65-22,123.5T660.5,600t-96,70.5T441,696T317.5,670.5t-96-70.5T159,496.5T137,373q0-66 22-124.5T221.5,145T318,75T441,50ZM286,854l123,150h63L596,854H526L441,957L356,854H286Z"/>
      <glyph unicode="&#xd5;" glyph-name="gid40" horiz-adv-x="881" d="M441-12q-77,0-144,28.5t-117.5,80t-79,122T72,373q0,85 28.5,155T180,649.5T297.5,729T441,757q76,0 143-28t117.5-79.5t79.5-122T810,373T781,218.5t-79.5-122T584,16.5T441-12Zm0,62q67,0 123,25t96.5,70T723,248.5T745,373q0,65-22,123.5T660.5,600t-96,70.5T441,696T317.5,670.5t-96-70.5T159,496.5T137,373q0-66 22-124.5T221.5,145T318,75T441,50Zm58,804q-26,0-42,10t-27.5,23.5T407,911t-28,10t-27.5-14.5T341,858H290q0,54 24,84.5T381,973q25,0 40.5-10t27-23.5t23-23.5T500,906q19,0 30,16t11,47h50q0-51-24.5-83T499,854Z"/>
      <glyph unicode="&#xd6;" glyph-name="gid37" horiz-adv-x="881" d="M441-12q-77,0-144,28.5t-117.5,80t-79,122T72,373q0,85 28.5,155T180,649.5T297.5,729T441,757q76,0 143-28t117.5-79.5t79.5-122T810,373T781,218.5t-79.5-122T584,16.5T441-12Zm0,62q67,0 123,25t96.5,70T723,248.5T745,373q0,65-22,123.5T660.5,600t-96,70.5T441,696T317.5,670.5t-96-70.5T159,496.5T137,373q0-66 22-124.5T221.5,145T318,75T441,50ZM316,854v88h85V854H316Zm165,0v88h85V854H481Z"/>
      <glyph unicode="&#xd7;" glyph-name="gid243" horiz-adv-x="601" d="M131,0L88,42L258,213L89,382l42,42L301,255L470,424l42-42L343,213L513,42L471,0L301,170L131,0Z"/>
      <glyph unicode="&#xd8;" glyph-name="gid39" horiz-adv-x="881" d="M94,0L704,745h84L178,0H94ZM441-12q-77,0-144,28.5t-117.5,80t-79,122T72,373q0,85 28.5,155T180,649.5T297.5,729T441,757q76,0 143-28t117.5-79.5t79.5-122T810,373T781,218.5t-79.5-122T584,16.5T441-12Zm0,62q67,0 123,25t96.5,70T723,248.5T745,373q0,65-22,123.5T660.5,600t-96,70.5T441,696T317.5,670.5t-96-70.5T159,496.5T137,373q0-66 22-124.5T221.5,145T318,75T441,50Z"/>
      <glyph unicode="&#xd9;" glyph-name="gid52" horiz-adv-x="695" d="M348-12q-77,0-135,33t-90.5,91.5T90,247V745h65V245q0-58 24.5-102.5t68-69.5T348,48T448.5,73T516,142.5T540,245V745h65V247q0-76-32-134.5T483,21T348-12ZM318,854L207,1004h82l90-150H318Z"/>
      <glyph unicode="&#xda;" glyph-name="gid49" horiz-adv-x="695" d="M348-12q-77,0-135,33t-90.5,91.5T90,247V745h65V245q0-58 24.5-102.5t68-69.5T348,48T448.5,73T516,142.5T540,245V745h65V247q0-76-32-134.5T483,21T348-12ZM317,854l90,150h82L378,854H317Z"/>
      <glyph unicode="&#xdb;" glyph-name="gid50" horiz-adv-x="695" d="M348-12q-77,0-135,33t-90.5,91.5T90,247V745h65V245q0-58 24.5-102.5t68-69.5T348,48T448.5,73T516,142.5T540,245V745h65V247q0-76-32-134.5T483,21T348-12ZM193,854l123,150h63L503,854H433L348,957L263,854H193Z"/>
      <glyph unicode="&#xdc;" glyph-name="gid51" horiz-adv-x="695" d="M348-12q-77,0-135,33t-90.5,91.5T90,247V745h65V245q0-58 24.5-102.5t68-69.5T348,48T448.5,73T516,142.5T540,245V745h65V247q0-76-32-134.5T483,21T348-12ZM223,854v88h85V854H223Zm165,0v88h85V854H388Z"/>
      <glyph unicode="&#xdd;" glyph-name="gid57" horiz-adv-x="624" d="M280,0V340L17,745H90L327,384H298L534,745h73L345,340V0H280Zm2,854l90,150h82L343,854H282Z"/>
      <glyph unicode="&#xde;" glyph-name="gid43" horiz-adv-x="635" d="M88,0V745h65V598H338q71,0 125-28.5T547.5,490T578,372T547.5,254.5t-84-78.5T338,148H153V0H88Zm65,208H340q51,0 90,20.5t61,58T513,373q0,50-22,87t-61,57.5T340,538H153V208Z"/>
      <glyph unicode="&#xdf;" glyph-name="gid107" horiz-adv-x="604" d="M94-145V546q0,65 28,112t76.5,73T307,757t106.5-23.5t73-66.5T513,566q0-67-33.5-112T388,388l-4,19q79-24 119.5-72.5T544,212q0-64-29.5-111.5t-81-74T313,0H249V58h64q74,0 119.5,42.5T478,212T432,323.5T310,366H249v58h54q42,0 74.5,17.5t51.5,49T448,563q0,40-18,71t-50,48.5T306,700q-43,0-77.5-19T174,627.5T154,546V-145H94Z"/>
      <glyph unicode="&#xe0;" glyph-name="gid63" horiz-adv-x="573" d="M235-12q-50,0-89,19T84,60T61,138q0,39 17,73t55,58.5T232,304l215,36V284L248,251q-68-11-96-41t-28-70q0-43 32.5-70T239,43q58,0 101,26.5t67,70T431,235V367q0,53-38,86t-99,33q-50,0-90-25t-61-65L89,425q15,32 46,59t72,43t87,16q58,0 102.5-22.5t69.5-62T491,367V0H431V111l7-5q-13-32-43-58.5t-70.5-43T235-12Zm29,652L153,790h82l90-150H264Z"/>
      <glyph unicode="&#xe1;" glyph-name="gid60" horiz-adv-x="573" d="M235-12q-50,0-89,19T84,60T61,138q0,39 17,73t55,58.5T232,304l215,36V284L248,251q-68-11-96-41t-28-70q0-43 32.5-70T239,43q58,0 101,26.5t67,70T431,235V367q0,53-38,86t-99,33q-50,0-90-25t-61-65L89,425q15,32 46,59t72,43t87,16q58,0 102.5-22.5t69.5-62T491,367V0H431V111l7-5q-13-32-43-58.5t-70.5-43T235-12Zm28,652l90,150h82L324,640H263Z"/>
      <glyph unicode="&#xe2;" glyph-name="gid61" horiz-adv-x="573" d="M235-12q-50,0-89,19T84,60T61,138q0,39 17,73t55,58.5T232,304l215,36V284L248,251q-68-11-96-41t-28-70q0-43 32.5-70T239,43q58,0 101,26.5t67,70T431,235V367q0,53-38,86t-99,33q-50,0-90-25t-61-65L89,425q15,32 46,59t72,43t87,16q58,0 102.5-22.5t69.5-62T491,367V0H431V111l7-5q-13-32-43-58.5t-70.5-43T235-12ZM139,640L262,790h63L449,640H379L294,743L209,640H139Z"/>
      <glyph unicode="&#xe3;" glyph-name="gid65" horiz-adv-x="573" d="M235-12q-50,0-89,19T84,60T61,138q0,39 17,73t55,58.5T232,304l215,36V284L248,251q-68-11-96-41t-28-70q0-43 32.5-70T239,43q58,0 101,26.5t67,70T431,235V367q0,53-38,86t-99,33q-50,0-90-25t-61-65L89,425q15,32 46,59t72,43t87,16q58,0 102.5-22.5t69.5-62T491,367V0H431V111l7-5q-13-32-43-58.5t-70.5-43T235-12ZM352,640q-26,0-42,10t-27.5,23.5T260,697t-28,10t-27.5-14.5T194,644H143q0,54 24,84.5T234,759q25,0 40.5-10t27-23.5t23-23.5T353,692q19,0 30,16t11,47h50q0-51-24.5-83T352,640Z"/>
      <glyph unicode="&#xe4;" glyph-name="gid62" horiz-adv-x="573" d="M235-12q-50,0-89,19T84,60T61,138q0,39 17,73t55,58.5T232,304l215,36V284L248,251q-68-11-96-41t-28-70q0-43 32.5-70T239,43q58,0 101,26.5t67,70T431,235V367q0,53-38,86t-99,33q-50,0-90-25t-61-65L89,425q15,32 46,59t72,43t87,16q58,0 102.5-22.5t69.5-62T491,367V0H431V111l7-5q-13-32-43-58.5t-70.5-43T235-12ZM169,640v88h85V640H169Zm165,0v88h85V640H334Z"/>
      <glyph unicode="&#xe5;" glyph-name="gid64" horiz-adv-x="573" d="M235-12q-50,0-89,19T84,60T61,138q0,39 17,73t55,58.5T232,304l215,36V284L248,251q-68-11-96-41t-28-70q0-43 32.5-70T239,43q58,0 101,26.5t67,70T431,235V367q0,53-38,86t-99,33q-50,0-90-25t-61-65L89,425q15,32 46,59t72,43t87,16q58,0 102.5-22.5t69.5-62T491,367V0H431V111l7-5q-13-32-43-58.5t-70.5-43T235-12Zm58,632q-41,0-71.5,27T191,721q0,46 30,73.5T293,822t72.5-27.5T396,721q0-47-30.5-74T293,620Zm0,45q23,0 39,15t16,40q0,26-16,41t-39,15q-22,0-38-15t-16-40q0-26 16-41t38-15Z"/>
      <glyph unicode="&#xe6;" glyph-name="gid66" horiz-adv-x="993" d="M235-12q-50,0-89,19T84,60T61,138q0,39 17,73t55,58.5T232,304l198,33v30q0,53-37.5,86T294,486q-50,0-90-25t-61-65L89,425q15,32 46,59t72,43t87,16q74,0 126-37t66-99l-19,1q32,62 90.5,98.5T689,543q54,0 99-20t77-55.5t49.5-81T932,291q0-10-0.5-21T929,247H494q3-60 31-105.5T598,70T698,44q58,0 101,27.5T868,145l51-27q-17-37-50-66.5T792.5,5T698-12q-71,0-128.5,33T477,112l14,14V0H430V127l9-18q-13-32-42.5-60t-71-44.5T235-12Zm4,55q58,0 101,26.5t66.5,70T430,235v46L248,251q-68-11-96-41t-28-70q0-43 32.5-70T239,43ZM496,302H869q0,54-24,95.5T780,463t-91,24q-49,0-91-23.5t-69-65T496,302Z"/>
      <glyph unicode="&#xe7;" glyph-name="gid69" horiz-adv-x="604" d="M325-12q-76,0-135.5,36.5T95.5,124T61,266q0,80 34.5,142.5t94,98.5T325,543q50,0 92.5-17T493,480t50-67l-53-28q-24,46-67,73t-98,27q-57,0-102.5-28T150,379.5T123,266t27-113.5T222.5,75T325,47q55,0 98,27t67,74l53-29q-17-37-50-66.5t-75.5-47T325-12Zm10-213q-28,0-55,10t-45,28l18,43q16-16 36.5-24.5T329-177q24,0 38,12.5T381-134q0,26-25.5,40T280-75l25,85h48L339-43q47-9 73-33.5T438-135q0-40-29-65t-74-25Z"/>
      <glyph unicode="&#xe8;" glyph-name="gid76" horiz-adv-x="621" d="M326-12q-75,0-135,36.5t-95,100T61,267T95,408.5T187,507t130,36q55,0 99.5-20t77-55.5t50-81T561,291q0-10-1-21t-3-23H96v55H523l-27-21q6,58-17,104.5t-65.5,74T317,487t-99-28.5t-71-78T123,266q-2-65 25-115t74-78.5T326,44q58,0 101,27.5T497,145l51-27q-18-37-51-66.5T420.5,5T326-12ZM281,640L170,790h82l90-150H281Z"/>
      <glyph unicode="&#xe9;" glyph-name="gid73" horiz-adv-x="621" d="M326-12q-75,0-135,36.5t-95,100T61,267T95,408.5T187,507t130,36q55,0 99.5-20t77-55.5t50-81T561,291q0-10-1-21t-3-23H96v55H523l-27-21q6,58-17,104.5t-65.5,74T317,487t-99-28.5t-71-78T123,266q-2-65 25-115t74-78.5T326,44q58,0 101,27.5T497,145l51-27q-18-37-51-66.5T420.5,5T326-12ZM281,640l90,150h82L342,640H281Z"/>
      <glyph unicode="&#xea;" glyph-name="gid74" horiz-adv-x="621" d="M326-12q-75,0-135,36.5t-95,100T61,267T95,408.5T187,507t130,36q55,0 99.5-20t77-55.5t50-81T561,291q0-10-1-21t-3-23H96v55H523l-27-21q6,58-17,104.5t-65.5,74T317,487t-99-28.5t-71-78T123,266q-2-65 25-115t74-78.5T326,44q58,0 101,27.5T497,145l51-27q-18-37-51-66.5T420.5,5T326-12ZM157,640L280,790h63L467,640H397L312,743L227,640H157Z"/>
      <glyph unicode="&#xeb;" glyph-name="gid75" horiz-adv-x="621" d="M326-12q-75,0-135,36.5t-95,100T61,267T95,408.5T187,507t130,36q55,0 99.5-20t77-55.5t50-81T561,291q0-10-1-21t-3-23H96v55H523l-27-21q6,58-17,104.5t-65.5,74T317,487t-99-28.5t-71-78T123,266q-2-65 25-115t74-78.5T326,44q58,0 101,27.5T497,145l51-27q-18-37-51-66.5T420.5,5T326-12ZM186,640v88h85V640H186Zm165,0v88h85V640H351Z"/>
      <glyph unicode="&#xec;" glyph-name="gid86" horiz-adv-x="192" d="M66,0V531h60V0H66Zm0,640L-45,790H37l90-150H66Z"/>
      <glyph unicode="&#xed;" glyph-name="gid82" horiz-adv-x="192" d="M66,0V531h60V0H66ZM65,640l90,150h82L126,640H65Z"/>
      <glyph unicode="&#xee;" glyph-name="gid83" horiz-adv-x="192" d="M66,0V531h60V0H66ZM-59,640L64,790h63L251,640H181L96,743L11,640H-59Z"/>
      <glyph unicode="&#xef;" glyph-name="gid84" horiz-adv-x="192" d="M66,0V531h60V0H66ZM-29,640v88H56V640H-29Zm165,0v88h85V640H136Z"/>
      <glyph unicode="&#xf0;" glyph-name="gid71" horiz-adv-x="660" d="M335-12Q276-12 225.5,9t-87,58t-57,87T61,262q0,77 34.5,138.5t95.5,97T330,533q40,0 81-12t77-40.5T548,401l-20-30q1,55-15.5,108.5T466,579.5T394,662t-93,56.5T193,739q-26,0-53.5-4.5T84,720L69,775q66,21 128,21q79,0 143-28t112.5-76t81-110.5t49-133T599,308q0-110-35.5-181T468,22T335-12Zm-5,59q57,0 103.5,29T507,154t27,109q0,59-26,107t-72,76T330,474T224,446t-72.5-76.5T125,262q0-61 28-109.5t74.5-77T330,47ZM247,588v51L534,742V690L247,588Z"/>
      <glyph unicode="&#xf1;" glyph-name="gid93" horiz-adv-x="572" d="M83,0V531h60V424l-15,4q18,53 64.5,84T301,543q55,0 100-25t72-69.5T500,347V0H440V330q0,48-19,82.5t-52.5,53T292,484q-45,0-79-21t-52-58t-18-85V0H83ZM345,640q-26,0-42,10t-27.5,23.5T253,697t-28,10t-27.5-14.5T187,644H136q0,54 24,84.5T227,759q25,0 40.5-10t27-23.5t23-23.5T346,692q19,0 30,16t11,47h50q0-51-24.5-83T345,640Z"/>
      <glyph unicode="&#xf2;" glyph-name="gid98" horiz-adv-x="659" d="M330-12q-76,0-137,36T96.5,123.5T61,266T96.5,408t96,99T330,543q76,0 137-36t96-98.5T598,266T562,123T465.5,24T330-12Zm0,59q57,0 103.5,28.5T507,154t27,112T507,377t-73,78T330,484T225.5,455.5t-73.5-78T125,266t27.5-112T226,75.5T330,47ZM300,640L189,790h82l90-150H300Z"/>
      <glyph unicode="&#xf3;" glyph-name="gid95" horiz-adv-x="659" d="M330-12q-76,0-137,36T96.5,123.5T61,266T96.5,408t96,99T330,543q76,0 137-36t96-98.5T598,266T562,123T465.5,24T330-12Zm0,59q57,0 103.5,28.5T507,154t27,112T507,377t-73,78T330,484T225.5,455.5t-73.5-78T125,266t27.5-112T226,75.5T330,47ZM299,640l90,150h82L360,640H299Z"/>
      <glyph unicode="&#xf4;" glyph-name="gid96" horiz-adv-x="659" d="M330-12q-76,0-137,36T96.5,123.5T61,266T96.5,408t96,99T330,543q76,0 137-36t96-98.5T598,266T562,123T465.5,24T330-12Zm0,59q57,0 103.5,28.5T507,154t27,112T507,377t-73,78T330,484T225.5,455.5t-73.5-78T125,266t27.5-112T226,75.5T330,47ZM175,640L298,790h63L485,640H415L330,743L245,640H175Z"/>
      <glyph unicode="&#xf5;" glyph-name="gid100" horiz-adv-x="659" d="M330-12q-76,0-137,36T96.5,123.5T61,266T96.5,408t96,99T330,543q76,0 137-36t96-98.5T598,266T562,123T465.5,24T330-12Zm0,59q57,0 103.5,28.5T507,154t27,112T507,377t-73,78T330,484T225.5,455.5t-73.5-78T125,266t27.5-112T226,75.5T330,47Zm58,593q-26,0-42,10t-27.5,23.5T296,697t-28,10t-27.5-14.5T230,644H179q0,54 24,84.5T270,759q25,0 40.5-10t27-23.5t23-23.5T389,692q19,0 30,16t11,47h50q0-51-24.5-83T388,640Z"/>
      <glyph unicode="&#xf6;" glyph-name="gid97" horiz-adv-x="659" d="M330-12q-76,0-137,36T96.5,123.5T61,266T96.5,408t96,99T330,543q76,0 137-36t96-98.5T598,266T562,123T465.5,24T330-12Zm0,59q57,0 103.5,28.5T507,154t27,112T507,377t-73,78T330,484T225.5,455.5t-73.5-78T125,266t27.5-112T226,75.5T330,47ZM205,640v88h85V640H205Zm165,0v88h85V640H370Z"/>
      <glyph unicode="&#xf7;" glyph-name="gid244" horiz-adv-x="601" d="M51,221v60H551V221H51ZM267,0V91h68V0H267Zm0,410v90h68V410H267Z"/>
      <glyph unicode="&#xf8;" glyph-name="gid99" horiz-adv-x="659" d="M52,0L521,531h86L138,0H52ZM330-12q-76,0-137,36T96.5,123.5T61,266T96.5,408t96,99T330,543q76,0 137-36t96-98.5T598,266T562,123T465.5,24T330-12Zm0,59q57,0 103.5,28.5T507,154t27,112T507,377t-73,78T330,484T225.5,455.5t-73.5-78T125,266t27.5-112T226,75.5T330,47Z"/>
      <glyph unicode="&#xf9;" glyph-name="gid113" horiz-adv-x="572" d="M271-12q-54,0-99.5,25T99,83.5T72,192V531h60V197q0-47 19.5-80.5t53-51.5T280,47q46,0 79.5,21T411,126.5T429,212V531h60V0H429V108l15-5q-18-52-64-83.5T271-12ZM256,640L145,790h82l90-150H256Z"/>
      <glyph unicode="&#xfa;" glyph-name="gid110" horiz-adv-x="572" d="M271-12q-54,0-99.5,25T99,83.5T72,192V531h60V197q0-47 19.5-80.5t53-51.5T280,47q46,0 79.5,21T411,126.5T429,212V531h60V0H429V108l15-5q-18-52-64-83.5T271-12ZM256,640l90,150h82L317,640H256Z"/>
      <glyph unicode="&#xfb;" glyph-name="gid111" horiz-adv-x="572" d="M271-12q-54,0-99.5,25T99,83.5T72,192V531h60V197q0-47 19.5-80.5t53-51.5T280,47q46,0 79.5,21T411,126.5T429,212V531h60V0H429V108l15-5q-18-52-64-83.5T271-12ZM132,640L255,790h63L442,640H372L287,743L202,640H132Z"/>
      <glyph unicode="&#xfc;" glyph-name="gid112" horiz-adv-x="572" d="M271-12q-54,0-99.5,25T99,83.5T72,192V531h60V197q0-47 19.5-80.5t53-51.5T280,47q46,0 79.5,21T411,126.5T429,212V531h60V0H429V108l15-5q-18-52-64-83.5T271-12ZM161,640v88h85V640H161Zm165,0v88h85V640H326Z"/>
      <glyph unicode="&#xfd;" glyph-name="gid118" horiz-adv-x="533" d="M85-220q-14,0-30.5,2.5T23-210v56q12-3 27.5-5T79-161q49,1 77,24t51,76l38,89V-28L20,531H86L279,49H255L449,531h67L268-74q-14-33-37-67t-58.5-56.5T85-220ZM236,640l90,150h82L297,640H236Z"/>
      <glyph unicode="&#xfe;" glyph-name="gid103" horiz-adv-x="671" d="M83-200V745h60V397l-10,19q30,58 86.5,92.5T349,543q75,0 134-36t93-99t34-142T576,124T483,24.5T349-12q-73,0-130.5,35.5T133,121l10,14V-200H83ZM347,48q57,0 102,28.5t71,78T546,266T520,377t-71,77.5T347,483T244,454.5T171,377T144,266t27-111.5t73-78T347,48Z"/>
      <glyph unicode="&#xff;" glyph-name="gid119" horiz-adv-x="533" d="M85-220q-14,0-30.5,2.5T23-210v56q12-3 27.5-5T79-161q49,1 77,24t51,76l38,89V-28L20,531H86L279,49H255L449,531h67L268-74q-14-33-37-67t-58.5-56.5T85-220Zm57,860v88h85V640H142Zm165,0v88h85V640H307Z"/>
      <glyph unicode="&#x2013;" glyph-name="gid201" horiz-adv-x="558" d="M74,237v58H484V237H74Z"/>
      <glyph unicode="&#x2014;" glyph-name="gid202" horiz-adv-x="893" d="M74,237v58H819V237H74Z"/>
      <glyph unicode="&#x2018;" glyph-name="gid214" horiz-adv-x="259" d="M81,545v80q0,51 23,86.5T168,757V724q-25-6-37.5-27T117,645h31V545H81Z"/>
      <glyph unicode="&#x2019;" glyph-name="gid215" horiz-adv-x="259" d="M81,533v33q25,7 37.5,27.5T132,645H101V745h67V665q0-51-23-86.5T81,533Z"/>
      <glyph unicode="&#x201a;" glyph-name="gid210" horiz-adv-x="259" d="M81-112v33q25,7 37.5,27.5T132,0H101V100h67V20q0-51-23-86.5T81-112Z"/>
      <glyph unicode="&#x201c;" glyph-name="gid212" horiz-adv-x="399" d="M221,545v80q0,51 23,86.5T308,757V724q-25-6-37.5-27T257,645h31V545H221ZM81,545v80q0,51 23,86.5T168,757V724q-25-6-37.5-27T117,645h31V545H81Z"/>
      <glyph unicode="&#x201d;" glyph-name="gid213" horiz-adv-x="399" d="M221,533v33q25,7 37.5,27.5T272,645H241V745h67V665q0-51-23-86.5T221,533ZM81,533v33q25,7 37.5,27.5T132,645H101V745h67V665q0-51-23-86.5T81,533Z"/>
      <glyph unicode="&#x201e;" glyph-name="gid211" horiz-adv-x="399" d="M81-112v33q25,7 37.5,27.5T132,0H101V100h67V20q0-51-23-86.5T81-112Zm140,0v33q25,7 37.5,27.5T272,0H241V100h67V20q0-51-23-86.5T221-112Z"/>
      <glyph unicode="&#x2022;" glyph-name="gid195" horiz-adv-x="496" d="M251,121q-42,0-75.5,19t-53,52.5T103,268q0,40 19.5,72.5T175,392t76,19q40,0 71.5-19T373,340.5T393,268q0-42-19-75.5T323,140t-72-19Z"/>
      <glyph unicode="&#x2039;" glyph-name="gid218" horiz-adv-x="278" d="M181,81L29,269L181,457h68L100,269L249,81H181Z"/>
      <glyph unicode="&#x203a;" glyph-name="gid219" horiz-adv-x="278" d="M29,81L179,269L29,457H98L249,269L98,81H29Z"/>
    </font>
</defs>
</svg>
