<?xml version="1.0" standalone="no"?>
<!DOCTYPE svg PUBLIC "-//W3C//DTD SVG 1.1//EN" "http://www.w3.org/Graphics/SVG/1.1/DTD/svg11.dtd">
<svg xmlns="http://www.w3.org/2000/svg">
  <defs>
    <font id="PlusJakartaSans" horiz-adv-x="550">
      <font-face font-family="Plus Jakarta Sans" units-per-em="1000" panose-1="0 0 0 0 0 0 0 0 0 0" ascent="1038" descent="-222" alphabetic="0" />
      <glyph unicode=" " glyph-name="gid178" horiz-adv-x="170" />
      <glyph unicode="!" glyph-name="gid189" horiz-adv-x="283" d="M99,214l69,531h80L169,214H99ZM64,0L79,110h80L144,0H64Z" />
      <glyph unicode="&quot;" glyph-name="gid220" horiz-adv-x="395" d="M132,527l17,218h80L187,527H132Zm150,0l17,218h80L337,527H282Z" />
      <glyph unicode="#" glyph-name="gid197" horiz-adv-x="790" d="M66,0l83,195H29l10,70H179l92,215H151l10,70H301l83,195h80L381,550H591l83,195h80L671,550H791l-10-70H641L549,265H669l-10-70H519L436,0H356l83,195H229L146,0H66ZM259,265H469l92,215H351L259,265Z" />
      <glyph unicode="$" glyph-name="gid236" horiz-adv-x="647" d="M311-12q-67,0-122.5,25.5T95,84.5T44,190l74,23q17-76 69-114.5T317,60q56,0 94.5,18.5t58.5,50T490,199q0,44-26,72.5T388,315L258,355q-70,22-107.5,70T113,537q0,60 31,110t86,80t127,30q66,0 117-25t84-65.5T602,577l-72-24q-15,62-60.5,97T357,685q-48,0-85.5-18T213,617.5T192,544q0-40 25-71.5T296,424l114-35q80-25 120-73t40-113q0-56-31-105.5T450.5,18T311-12Zm-71-88L372,845h71L311-100H240Z" />
      <glyph unicode="%" glyph-name="gid253" horiz-adv-x="1001" d="M114,0L828,745h97L211,0H114ZM275,367q-51,0-92.5,24T117,456.5T93,548q0,57 28.5,104.5t76,76T302,757q51,0 92-24t65-65t24-92q0-56-28.5-104t-76-76.5T275,367Zm5,72q34,0 63,18.5T390,506t18,64q0,30-14,56.5T355,669t-58,16q-34,0-63.5-18.5t-47.5-48T168,554q0-30 14.5-56T222,455.5T280,439ZM728-12q-51,0-92.5,24T570,77.5T546,169q0,57 29,104.5t76.5,76T756,378q51,0 92-24t64.5-65T936,197q0-56-28.5-104T832,16.5T728-12Zm5,72q34,0 63,18t47,48t18,65q0,30-14,56t-38.5,42.5T751,306q-34,0-63.5-18.5t-47.5-48T622,175q0-30 14-56t39.5-42.5T733,60Z" />
      <glyph unicode="&amp;" glyph-name="gid223" horiz-adv-x="742" d="M239-12q-55,0-99,20.5t-70,60T44,164q0,45 15.5,80T100,306t55.5,48.5T216,393l78,45q45,26 74,52.5T410.5,544T424,598q0,38-23.5,61.5T339,683q-32,0-57.5-15.5t-40.5-41T226,571q0-26 11-51t27.5-47.5T299,429L665,0H559L234,379q-20,23-40.5,51t-34,61.5T146,564q0,52 25.5,96t70,70.5T341,757q48,0 84-20t56.5-55T502,602q0-51-23-91.5t-59.5-72T342,383l-80-47q-32-19-63-42t-50.5-53.5T129,167q0-53 32-79t82-26q38,0 67,12t52,32.5T405,151t39,48L578,369h92L515,164q-19-25-44.5-55.5t-59-58t-76-45T239-12Z" />
      <glyph unicode="&apos;" glyph-name="gid221" horiz-adv-x="245" d="M132,527l17,218h80L187,527H132Z" />
      <glyph unicode="(" glyph-name="gid204" horiz-adv-x="311" d="M169-140Q110-64 79.5,28.5T49,225q0,98 24.5,191T146,593T262,745h65q-64-77-108-162.5t-67-175T129,229q0-97 26.5-190.5T234-140H169Z" />
      <glyph unicode=")" glyph-name="gid205" horiz-adv-x="312" d="M-6-140Q58-61 102,24.5T168.5,199T191,377q0,97-26,190.5T87,745h65q61-77 90.5-170T272,381q0-96-24.5-189T176,15T59-140H-6Z" />
      <glyph unicode="*" glyph-name="gid196" horiz-adv-x="479" d="M168,383l-52,42L218,539L97,582l32,68l122-42l19,137h72L323,608l134,42l12-68L336,539l70-114l-64-42L271,497L168,383Z" />
      <glyph unicode="+" glyph-name="gid241" horiz-adv-x="607" d="M229,0l30,213H46l10,75H269l30,212h76L345,288H556l-10-75H335L305,0H229Z" />
      <glyph unicode="," glyph-name="gid185" horiz-adv-x="270" d="M24-130l4,30q32,8 51,33.5T105,0H62L78,110h80L145,16q-8-58-39-96T24-130Z" />
      <glyph unicode="-" glyph-name="gid200" horiz-adv-x="498" d="M69,233l10,70H429l-10-70H69Z" />
      <glyph unicode="." glyph-name="gid184" horiz-adv-x="286" d="M65,0L81,110h80L145,0H65Z" />
      <glyph unicode="/" glyph-name="gid198" horiz-adv-x="433" d="M-52-120L402,705h91L39-120H-52Z" />
      <glyph unicode="0" glyph-name="gid128" horiz-adv-x="734" d="M345-12q-80,0-139,40T115.5,141T84,312q0,87 22.5,167t66,142.5t105.5,99T418,757q81,0 139.5-40t90-112T679,435q0-87-22-167T592.5,125T488,25T345-12Zm2,75q61,0 108,31.5t79,85t48.5,120T599,435q0,113-48.5,180T416,682q-61,0-108-31.5t-79-85T180.5,446T164,311q0-75 22-131t63-86.5T347,63Z" />
      <glyph unicode="1" glyph-name="gid129" horiz-adv-x="372" d="M143,0l95,675H98l10,70H328L224,0H143Z" />
      <glyph unicode="2" glyph-name="gid130" horiz-adv-x="620" d="M41,0l5,50L278,279q53,53 92,91.5T434,440t37.5,61.5T484,568q0,55-34.5,87T353,687q-65,0-114-38T165,541L93,561q20,61 57.5,104.5T240,733t113,24q62,0 109.5-22.5T537,671t27-98q0-38-11.5-72T518,433t-57.5-72T379,278L163,70H533L524,0H41Z" />
      <glyph unicode="3" glyph-name="gid131" horiz-adv-x="609" d="M267-12Q209-12 160,8T77.5,65T30,153l67,30q17-58 63.5-91.5T273,58q54,0 96,22t66,62t24,92q0,49-20.5,83.5t-55.5,53T302,389q-13,0-28.5-1.5T246,383l-11,37L463,675H119l9,70H565l-8-70L345,438l-14,14q64-1 110.5-30.5t72-78T539,234q0-53-20.5-98T461,58T374.5,6.5T267-12Z" />
      <glyph unicode="4" glyph-name="gid132" horiz-adv-x="631" d="M388,0l24,176H33l9,65L492,745h71L493,241h90l-10-65H483L459,0H388ZM105,212L95,241H422l61,435l28-7L105,212Z" />
      <glyph unicode="5" glyph-name="gid133" horiz-adv-x="615" d="M274-12Q214-12 165.5,8t-82,57T36,153l64,30q17-58 66-91.5T276,58q53,0 96,26.5T440.5,155T466,253q0,45-20,79.5t-54,54T314,406q-62,0-103-22.5T147,329L86,341L198,746H569l-9-70H218l35,27L165,384l-26,14q39,47 85.5,63.5T325,478q67,0 116.5-31t77-82T546,253q0-57-21.5-105T465,64T378,8T274-12Z" />
      <glyph unicode="6" glyph-name="gid134" horiz-adv-x="598" d="M271-12q-65,0-114,27.5t-76,76T54,204q0,49 14.5,95T109,388t61,84L405,745H505L210,406l-20-8q18,25 39,38.5t45.5,19T326,461q60,0 107.5-26.5t75-74T536,251q0-74-35.5-134T405,22.5T271-12Zm3,70q50,0 91,25t66,68t25,96q0,63-39,102.5T315,389q-50,0-91.5-24.5t-66-67T133,201q0-63 39-103T274,58Z" />
      <glyph unicode="7" glyph-name="gid135" horiz-adv-x="544" d="M39,0L470,676H101l9,70H565l-9-70L126,0H39Z" />
      <glyph unicode="8" glyph-name="gid136" horiz-adv-x="629" d="M288-12q-68,0-120.5,26t-82,72.5T56,192q0,52 22,98t61,80t90,50l-2-21q-46,21-70.5,61T132,549q0,56 30,103.5t82.5,76T362,757q56,0 99.5-21.5t68.5-60T555,586q0-42-16.5-78.5t-45-64T428,399l1,21q61-20 95-69t34-115q0-67-35-123.5T427.5,22T288-12Zm3,70q55,0 97,22.5t66,62T478,232q0,65-41.5,102.5T324,372q-57,0-99.5-23.5T159,286t-23-87q0-64 42-102.5T291,58Zm40,384q42,0 74.5,18.5t51,49T475,577q0,51-33.5,80.5T357,687q-41,0-74-18t-52-48.5T212,552q0-50 33.5-80T331,442Z" />
      <glyph unicode="9" glyph-name="gid137" horiz-adv-x="599" d="M123,0L418,339l20,8q-17-24-38.5-38T354,289.5T302,284q-60,0-107.5,26.5t-75,74T92,494q0,75 35.5,134.5t95.5,94T357,757q66,0 114.5-27.5t75.5-76T574,541q0-49-14.5-95T519,357t-61-84L223,0H123ZM313,356q51,0 92,24.5t65.5,67T495,544q0,63-39,103T354,687q-49,0-90.5-25T197,594t-25-96q0-63 39-102.5T313,356Z" />
      <glyph unicode=":" glyph-name="gid186" horiz-adv-x="286" d="M65,0L81,110h80L145,0H65Zm60,426l16,110h80L205,426H125Z" />
      <glyph unicode=";" glyph-name="gid187" horiz-adv-x="306" d="M47-130l4,30q32,8 51,33.5T128,0H85l16,110h80L168,16q-8-58-39-96T47-130Zm98,556l16,110h80L225,426H145Z" />
      <glyph unicode="&lt;" glyph-name="gid247" horiz-adv-x="607" d="M503,39L120,234l10,68L567,497l-11-83L184,251l1,30L513,113L503,39Z" />
      <glyph unicode="=" glyph-name="gid245" horiz-adv-x="607" d="M87,331l11,75H548l-11-75H87ZM54,96l11,75H515L504,96H54Z" />
      <glyph unicode="&gt;" glyph-name="gid246" horiz-adv-x="607" d="M40,39l11,83L423,285l-1-30L94,423l10,74L487,302l-10-68L40,39Z" />
      <glyph unicode="?" glyph-name="gid191" horiz-adv-x="500" d="M186,214l2,10q14,66 45,113.5T309,425q25,23 50.5,46T402,522t17,63q0,41-29.5,71.5T304,687q-55,0-98-35t-58-93L78,574q13,55 46,96t80.5,64T309,757q58,0 100.5-23t66-61.5T499,589q0-48-22-85.5T422.5,435T359,375q-35-33-59-69t-33-82l-2-10H186ZM158,0l16,110h80L238,0H158Z" />
      <glyph unicode="@" glyph-name="gid222" horiz-adv-x="931" d="M446-207q-84,0-155,29T168-97T87,25T58,177q0,92 33,172t92.5,141T323,585.5T497,620q87,0 159-30.5t124.5-84t81-122.5T890,237q0-68-22-121.5T806.5,31T712,0q-32,0-60,11.5t-46,33T583,96l15-13q-17-27-42-45.5t-55-28T438,0q-56,0-99,25.5t-67.5,70T247,196q0,63 29,115.5t79.5,84T468,427q49,0 89.5-20T620,351l-8-12l12,78h65L652,161q-5-35 3.5-55t25-28T715,70q47,0 73.5,44T815,233q0,93-39.5,164.5T665,509.5T499,550q-78,0-145-28.5t-116.5-79T160.5,326T133,184q0-92 40-164.5T285.5-95T453-137q44,0 87,9.5T619-99l27-60q-43-23-94-35.5T446-207ZM445,70q41,0 73.5,21t52,56.5T590,226q0,57-35,93t-90,36q-42,0-74-21t-50.5-55.5T322,203q0-58 35-95.5T445,70Z" />
      <glyph unicode="A" glyph-name="gid1" horiz-adv-x="652" d="M-27,0L349,745h86L603,0H522L483,182H151L61,0H-27ZM188,257H467L375,685l24-3L188,257Z" />
      <glyph unicode="B" glyph-name="gid10" horiz-adv-x="700" d="M51,0L155,745H455q88,0 138.5-46.5T644,573q0-40-15-76t-43-63.5T519,390l-2,22q58-22 89.5-69T638,239q0-70-33-124T513.5,30.5T378,0H51Zm90,75H386q51,0 90,20t60.5,56T558,234q0,56-38.5,90T416,358H181L141,75Zm50,355H416q43,0 76,18.5t52,50T563,570q0,48-33,74t-89,26H225L191,430Z" />
      <glyph unicode="C" glyph-name="gid11" horiz-adv-x="796" d="M417-12q-70,0-131,24T179,82T107,193.5T81,342q0,87 29,162t81,132t122.5,89T466,757q79,0 138.5-27.5t98-70.5T756,570l-77-31q-24,65-78,104T465,682q-66,0-121.5-25.5T247,585T183.5,477T161,342q0-84 32.5-147T284,97.5T418,63q83,0 143.5,39.5T655,207l73-35q-21-46-65.5-88.5T556,14.5T417-12Z" />
      <glyph unicode="D" glyph-name="gid13" horiz-adv-x="745" d="M51,0L155,745H387q102,0 175.5-42.5T676,586t40-171q0-91-27.5-167t-80-131.5t-127-86T314,0H51Zm90,75H317q70,0 127.5,24T544,167.5T609,273t23,134q0,81-30.5,140T514,638T379,670H225L141,75Z" />
      <glyph unicode="E" glyph-name="gid15" horiz-adv-x="613" d="M51,0L155,745H635l-10-75H225L188,411H568l-10-75H178L141,75H541L531,0H51Z" />
      <glyph unicode="F" glyph-name="gid20" horiz-adv-x="582" d="M51,0L155,745H615l-10-75H225L188,411H538l-10-75H178L131,0H51Z" />
      <glyph unicode="G" glyph-name="gid21" horiz-adv-x="827" d="M415-12q-72,0-133,25T176,85T106,197.5T81,343q0,89 30.5,164.5T195,639t123.5,87T468,757q77,0 136-27t98-69.5T756,571l-74-35q-23,68-79,107T465,682q-67,0-123-26t-96.5-72T183,477T161,346q0-86 33-149.5T286,98T423,63q74,0 133,32t96.5,88T698,310l5,41l31-36H438l9,70H785l-6-62q-7-73-37.5-134.5T662,82T550,12.5T415-12Z" />
      <glyph unicode="H" glyph-name="gid22" horiz-adv-x="737" d="M51,0L155,745h80L188,410H588l47,335h80L611,0H531l47,335H178L131,0H51Z" />
      <glyph unicode="I" glyph-name="gid23" horiz-adv-x="257" d="M51,0L155,745h80L131,0H51Z" />
      <glyph unicode="J" glyph-name="gid28" horiz-adv-x="383" d="M18,0L29,80H59q59,0 99.5,33.5T206,205l76,540h80L286,205q-8-63-39-109T167.5,25T58,0H18Z" />
      <glyph unicode="K" glyph-name="gid29" horiz-adv-x="655" d="M51,0L155,745h80L174,310l-20,9L589,745H692L343,403l12,57L606,0H516L311,371L162,225L131,0H51Z" />
      <glyph unicode="L" glyph-name="gid30" horiz-adv-x="532" d="M51,0L155,745h80L141,75H471L461,0H51Z" />
      <glyph unicode="M" glyph-name="gid31" horiz-adv-x="837" d="M51,0L155,745h70L444,339H403L745,745h70L711,0H631l89,637l30-10L415,230h-4L198,627l22,10L131,0H51Z" />
      <glyph unicode="N" glyph-name="gid32" horiz-adv-x="737" d="M51,0L155,745h70L569,118H547l88,627h80L611,0H541L197,631h22L131,0H51Z" />
      <glyph unicode="O" glyph-name="gid34" horiz-adv-x="881" d="M430-12q-74,0-137.5,26t-111,73t-74,113T81,345q0,85 30,159.5T195,636t126.5,89T479,757q75,0 138.5-26t111-73.5t74-113T829,400q0-85-30.5-159.5T714,109T587,20T430-12Zm1,75q69,0 127,27t101,74t66.5,107T749,398q0,80-33.5,144t-94,102T479,682q-69,0-127-27T251,581T184.5,474T161,347q0-79 34-143.5T289.5,101T431,63Z" />
      <glyph unicode="P" glyph-name="gid42" horiz-adv-x="642" d="M51,0L155,745H399q68,0 118-27t77-75.5T621,528q0-68-33-122t-91.5-85T359,290H171L131,0H51ZM182,365H363q53,0 93,21.5T518.5,445T541,530q0,66-39.5,103T395,670H225L182,365Z" />
      <glyph unicode="Q" glyph-name="gid44" horiz-adv-x="881" d="M430-12q-74,0-137.5,26t-111,73t-74,113T81,345q0,85 30,159.5T195,636t126.5,89T479,757q75,0 138.5-26t111-73.5t74-113T829,400q0-85-30.5-159.5T714,109T587,20T430-12Zm1,75q69,0 127,27t101,74t66.5,107T749,398q0,80-33.5,144t-94,102T479,682q-69,0-127-27T251,581T184.5,474T161,347q0-79 34-143.5T289.5,101T431,63ZM609-90L399,298h85L694-90H609Z" />
      <glyph unicode="R" glyph-name="gid45" horiz-adv-x="642" d="M51,0L155,745H399q68,0 118-27t77-75.5T621,528q0-56-22-102.5T536.5,347T441,300L571,0H482L344,323l50-33H171L131,0H51ZM182,365H363q53,0 93,21.5T518.5,445T541,530q0,66-39.5,103T395,670H225L182,365Z" />
      <glyph unicode="S" glyph-name="gid46" horiz-adv-x="647" d="M311-12q-67,0-122.5,25.5T95,84.5T44,190l74,23q17-76 69-114.5T317,60q56,0 94.5,18.5t58.5,50T490,199q0,44-26,72.5T388,315L258,355q-70,22-107.5,70T113,537q0,60 31,110t86,80t127,30q66,0 117-25t84-65.5T602,577l-72-24q-15,62-60.5,97T357,685q-48,0-85.5-18T213,617.5T192,544q0-40 25-71.5T296,424l114-35q80-25 120-73t40-113q0-56-31-105.5T450.5,18T311-12Z" />
      <glyph unicode="T" glyph-name="gid47" horiz-adv-x="513" d="M180,0l94,670H68l10,75H568l-10-75H354L260,0H180Z" />
      <glyph unicode="U" glyph-name="gid48" horiz-adv-x="700" d="M319-12q-81,0-137.5,33.5T98.5,113T82,245l70,500h81L163,243q-7-54 10.5-94.5t56-63T323,63t99.5,22.5t74,63T533,243l70,502h79L611,241q-10-74-49.5-131T460,20.5T319-12Z" />
      <glyph unicode="V" glyph-name="gid53" horiz-adv-x="652" d="M246,0L78,745h80L303,71H286L620,745h88L330,0H246Z" />
      <glyph unicode="W" glyph-name="gid54" horiz-adv-x="984" d="M188,0L78,745h79L249,78H230L517,745h83L696,78H675L957,745h83L722,0H637L540,670h20L273,0H188Z" />
      <glyph unicode="X" glyph-name="gid55" horiz-adv-x="597" d="M-27,0L268,380L85,745h84L337,407l-37,3L547,745h96L362,371L548,0H464L294,343l38-4L67,0H-27Z" />
      <glyph unicode="Y" glyph-name="gid56" horiz-adv-x="623" d="M235,0l48,346L78,745h84L343,396l-32,4L584,745h95L364,346L316,0H235Z" />
      <glyph unicode="Z" glyph-name="gid58" horiz-adv-x="585" d="M-15,0l7,54L499,670H104l10,75H620l-7-54L106,75H535L525,0H-15Z" />
      <glyph unicode="[" glyph-name="gid208" horiz-adv-x="316" d="M31-140L155,745H355l-9-70H226L121-70H241l-10-70H31Z" />
      <glyph unicode="\" glyph-name="gid199" horiz-adv-x="425" d="M284-120L62,705h83L367-120H284Z" />
      <glyph unicode="]" glyph-name="gid209" horiz-adv-x="315" d="M-30-140l10,70H100L205,675H85l9,70H294L170-140H-30Z" />
      <glyph unicode="^" glyph-name="gid251" horiz-adv-x="607" d="M122,425L335,745h70L530,425H447L350,684h34L212,425H122Z" />
      <glyph unicode="_" glyph-name="gid203" horiz-adv-x="598" d="M26-70L36,0H486L476-70H26Z" />
      <glyph unicode="`" glyph-name="gid278" horiz-adv-x="352" d="M268,640L176,790H279l65-150H268Z" />
      <glyph unicode="a" glyph-name="gid59" horiz-adv-x="573" d="M209-12q-44,0-83,16T62.5,52.5T38,134q0,45 22.5,81T125,275t101,33l215,35l-7-68L240,243q-57-10-89.5-37.5T118,138q0-37 27.5-59.5T219,56q50,0 92,24t70,64.5T415,234l17,125q6,40-10,66t-44.5,38.5T316,476q-51,0-90.5-25.5T163,386L98,427q19,34 52.5,61.5T228,532t93,16q58,0 103-24.5T492.5,456T508,356L458,0H382l15,107l13-13q-18-31-49-55T291,1.5T209-12Z" />
      <glyph unicode="b" glyph-name="gid67" horiz-adv-x="666" d="M328-12q-70,0-127.5,32.5T117,110l15,10L116,0H40L146,757h76L174,416l-25,22q35,51 90.5,80.5T363,548q75,0 131-34.5t86.5-93T611,289q0-61-21-115.5T530.5,77t-90-65.5T328-12Zm-2,75q59,0 105,31t73,82t27,111q0,54-22.5,96t-62,66T354,473q-59,0-105.5-30.5T176,362T150,253q0-55 23-98t62.5-67.5T326,63Z" />
      <glyph unicode="c" glyph-name="gid68" horiz-adv-x="612" d="M301-12q-72,0-127.5,34T87,115T56,249q0,63 21.5,117.5t60,95.5t90,63.5T338,548q52,0 95.5-17.5T509,482t47-72l-69-33q-17,43-56,69.5T339,473q-59,0-105-31.5T162,359T136,249q0-54 22-96t61-66t88-24q54,0 97,27.5T471,163l66-39q-21-40-56.5-70.5T399,5.5T301-12Z" />
      <glyph unicode="d" glyph-name="gid70" horiz-adv-x="669" d="M302-12q-72,0-128,33.5t-87.5,92T55,247q0,62 21,116.5t59,96t89.5,65T337,548q74,0 127-31t82-85l-10-16l47,341h76L554,0H479l16,120l22-12q-31-58-89-89T302-12Zm5,75q59,0 106.5,31T489,176t28,110q0,54-23,96t-63,66.5T340,473q-59,0-105.5-31t-73-82.5T135,247q0-53 22-94.5T218,87t89-24Z" />
      <glyph unicode="e" glyph-name="gid72" horiz-adv-x="617" d="M305-12q-72,0-128,33.5T88.5,114T56,249q0,61 20.5,115t58,95.5t87.5,65T332,548q74,0 126-34t79-88.5T564,310q0-16-3-35t-5-30H103l5,70H518l-38-29q14,53-3.5,96.5t-56,69.5T331,478q-64,0-108-31t-66.5-86.5T134,232q0-53 24-92.5T221,79t85-21q59,0 101.5,28.5T478,157l63-36q-19-36-54-66.5T405.5,6T305-12Z" />
      <glyph unicode="f" glyph-name="gid77" horiz-adv-x="396" d="M94,0l64,461H52l11,75H169l6,40q9,61 39,101t71.5,60T370,757q14,0 27.5-1.5T421,752l-5-68q-7,2-18.5,2.5T382,687q-49,0-86-25t-46-90l-5-36H376l-11-75H234L170,0H94Z" />
      <glyph unicode="g" glyph-name="gid78" horiz-adv-x="663" d="M270-220q-58,0-103,17.5T92.5-155T50-86l70,29q12-35 50-61.5T278-145q45,0 87,17t72,51.5T474,12l18,128l22-12q-31-58-88.5-89T302,8Q235,8 179,39.5t-89,88T57,259q0,59 21,111.5T137.5,463T227,525.5T338,548q69,0 121.5-30.5T541,436l-10-20l16,120h76L550,10q-9-69-49-121T401-191.5T270-220ZM308,83q56,0 102.5,29.5T485,190t28,103q0,51-22,92t-61,64.5T340,473q-54,0-100.5-28T165,369.5T137,262q0-51 22.5-91.5t61.5-64T308,83Z" />
      <glyph unicode="h" glyph-name="gid79" horiz-adv-x="574" d="M40,0L146,757h75L176,432l-17,6q26,52 75.5,81T342,548t100.5-27t63-75T517,336L470,0H394l46,331q9,65-23,103.5T326,473q-41,0-76.5-19t-59-54T160,317L116,0H40Z" />
      <glyph unicode="i" glyph-name="gid80" horiz-adv-x="231" d="M40,0l75,536h76L116,0H40Zm89,635l15,110h76L205,635H129Z" />
      <glyph unicode="j" glyph-name="gid87" horiz-adv-x="232" d="M-81-220q-8,0-23,1.5t-23,3.5l6,68q11-1 21.5-2t18.5-1q42,0 75.5,26T35-48l82,584h76L110-52q-8-55-35.5-92.5T6.5-201T-81-220ZM131,635l15,110h76L207,635H131Z" />
      <glyph unicode="k" glyph-name="gid89" horiz-adv-x="547" d="M39,0L145,757h76L147,227l-38,5L452,536H556L315,321L498,0H413L240,297l44-4L108,135l34,62L115,0H39Z" />
      <glyph unicode="l" glyph-name="gid90" horiz-adv-x="231" d="M40,0L146,757h76L116,0H40Z" />
      <glyph unicode="m" glyph-name="gid91" horiz-adv-x="909" d="M40,0l75,536h75l-13-99l-9,15q28,46 73,71t96,25q63,0 108-35t58-94l-20,1q27,64 81.5,96T678,548q56,0 98-27t63.5-75T852,336L805,0H730l46,331q6,44-6.5,75.5t-39,49T666,473q-37,0-71.5-17T536,407t-30-77L460,0H385l46,331q6,44-6.5,75.5t-39,49T321,473q-39,0-73.5-19t-58-54T159,317L115,0H40Z" />
      <glyph unicode="n" glyph-name="gid92" horiz-adv-x="574" d="M40,0l75,536h75L176,432l-17,6q26,52 75.5,81T342,548t100.5-27t63-75T517,336L470,0H395l46,331q9,65-23,103.5T326,473q-42,0-77.5-19t-59-54T159,317L115,0H40Z" />
      <glyph unicode="o" glyph-name="gid94" horiz-adv-x="658" d="M314-12q-72,0-130.5,33.5T90.5,115T56,253q0,61 22,114.5t61.5,94t92,63.5T344,548q74,0 132.5-33.5T569,422t34-136q0-61-22.5-115T518,75.5T426,11T314-12Zm-1,75q59,0 106.5,31T495,176t28,111q0,54-23,96t-63.5,66T345,473q-58,0-105.5-30.5T164,362T136,251q0-54 23-96.5t63-67T313,63Z" />
      <glyph unicode="p" glyph-name="gid102" horiz-adv-x="666" d="M12-200L115,536h76L174,416l-25,22q35,51 90.5,80.5T363,548q75,0 131-34.5t86.5-93T611,289q0-61-21-115.5T530.5,77t-90-65.5T328-12q-70,0-127.5,32.5T117,110l15,10L88-200H12ZM326,63q59,0 105,31t73,82t27,111q0,54-22.5,96t-62,66T354,473q-59,0-105.5-30.5T176,362T150,253q0-55 23-98t62.5-67.5T326,63Z" />
      <glyph unicode="q" glyph-name="gid104" horiz-adv-x="670" d="M452-200l43,320l22-12q-31-58-89-89T302-12q-72,0-128,33.5t-87.5,92T55,247q0,62 21,116.5t59,96t89.5,65T337,548q74,0 127-31t82-85l-10-16l17,120h76L527-200H452ZM307,63q59,0 106.5,31T489,176t28,110q0,54-23,96t-63,66.5T340,473q-59,0-105.5-31t-73-82.5T135,247q0-53 22-94.5T218,87t89-24Z" />
      <glyph unicode="r" glyph-name="gid105" horiz-adv-x="338" d="M40,0l75,536h76l-12-88l-10,13q25,38 66.5,60T332,543h34l-11-75H308q-58,0-97.5-37T160,320L116,0H40Z" />
      <glyph unicode="s" glyph-name="gid106" horiz-adv-x="510" d="M235-12q-51,0-94,18T68,57.5T25,135l65,26q18-49 58.5-77T242,56q51,0 84,26.5T359,149q0,27-19.5,45.5T279,224l-75,21q-62,17-94,52.5T78,382q0,46 26,83.5t70,60T271,548q71,0 123-37t68-99l-66-26q-16,46-49,70t-80,24q-49,0-80-25t-31-63q0-27 16.5-45T226,318l86-26q60-18 92.5-54T437,152q0-46-26.5-83T338,10T235-12Z" />
      <glyph unicode="t" glyph-name="gid108" horiz-adv-x="390" d="M248-6Q175-6 141,37T117,158l42,303H60l11,75H94q34,0 58.5,23.5T181,617l6,43h76L246,536H363l-11-75H235L192,154q-4-27 0.5-47.5T214,75t49-11q10,0 21,1t19,2L297-2q-12-3-26.5-3.5T248-6Z" />
      <glyph unicode="u" glyph-name="gid109" horiz-adv-x="574" d="M232-12q-57,0-100,27.5T69,93T58,210l46,326h75L132,205q-6-43 7-75t41-49.5T248,63q42,0 77,19t58.5,54T414,219l45,317h75L459,0H384l14,104l17-6q-27-52-75.5-81T232-12Z" />
      <glyph unicode="v" glyph-name="gid114" horiz-adv-x="517" d="M182,0L49,536h80L239,66H213L456,536h88L257,0H182Z" />
      <glyph unicode="w" glyph-name="gid115" horiz-adv-x="797" d="M157,0L49,536h80L216,67H186L397,536h75L550,67H519L737,536h87L564,0H489L415,459h24L232,0H157Z" />
      <glyph unicode="x" glyph-name="gid116" horiz-adv-x="490" d="M-27,0L201,272L56,536h86L271,301l-43,4L418,536h99L292,265L439,0H352L224,236l37-4L69,0H-27Z" />
      <glyph unicode="y" glyph-name="gid117" horiz-adv-x="536" d="M23-220q-17,0-34,3t-32,9l6,69q10-1 24.5-3.5T17-145q34,0 57.5,9.5T118-104t42,60l46,78L196-32L49,537h79L247,67H222L478,537h85L233-70q-21-39-50.5-73.5T114-199T23-220Z" />
      <glyph unicode="z" glyph-name="gid120" horiz-adv-x="450" d="M-15,0l8,65L374,488l12-27H66l11,75H463l-8-65L75,48L63,75H400L390,0H-15Z" />
      <glyph unicode="{" glyph-name="gid206" horiz-adv-x="318" d="M199-140q-64,0-98.5,38.5T75,1l27,193q5,33-8,53T48,267H20l10,70H58q32,0 51,20t23,53l27,194q9,64 54.5,102.5T323,745h34l-10-70H313q-29,0-49-19.5T239,604L214,414q-4-33-20.5-62T149,302q21-20 29.5-49t3.5-61L154,1q-4-31 10-51t45-20h34l-10-70H199Z" />
      <glyph unicode="|" glyph-name="gid232" horiz-adv-x="301" d="M46-190L192,845h80L126-190H46Z" />
      <glyph unicode="}" glyph-name="gid207" horiz-adv-x="317" d="M-30-140l10,70H14q30,0 50.5,19.5T89,1l25,191q5,32 21,61t43,49q-21,20-29.5,48.5T145,414l28,190q5,32-10,51.5T119,675H85l9,70h34q65,0 99.5-38.5T253,604L225,410q-4-33 8.5-53T279,337h28l-10-70H269q-32,0-50.5-20T195,194L168,1q-9-64-54-102.5T4-140H-30Z" />
      <glyph unicode="~" glyph-name="gid249" horiz-adv-x="607" d="M399,220q-33,0-55.5,10.5t-40,24.5t-35,24.5T227,290q-31,0-53-18.5T142,221H75q8,63 50.5,101T220,360q34,0 56.5-10.5T316,325t34.5-24.5T392,290q27,0 48,17t32,52h67q-8-63-47.5-101T399,220Z" />
      <glyph unicode="&#xa0;" glyph-name="gid179" horiz-adv-x="170" />
      <glyph unicode="&#xa1;" glyph-name="gid190" horiz-adv-x="283" d="M35-209l79,531h70L115-209H35Zm89,635l15,110h80L204,426H124Z" />
      <glyph unicode="&#xa2;" glyph-name="gid234" horiz-adv-x="611" d="M315,93q-72,0-127.5,34T101,220T70,354q0,63 21.5,117.5t60,95.5t90,63.5T352,653q52,0 95.5-17.5T523,587t47-72l-69-33q-17,43-56,69.5T353,578q-59,0-105-31.5T176,464T150,354q0-54 22-96t61-66t88-24q54,0 97,27.5T485,268l66-39q-21-40-56.5-70.5t-81.5-48T315,93ZM244,0L349,745h71L315,0H244Z" />
      <glyph unicode="&#xa3;" glyph-name="gid238" horiz-adv-x="644" d="M8,0l9,70H117l67,472q9,65 44,113t89.5,75T439,757q62,0 107.5-24T617,665.5T641,561l-74-12q2,68-33,103t-97,35q-71,0-117-40T264,538L198,70H536L527,0H8ZM55,346l10,65H414l-10-65H55Z" />
      <glyph unicode="&#xa4;" glyph-name="gid235" horiz-adv-x="602" d="M86,30L42,79l84,76q-13,21-19.5,45T100,249q0,35 13,69.5T150,383L82,459l54,49l68-76q28,18 58.5,27.5T322,469t58-9.5T432,432l84,76l44-49l-84-76q13-22 19.5-45.5T502,289q0-35-13-70t-37-64l68-76L466,30l-68,76q-26-17-56-27T280,69q-28,0-57,9t-53,28L86,30ZM288,145q37,0 68,19t50.5,50.5T426,282q0,32-15,57t-40,40t-57,15q-37,0-68.5-19.5t-51-50.5T175,256q0-31 15-56.5t40.5-40T288,145Z" />
      <glyph unicode="&#xa5;" glyph-name="gid239" horiz-adv-x="623" d="M235,0l48,346L78,745h84L343,396l-32,4L584,745h95L364,346L316,0H235ZM142,308l9,65H500l-9-65H142ZM120,153l9,65H478l-9-65H120Z" />
      <glyph unicode="&#xa6;" glyph-name="gid233" horiz-adv-x="301" d="M133,428l59,417h80L213,428H133ZM46-190l59,418h80L126-190H46Z" />
      <glyph unicode="&#xa7;" glyph-name="gid225" horiz-adv-x="529" d="M227-105q-81,0-137.5,41T13,47L81,78q20-52 60-82.5T234-35q37,0 66.5,13t47,35.5T365,64q0,26-14.5,42T316,131t-37,14l-79,24q-69,21-100.5,56.5T68,307q0,50 27.5,90.5T170,462t105,24l-8-50q-33,0-59.5-14t-42-38.5T150,328q0-27 12.5-44T193,258.5T225,245l91-28q61-19 95-56.5T445,72q0-50-28.5-90t-78-63.5T227-105Zm29,271l5,50q37,0 67,15t47.5,40T393,327q0,28-14.5,45.5t-34,28T308,416l-80,24q-70,21-100.5,57T97,578q0,50 27.5,90.5T199,733t105,24q70,0 124.5-37.5T500,617l-68-31q-17,47-54,74t-85,27q-33,0-59-12.5t-41-34T178,591q0-25 12.5-40T221,528.5T253,516l91-28q61-19 95-56.5T473,343q0-50-28.5-90T367,189.5T256,166Z" />
      <glyph unicode="&#xa8;" glyph-name="gid277" horiz-adv-x="436" d="M155,640l14,100H269L255,640H155Zm180,0l14,100H449L435,640H335Z" />
      <glyph unicode="&#xa9;" glyph-name="gid226" horiz-adv-x="898" d="M439-12q-77,0-143,27.5T181,92T105,206T78,347q0,84 32.5,158T200,635.5t131,89T489,757q77,0 142.5-27.5t114.5-77T822,538t27-140q0-85-33-159T726,108.5T595,20T439-12Zm1,70q69,0 130,26.5t108,73t74,108T779,398q0,61-22,113.5t-61,92T604,665T488,687q-70,0-131.5-26.5T248,587.5t-73.5-108T148,348q0-82 38-148T290,96T440,58Zm17,105q-56,0-99,25t-67,69.5T267,358q0,65 29,115.5T374,553t109,29q43,0 77-15t56.5-39T647,476l-63-28q-10,29-35.5,49.5T482,518t-74-20.5T356.5,441T338,357q0-58 32.5-94T458,227q40,0 70,20.5T572,299l61-32q-12-28-37.5-51.5t-61-38T457,163Z" />
      <glyph unicode="&#xaa;" glyph-name="gid126" horiz-adv-x="456" d="M207,361q-51,0-87,26T84,464q0,34 17,59.5T149.5,565T222,588l138,23l-6-60L233,530q-31-5-51.5-21T161,468q0-22 16.5-35T221,420q32,0 57.5,15T321,474.5T342,529l12,92q5,35-18.5,52T282,690q-34,0-60-17.5T182,629l-60,35q20,41 65,66t100,25q43,0 77-17.5T416,689t12-72L393,369H322l9,70l17-5q-23-35-60-54t-81-19Z" />
      <glyph unicode="&#xab;" glyph-name="gid216" horiz-adv-x="546" d="M154,79L29,269L209,459h95L118,261L238,79H154Zm240,0L269,269L449,459h95L358,261L478,79H394Z" />
      <glyph unicode="&#xac;" glyph-name="gid250" horiz-adv-x="607" d="M447,40l24,173H46l10,75H556L522,40H447Z" />
      <glyph unicode="&#xae;" glyph-name="gid227" horiz-adv-x="641" d="M341,272q-68,0-123,32t-86.5,86.5T100,512q0,56 21.5,105T181,703.5t87.5,59T373,784q68,0 122.5-32T582,665.5T614,544q0-55-22-104.5t-60-87t-87-59T341,272Zm0,58q58,0 107,29t78.5,78T556,545q0,52-24,92.5T466.5,702T373,726q-58,0-107.5-29t-79-77.5T157,512q0-52 24-93t66-65t94-24ZM240,394l38,270h99q39,0 64.5-20.5T467,583q0-30-13-51t-36-32l53-106H407l-46,95H313l-13-95H240Zm80,147h49q17,0 29,12t12,28q0,14-10,22.5T375,612H330l-10-71Z" />
      <glyph unicode="&#xaf;" glyph-name="gid283" horiz-adv-x="440" d="M158,660l10,70H438l-10-70H158Z" />
      <glyph unicode="&#xb0;" glyph-name="gid229" horiz-adv-x="483" d="M276,440q-43,0-76.5,19t-53,52T127,586q0,48 23,86.5T212,734t87,23q43,0 76.5-19t53-52.5T448,610q0-47-23-85.5T363,463t-87-23Zm4,62q30,0 53.5,14T371,553.5T385,606q0,40-27,64.5T293,695q-43,0-73-30.5T190,590q0-40 26-64t64-24Z" />
      <glyph unicode="&#xb1;" glyph-name="gid248" horiz-adv-x="607" d="M250,145l24,173H61l11,75H285l24,172h75L361,393H572l-11-75H350L326,145H250ZM16,0L27,75H527L516,0H16Z" />
      <glyph unicode="&#xb2;" glyph-name="gid176" horiz-adv-x="441" d="M48,223l5,55L213,432q48,46 77,76t42.5,54T346,614q0,32-21,51t-57,19q-40,0-70-23t-46-65L85,618q20,62 70,98.5T270,753q45,0 79.5-16.5t54-46T423,620q0-37-15-68.5t-42-62T303,425L159,289H401l-9-66H48Z" />
      <glyph unicode="&#xb3;" glyph-name="gid177" horiz-adv-x="435" d="M215,215q-42,0-78.5,15T76,272.5T44,337l68,26q11-40 40-60t67-20q50,0 82.5,30.5T334,392q0,44-26.5,68.5T237,485q-10,0-23-2t-24-6l-13,36L333,679H106l9,66H431l-7-63L273,520l-5,23q44,0 76-20t49.5-53.5T411,394q0-52-26.5-92.5t-71-63.5T215,215Z" />
      <glyph unicode="&#xb4;" glyph-name="gid279" horiz-adv-x="352" d="M155,640L264,790H367L231,640H155Z" />
      <glyph unicode="&#xb5;" glyph-name="gid252" horiz-adv-x="574" d="M9-140l95,676h76L133,205q-6-43 6.5-75T180,80.5T248,63q42,0 77,19t58.5,54T414,219l45,317h75L459,0H384l13,102l10-17q-27-46-73.5-71.5T232-12q-43,0-78.5,16.5T94,48l19,19L85-140H9Z" />
      <glyph unicode="&#xb6;" glyph-name="gid224" horiz-adv-x="398" d="M156-100l73,523q-45,0-78,21.5T102,503T92,584q6,45 32.5,81.5t65.5,58T274,745h80L236-100H156Z" />
      <glyph unicode="&#xb7;" glyph-name="gid193" horiz-adv-x="286" d="M95,213l16,110h80L175,213H95Z" />
      <glyph unicode="&#xb8;" glyph-name="gid284" horiz-adv-x="382" d="M137-230q-29,0-56,10T38-193l28,53q14-14 32-22t37-8q23,0 39,13.5T190-123q0,21-23,32.5T100-74l36,84h54L170-38q46-10 69-31t23-53q0-30-17-54.5t-45-39T137-230Z" />
      <glyph unicode="&#xb9;" glyph-name="gid175" horiz-adv-x="304" d="M114,223l64,455H79l9,67H265L192,223H114Z" />
      <glyph unicode="&#xba;" glyph-name="gid127" horiz-adv-x="505" d="M282,361q-52,0-94,24t-67,66T96,547q0,58 28,105t75.5,75T304,755q53,0 95-23.5T465.5,666T490,570q0-58-28-105.5T386.5,389T282,361Zm0,69q37,0 66.5,19t47,51.5T413,571q0,50-31,82.5T304,686q-37,0-66.5-19t-47-50.5T173,546q0-33 14-59.5T225.5,445T282,430Z" />
      <glyph unicode="&#xbb;" glyph-name="gid217" horiz-adv-x="546" d="M242,79L428,277L308,459h84L517,269L337,79H242ZM2,79L188,277L68,459h84L277,269L97,79H2Z" />
      <glyph unicode="&#xbc;" glyph-name="gid170" horiz-adv-x="887" d="M110,328l49,355H80l8,62H241L183,328H110ZM85,0L635,745h87L172,0H85ZM680,0l14,93H499l8,60L735,417h75L773,153h59l-9-60H764L752,0H680ZM557,127l-8,26H702l29,207l20-6L557,127Z" />
      <glyph unicode="&#xbd;" glyph-name="gid169" horiz-adv-x="859" d="M110,328l49,355H80l8,62H241L183,328H110ZM85,0L635,745h87L172,0H85ZM501,0l5,54L631,173q39,37 61,59.5t31.5,40T733,309q0,23-15,36.5T677,359q-28,0-50-17t-34-47l-62,22q16,50 57,78.5T681,424q54,0 89.5-29.5T806,315q0-31-13.5-57T758,209.5T714,165L603,62H788L779,0H501Z" />
      <glyph unicode="&#xbe;" glyph-name="gid171" horiz-adv-x="976" d="M196,321q-33,0-63,12T83,368T57,422l65,23q8-29 29-44t49-15q37,0 60.5,23T284,466q0,31-19.5,48.5T213,532q-9,0-21-2t-21-6l-13,34L281,684H107l8,61H373l-7-58L245,561l-2,25q53-1 83-34.5T356,468q0-43-22-76t-58.5-52T196,321ZM174,0L724,745h87L261,0H174ZM769,0l14,93H588l8,60L824,417h75L862,153h59l-9-60H853L841,0H769ZM646,127l-8,26H791l29,207l20-6L646,127Z" />
      <glyph unicode="&#xbf;" glyph-name="gid192" horiz-adv-x="500" d="M191-221q-57,0-100,23.5T24.5-136T1-53Q1-5 23,32.5T77.5,101T141,161q35,33 59,69t33,82l2,10h79l-2-10q-13-66-44.5-113T191,111q-25-22-50.5-45.5T98,14.5T81-49q0-40 30-71t85-31q56,0 98.5,35T352-23l70-15q-13-55-46-96t-80.5-64T191-221Zm55,647l16,110h80L326,426H246Z" />
      <glyph unicode="&#xc0;" glyph-name="gid6" horiz-adv-x="652" d="M-27,0L349,745h86L603,0H522L483,182H151L61,0H-27ZM188,257H467L375,685l24-3L188,257ZM369,849L277,999H380l65-150H369Z" />
      <glyph unicode="&#xc1;" glyph-name="gid2" horiz-adv-x="652" d="M-27,0L349,745h86L603,0H522L483,182H151L61,0H-27ZM188,257H467L375,685l24-3L188,257ZM369,849L478,999H581L445,849H369Z" />
      <glyph unicode="&#xc2;" glyph-name="gid4" horiz-adv-x="652" d="M-27,0L349,745h86L603,0H522L483,182H151L61,0H-27ZM188,257H467L375,685l24-3L188,257Zm32,592L362,999h84l99-150H463l-62,91l-87-91H220Z" />
      <glyph unicode="&#xc3;" glyph-name="gid8" horiz-adv-x="652" d="M-27,0L349,745h86L603,0H522L483,182H151L61,0H-27ZM188,257H467L375,685l24-3L188,257ZM466,849q-26,0-40.5,9.5t-24,22t-19.5,22T355,912q-15,0-27-13t-17-46H249q6,40 22,67.5T311,962t53,14q26,0 40.5-9.5t24-22t19.5-22t27-9.5q19,0 31.5,15.5T523,972h61q-8-56-40.5-89.5T466,849Z" />
      <glyph unicode="&#xc4;" glyph-name="gid5" horiz-adv-x="652" d="M-27,0L349,745h86L603,0H522L483,182H151L61,0H-27ZM188,257H467L375,685l24-3L188,257Zm80,592l14,100H382L368,849H268Zm180,0l14,100H562L548,849H448Z" />
      <glyph unicode="&#xc5;" glyph-name="gid7" horiz-adv-x="652" d="M-27,0L349,745h86L603,0H522L483,182H151L61,0H-27ZM188,257H467L375,685l24-3L188,257ZM405,829q-40,0-68,23.5T309,919q0,35 17,63t45.5,45t63.5,17q41,0 68.5-24.5T531,953q0-34-17-62.5t-45.5-45T405,829Zm8,54q25,0 42.5,18.5T473,945q0,20-12.5,32T428,989q-25,0-42.5-18T368,927q0-20 12.5-32T413,883Z" />
      <glyph unicode="&#xc6;" glyph-name="gid9" horiz-adv-x="985" d="M-27,0L349,745h658l-10-75H597L560,411H940l-10-75H550L513,75H913L903,0H423l25,182H151L61,0H-27ZM188,257H459l58,413H393L188,257Z" />
      <glyph unicode="&#xc7;" glyph-name="gid12" horiz-adv-x="796" d="M417-12q-70,0-131,24T179,82T107,193.5T81,342q0,87 29,162t81,132t122.5,89T466,757q79,0 138.5-27.5t98-70.5T756,570l-77-31q-24,65-78,104T465,682q-66,0-121.5-25.5T247,585T183.5,477T161,342q0-84 32.5-147T284,97.5T418,63q83,0 143.5,39.5T655,207l73-35q-21-46-65.5-88.5T556,14.5T417-12ZM397-230q-29,0-56,10t-43,27l28,53q14-14 32-22t37-8q23,0 39,13.5T450-123q0,21-23,32.5T360-74l36,84h54L430-38q46-10 69-31t23-53q0-30-17-54.5t-45-39T397-230Z" />
      <glyph unicode="&#xc8;" glyph-name="gid19" horiz-adv-x="613" d="M51,0L155,745H635l-10-75H225L188,411H568l-10-75H178L141,75H541L531,0H51ZM371,849L279,999H382l65-150H371Z" />
      <glyph unicode="&#xc9;" glyph-name="gid16" horiz-adv-x="613" d="M51,0L155,745H635l-10-75H225L188,411H568l-10-75H178L141,75H541L531,0H51ZM371,849L480,999H583L447,849H371Z" />
      <glyph unicode="&#xca;" glyph-name="gid17" horiz-adv-x="613" d="M51,0L155,745H635l-10-75H225L188,411H568l-10-75H178L141,75H541L531,0H51ZM222,849L364,999h84l99-150H465l-62,91l-87-91H222Z" />
      <glyph unicode="&#xcb;" glyph-name="gid18" horiz-adv-x="613" d="M51,0L155,745H635l-10-75H225L188,411H568l-10-75H178L141,75H541L531,0H51ZM270,849l14,100H384L370,849H270Zm180,0l14,100H564L550,849H450Z" />
      <glyph unicode="&#xcc;" glyph-name="gid27" horiz-adv-x="257" d="M51,0L155,745h80L131,0H51ZM172,849L80,999H183l65-150H172Z" />
      <glyph unicode="&#xcd;" glyph-name="gid24" horiz-adv-x="257" d="M51,0L155,745h80L131,0H51ZM172,849L281,999H384L248,849H172Z" />
      <glyph unicode="&#xce;" glyph-name="gid25" horiz-adv-x="257" d="M51,0L155,745h80L131,0H51ZM23,849L165,999h84l99-150H266l-62,91l-87-91H23Z" />
      <glyph unicode="&#xcf;" glyph-name="gid26" horiz-adv-x="257" d="M51,0L155,745h80L131,0H51ZM71,849L85,949H185L171,849H71Zm180,0l14,100H365L351,849H251Z" />
      <glyph unicode="&#xd0;" glyph-name="gid14" horiz-adv-x="745" d="M38,338l10,70H348l-10-70H38ZM51,0L155,745H387q102,0 175.5-42.5T676,586t40-171q0-91-27.5-167t-80-131.5t-127-86T314,0H51Zm90,75H317q70,0 127.5,24T544,167.5T609,273t23,134q0,81-30.5,140T514,638T379,670H225L141,75Z" />
      <glyph unicode="&#xd1;" glyph-name="gid33" horiz-adv-x="737" d="M51,0L155,745h70L569,118H547l88,627h80L611,0H541L197,631h22L131,0H51ZM509,849q-26,0-40.5,9.5t-24,22t-19.5,22T398,912q-15,0-27-13t-17-46H292q6,40 22,67.5T354,962t53,14q26,0 40.5-9.5t24-22t19.5-22t27-9.5q19,0 31.5,15.5T566,972h61q-8-56-40.5-89.5T509,849Z" />
      <glyph unicode="&#xd2;" glyph-name="gid38" horiz-adv-x="881" d="M430-12q-74,0-137.5,26t-111,73t-74,113T81,345q0,85 30,159.5T195,636t126.5,89T479,757q75,0 138.5-26t111-73.5t74-113T829,400q0-85-30.5-159.5T714,109T587,20T430-12Zm1,75q69,0 127,27t101,74t66.5,107T749,398q0,80-33.5,144t-94,102T479,682q-69,0-127-27T251,581T184.5,474T161,347q0-79 34-143.5T289.5,101T431,63Zm53,786L392,999H495l65-150H484Z" />
      <glyph unicode="&#xd3;" glyph-name="gid35" horiz-adv-x="881" d="M430-12q-74,0-137.5,26t-111,73t-74,113T81,345q0,85 30,159.5T195,636t126.5,89T479,757q75,0 138.5-26t111-73.5t74-113T829,400q0-85-30.5-159.5T714,109T587,20T430-12Zm1,75q69,0 127,27t101,74t66.5,107T749,398q0,80-33.5,144t-94,102T479,682q-69,0-127-27T251,581T184.5,474T161,347q0-79 34-143.5T289.5,101T431,63Zm53,786L593,999H696L560,849H484Z" />
      <glyph unicode="&#xd4;" glyph-name="gid36" horiz-adv-x="881" d="M430-12q-74,0-137.5,26t-111,73t-74,113T81,345q0,85 30,159.5T195,636t126.5,89T479,757q75,0 138.5-26t111-73.5t74-113T829,400q0-85-30.5-159.5T714,109T587,20T430-12Zm1,75q69,0 127,27t101,74t66.5,107T749,398q0,80-33.5,144t-94,102T479,682q-69,0-127-27T251,581T184.5,474T161,347q0-79 34-143.5T289.5,101T431,63ZM335,849L477,999h84l99-150H578l-62,91l-87-91H335Z" />
      <glyph unicode="&#xd5;" glyph-name="gid40" horiz-adv-x="881" d="M430-12q-74,0-137.5,26t-111,73t-74,113T81,345q0,85 30,159.5T195,636t126.5,89T479,757q75,0 138.5-26t111-73.5t74-113T829,400q0-85-30.5-159.5T714,109T587,20T430-12Zm1,75q69,0 127,27t101,74t66.5,107T749,398q0,80-33.5,144t-94,102T479,682q-69,0-127-27T251,581T184.5,474T161,347q0-79 34-143.5T289.5,101T431,63ZM581,849q-26,0-40.5,9.5t-24,22t-19.5,22T470,912q-15,0-27-13t-17-46H364q6,40 22,67.5T426,962t53,14q26,0 40.5-9.5t24-22t19.5-22t27-9.5q19,0 31.5,15.5T638,972h61q-8-56-40.5-89.5T581,849Z" />
      <glyph unicode="&#xd6;" glyph-name="gid37" horiz-adv-x="881" d="M430-12q-74,0-137.5,26t-111,73t-74,113T81,345q0,85 30,159.5T195,636t126.5,89T479,757q75,0 138.5-26t111-73.5t74-113T829,400q0-85-30.5-159.5T714,109T587,20T430-12Zm1,75q69,0 127,27t101,74t66.5,107T749,398q0,80-33.5,144t-94,102T479,682q-69,0-127-27T251,581T184.5,474T161,347q0-79 34-143.5T289.5,101T431,63ZM383,849l14,100H497L483,849H383Zm180,0l14,100H677L663,849H563Z" />
      <glyph unicode="&#xd7;" glyph-name="gid243" horiz-adv-x="607" d="M106,0L53,58L242,224L106,382l59,53L301,277L487,440l53-58L353,218L495,53L436,0L294,165L106,0Z" />
      <glyph unicode="&#xd8;" glyph-name="gid39" horiz-adv-x="881" d="M47,0L761,745H865L151,0H47ZM430-12q-74,0-137.5,26t-111,73t-74,113T81,345q0,85 30,159.5T195,636t126.5,89T479,757q75,0 138.5-26t111-73.5t74-113T829,400q0-85-30.5-159.5T714,109T587,20T430-12Zm1,75q69,0 127,27t101,74t66.5,107T749,398q0,80-33.5,144t-94,102T479,682q-69,0-127-27T251,581T184.5,474T161,347q0-79 34-143.5T289.5,101T431,63Z" />
      <glyph unicode="&#xd9;" glyph-name="gid52" horiz-adv-x="700" d="M319-12q-81,0-137.5,33.5T98.5,113T82,245l70,500h81L163,243q-7-54 10.5-94.5t56-63T323,63t99.5,22.5t74,63T533,243l70,502h79L611,241q-10-74-49.5-131T460,20.5T319-12Zm74,861L301,999H404l65-150H393Z" />
      <glyph unicode="&#xda;" glyph-name="gid49" horiz-adv-x="700" d="M319-12q-81,0-137.5,33.5T98.5,113T82,245l70,500h81L163,243q-7-54 10.5-94.5t56-63T323,63t99.5,22.5t74,63T533,243l70,502h79L611,241q-10-74-49.5-131T460,20.5T319-12Zm74,861L502,999H605L469,849H393Z" />
      <glyph unicode="&#xdb;" glyph-name="gid50" horiz-adv-x="700" d="M319-12q-81,0-137.5,33.5T98.5,113T82,245l70,500h81L163,243q-7-54 10.5-94.5t56-63T323,63t99.5,22.5t74,63T533,243l70,502h79L611,241q-10-74-49.5-131T460,20.5T319-12ZM244,849L386,999h84l99-150H487l-62,91l-87-91H244Z" />
      <glyph unicode="&#xdc;" glyph-name="gid51" horiz-adv-x="700" d="M319-12q-81,0-137.5,33.5T98.5,113T82,245l70,500h81L163,243q-7-54 10.5-94.5t56-63T323,63t99.5,22.5t74,63T533,243l70,502h79L611,241q-10-74-49.5-131T460,20.5T319-12ZM292,849l14,100H406L392,849H292Zm180,0l14,100H586L572,849H472Z" />
      <glyph unicode="&#xdd;" glyph-name="gid57" horiz-adv-x="623" d="M235,0l48,346L78,745h84L343,396l-32,4L584,745h95L364,346L316,0H235ZM355,849L464,999H567L431,849H355Z" />
      <glyph unicode="&#xde;" glyph-name="gid43" horiz-adv-x="654" d="M43,0L147,745h80L207,600H391q68,0 118-27t77-75.5T613,383q0-68-33-122t-91.5-85T351,145H143L123,0H43ZM154,220H355q53,0 93,21.5T510.5,300T533,385q0,66-39.5,103T387,525H196L154,220Z" />
      <glyph unicode="&#xdf;" glyph-name="gid107" horiz-adv-x="605" d="M30-150l97,692q10,67 44.5,115t87,74T372,757q58,0 100.5-20.5t66-57.5T562,592q0-37-14.5-79t-46-76.5T419,386l1,21q60-23 91.5-66T543,236q0-30-12-70.5t-42-78T405,25T267,0H216l9,70h48q57,0 94.5,16.5t58,42t29,54T463,234q0,59-37.5,92.5T317,360H266l10,70h41q48,0 80,17t50,42.5T473,541t8,44q0,47-29.5,74.5T369,687q-42,0-78-18.5t-59-52T202,538L106-150H30Z" />
      <glyph unicode="&#xe0;" glyph-name="gid63" horiz-adv-x="573" d="M209-12q-44,0-83,16T62.5,52.5T38,134q0,45 22.5,81T125,275t101,33l215,35l-7-68L240,243q-57-10-89.5-37.5T118,138q0-37 27.5-59.5T219,56q50,0 92,24t70,64.5T415,234l17,125q6,40-10,66t-44.5,38.5T316,476q-51,0-90.5-25.5T163,386L98,427q19,34 52.5,61.5T228,532t93,16q58,0 103-24.5T492.5,456T508,356L458,0H382l15,107l13-13q-18-31-49-55T291,1.5T209-12Zm92,652L209,790H312l65-150H301Z" />
      <glyph unicode="&#xe1;" glyph-name="gid60" horiz-adv-x="573" d="M209-12q-44,0-83,16T62.5,52.5T38,134q0,45 22.5,81T125,275t101,33l215,35l-7-68L240,243q-57-10-89.5-37.5T118,138q0-37 27.5-59.5T219,56q50,0 92,24t70,64.5T415,234l17,125q6,40-10,66t-44.5,38.5T316,476q-51,0-90.5-25.5T163,386L98,427q19,34 52.5,61.5T228,532t93,16q58,0 103-24.5T492.5,456T508,356L458,0H382l15,107l13-13q-18-31-49-55T291,1.5T209-12Zm92,652L410,790H513L377,640H301Z" />
      <glyph unicode="&#xe2;" glyph-name="gid61" horiz-adv-x="573" d="M209-12q-44,0-83,16T62.5,52.5T38,134q0,45 22.5,81T125,275t101,33l215,35l-7-68L240,243q-57-10-89.5-37.5T118,138q0-37 27.5-59.5T219,56q50,0 92,24t70,64.5T415,234l17,125q6,40-10,66t-44.5,38.5T316,476q-51,0-90.5-25.5T163,386L98,427q19,34 52.5,61.5T228,532t93,16q58,0 103-24.5T492.5,456T508,356L458,0H382l15,107l13-13q-18-31-49-55T291,1.5T209-12ZM152,640L294,790h84l99-150H395l-62,91l-87-91H152Z" />
      <glyph unicode="&#xe3;" glyph-name="gid65" horiz-adv-x="573" d="M209-12q-44,0-83,16T62.5,52.5T38,134q0,45 22.5,81T125,275t101,33l215,35l-7-68L240,243q-57-10-89.5-37.5T118,138q0-37 27.5-59.5T219,56q50,0 92,24t70,64.5T415,234l17,125q6,40-10,66t-44.5,38.5T316,476q-51,0-90.5-25.5T163,386L98,427q19,34 52.5,61.5T228,532t93,16q58,0 103-24.5T492.5,456T508,356L458,0H382l15,107l13-13q-18-31-49-55T291,1.5T209-12ZM398,640q-26,0-40.5,9.5t-24,22t-19.5,22T287,703q-15,0-27-13t-17-46H181q6,40 22,67.5T243,753t53,14q26,0 40.5-9.5t24-22t19.5-22t27-9.5q19,0 31.5,15.5T455,763h61q-8-56-40.5-89.5T398,640Z" />
      <glyph unicode="&#xe4;" glyph-name="gid62" horiz-adv-x="573" d="M209-12q-44,0-83,16T62.5,52.5T38,134q0,45 22.5,81T125,275t101,33l215,35l-7-68L240,243q-57-10-89.5-37.5T118,138q0-37 27.5-59.5T219,56q50,0 92,24t70,64.5T415,234l17,125q6,40-10,66t-44.5,38.5T316,476q-51,0-90.5-25.5T163,386L98,427q19,34 52.5,61.5T228,532t93,16q58,0 103-24.5T492.5,456T508,356L458,0H382l15,107l13-13q-18-31-49-55T291,1.5T209-12Zm-9,652l14,100H314L300,640H200Zm180,0l14,100H494L480,640H380Z" />
      <glyph unicode="&#xe5;" glyph-name="gid64" horiz-adv-x="573" d="M209-12q-44,0-83,16T62.5,52.5T38,134q0,45 22.5,81T125,275t101,33l215,35l-7-68L240,243q-57-10-89.5-37.5T118,138q0-37 27.5-59.5T219,56q50,0 92,24t70,64.5T415,234l17,125q6,40-10,66t-44.5,38.5T316,476q-51,0-90.5-25.5T163,386L98,427q19,34 52.5,61.5T228,532t93,16q58,0 103-24.5T492.5,456T508,356L458,0H382l15,107l13-13q-18-31-49-55T291,1.5T209-12ZM337,620q-40,0-68,23.5T241,710q0,35 17,63t45.5,45T367,835q41,0 68.5-24.5T463,744q0-34-17-62.5t-45.5-45T337,620Zm8,54q25,0 42.5,18.5T405,736q0,20-12.5,32T360,780q-25,0-42.5-18T300,718q0-20 12.5-32T345,674Z" />
      <glyph unicode="&#xe6;" glyph-name="gid66" horiz-adv-x="984" d="M209-12q-44,0-83,16T62.5,52.5T38,134q0,45 22.5,81T125,275t101,33l204,33l2,18q5,40-11,66t-44,38.5T316,476q-51,0-90.5-25.5T163,386L98,427q19,34 52.5,61.5T228,532t93,16q44,0 81-14.5T465.5,493T502,431l-23,2q38,53 94.5,84T699,548q74,0 126-34t79-88.5T931,310q0-16-3-35t-5-30H501q0-58 22-100t61-64.5T673,58q59,0 101.5,28.5T845,157l63-36q-19-36-54-66.5T772.5,6T672-12q-70,0-126,32.5T458,109l18,16L458,0H382l15,104l9-18q-20-30-50.5-52T288,0T209-12Zm10,68q50,0 92,24t70,64.5T415,234l5,39L240,243q-57-10-89.5-37.5T118,138q0-37 27.5-59.5T219,56ZM509,315H852q4,46-15.5,83t-56,58.5T698,478q-51,0-89.5-20T545,401.5T509,315Z" />
      <glyph unicode="&#xe7;" glyph-name="gid69" horiz-adv-x="612" d="M301-12q-72,0-127.5,34T87,115T56,249q0,63 21.5,117.5t60,95.5t90,63.5T338,548q52,0 95.5-17.5T509,482t47-72l-69-33q-17,43-56,69.5T339,473q-59,0-105-31.5T162,359T136,249q0-54 22-96t61-66t88-24q54,0 97,27.5T471,163l66-39q-21-40-56.5-70.5T399,5.5T301-12ZM282-230q-29,0-56,10t-43,27l28,53q14-14 32-22t37-8q23,0 39,13.5T335-123q0,21-23,32.5T245-74l36,84h54L315-38q46-10 69-31t23-53q0-30-17-54.5t-45-39T282-230Z" />
      <glyph unicode="&#xe8;" glyph-name="gid76" horiz-adv-x="617" d="M305-12q-72,0-128,33.5T88.5,114T56,249q0,61 20.5,115t58,95.5t87.5,65T332,548q74,0 126-34t79-88.5T564,310q0-16-3-35t-5-30H103l5,70H518l-38-29q14,53-3.5,96.5t-56,69.5T331,478q-64,0-108-31t-66.5-86.5T134,232q0-53 24-92.5T221,79t85-21q59,0 101.5,28.5T478,157l63-36q-19-36-54-66.5T405.5,6T305-12Zm18,652L231,790H334l65-150H323Z" />
      <glyph unicode="&#xe9;" glyph-name="gid73" horiz-adv-x="617" d="M305-12q-72,0-128,33.5T88.5,114T56,249q0,61 20.5,115t58,95.5t87.5,65T332,548q74,0 126-34t79-88.5T564,310q0-16-3-35t-5-30H103l5,70H518l-38-29q14,53-3.5,96.5t-56,69.5T331,478q-64,0-108-31t-66.5-86.5T134,232q0-53 24-92.5T221,79t85-21q59,0 101.5,28.5T478,157l63-36q-19-36-54-66.5T405.5,6T305-12Zm18,652L432,790H535L399,640H323Z" />
      <glyph unicode="&#xea;" glyph-name="gid74" horiz-adv-x="617" d="M305-12q-72,0-128,33.5T88.5,114T56,249q0,61 20.5,115t58,95.5t87.5,65T332,548q74,0 126-34t79-88.5T564,310q0-16-3-35t-5-30H103l5,70H518l-38-29q14,53-3.5,96.5t-56,69.5T331,478q-64,0-108-31t-66.5-86.5T134,232q0-53 24-92.5T221,79t85-21q59,0 101.5,28.5T478,157l63-36q-19-36-54-66.5T405.5,6T305-12ZM174,640L316,790h84l99-150H417l-62,91l-87-91H174Z" />
      <glyph unicode="&#xeb;" glyph-name="gid75" horiz-adv-x="617" d="M305-12q-72,0-128,33.5T88.5,114T56,249q0,61 20.5,115t58,95.5t87.5,65T332,548q74,0 126-34t79-88.5T564,310q0-16-3-35t-5-30H103l5,70H518l-38-29q14,53-3.5,96.5t-56,69.5T331,478q-64,0-108-31t-66.5-86.5T134,232q0-53 24-92.5T221,79t85-21q59,0 101.5,28.5T478,157l63-36q-19-36-54-66.5T405.5,6T305-12ZM222,640l14,100H336L322,640H222Zm180,0l14,100H516L502,640H402Z" />
      <glyph unicode="&#xec;" glyph-name="gid86" horiz-adv-x="201" d="M25,0l75,536h76L101,0H25Zm89,640L22,790H125l65-150H114Z" />
      <glyph unicode="&#xed;" glyph-name="gid82" horiz-adv-x="201" d="M25,0l75,536h76L101,0H25Zm89,640L223,790H326L190,640H114Z" />
      <glyph unicode="&#xee;" glyph-name="gid83" horiz-adv-x="201" d="M25,0l75,536h76L101,0H25ZM-35,640L107,790h84l99-150H208l-62,91L59,640H-35Z" />
      <glyph unicode="&#xef;" glyph-name="gid84" horiz-adv-x="201" d="M25,0l75,536h76L101,0H25ZM13,640L27,740H127L113,640H13Zm180,0l14,100H307L293,640H193Z" />
      <glyph unicode="&#xf0;" glyph-name="gid71" horiz-adv-x="686" d="M338-12q-74,0-131,33.5T118,113T86,245q0,62 22,115t61,93t92,62.5T376,538q35,0 72.5-9t70-31T571,437l-22-42q8,65-10.5,124T480,624.5T383.5,698T261,725q-30,0-60.5-5T139,704l-13,67q37,12 72,18t67,6q94,0 164-36.5T545,660t69-140.5T637,357q0-106-33.5-189.5T503.5,36T338-12Zm5,75q58,0 105.5,30.5T524,174t28,108q0,51-22,92t-61.5,65T375,463q-58,0-106-29.5T193,355T165,247q0-53 24-95t64.5-65.5T343,63ZM296,588l4,59L606,756l-4-60L296,588Z" />
      <glyph unicode="&#xf1;" glyph-name="gid93" horiz-adv-x="574" d="M40,0l75,536h75L176,432l-17,6q26,52 75.5,81T342,548t100.5-27t63-75T517,336L470,0H395l46,331q9,65-23,103.5T326,473q-42,0-77.5-19t-59-54T159,317L115,0H40ZM398,640q-26,0-40.5,9.5t-24,22t-19.5,22T287,703q-15,0-27-13t-17-46H181q6,40 22,67.5T243,753t53,14q26,0 40.5-9.5t24-22t19.5-22t27-9.5q19,0 31.5,15.5T455,763h61q-8-56-40.5-89.5T398,640Z" />
      <glyph unicode="&#xf2;" glyph-name="gid98" horiz-adv-x="658" d="M314-12q-72,0-130.5,33.5T90.5,115T56,253q0,61 22,114.5t61.5,94t92,63.5T344,548q74,0 132.5-33.5T569,422t34-136q0-61-22.5-115T518,75.5T426,11T314-12Zm-1,75q59,0 106.5,31T495,176t28,111q0,54-23,96t-63.5,66T345,473q-58,0-105.5-30.5T164,362T136,251q0-54 23-96.5t63-67T313,63Zm30,577L251,790H354l65-150H343Z" />
      <glyph unicode="&#xf3;" glyph-name="gid95" horiz-adv-x="658" d="M314-12q-72,0-130.5,33.5T90.5,115T56,253q0,61 22,114.5t61.5,94t92,63.5T344,548q74,0 132.5-33.5T569,422t34-136q0-61-22.5-115T518,75.5T426,11T314-12Zm-1,75q59,0 106.5,31T495,176t28,111q0,54-23,96t-63.5,66T345,473q-58,0-105.5-30.5T164,362T136,251q0-54 23-96.5t63-67T313,63Zm30,577L452,790H555L419,640H343Z" />
      <glyph unicode="&#xf4;" glyph-name="gid96" horiz-adv-x="658" d="M314-12q-72,0-130.5,33.5T90.5,115T56,253q0,61 22,114.5t61.5,94t92,63.5T344,548q74,0 132.5-33.5T569,422t34-136q0-61-22.5-115T518,75.5T426,11T314-12Zm-1,75q59,0 106.5,31T495,176t28,111q0,54-23,96t-63.5,66T345,473q-58,0-105.5-30.5T164,362T136,251q0-54 23-96.5t63-67T313,63ZM194,640L336,790h84l99-150H437l-62,91l-87-91H194Z" />
      <glyph unicode="&#xf5;" glyph-name="gid100" horiz-adv-x="658" d="M314-12q-72,0-130.5,33.5T90.5,115T56,253q0,61 22,114.5t61.5,94t92,63.5T344,548q74,0 132.5-33.5T569,422t34-136q0-61-22.5-115T518,75.5T426,11T314-12Zm-1,75q59,0 106.5,31T495,176t28,111q0,54-23,96t-63.5,66T345,473q-58,0-105.5-30.5T164,362T136,251q0-54 23-96.5t63-67T313,63ZM440,640q-26,0-40.5,9.5t-24,22t-19.5,22T329,703q-15,0-27-13t-17-46H223q6,40 22,67.5T285,753t53,14q26,0 40.5-9.5t24-22t19.5-22t27-9.5q19,0 31.5,15.5T497,763h61q-8-56-40.5-89.5T440,640Z" />
      <glyph unicode="&#xf6;" glyph-name="gid97" horiz-adv-x="658" d="M314-12q-72,0-130.5,33.5T90.5,115T56,253q0,61 22,114.5t61.5,94t92,63.5T344,548q74,0 132.5-33.5T569,422t34-136q0-61-22.5-115T518,75.5T426,11T314-12Zm-1,75q59,0 106.5,31T495,176t28,111q0,54-23,96t-63.5,66T345,473q-58,0-105.5-30.5T164,362T136,251q0-54 23-96.5t63-67T313,63ZM242,640l14,100H356L342,640H242Zm180,0l14,100H536L522,640H422Z" />
      <glyph unicode="&#xf7;" glyph-name="gid244" horiz-adv-x="607" d="M46,213l10,75H556l-10-75H46ZM226,0l14,103h80L306,0H226Zm56,397l14,103h80L362,397H282Z" />
      <glyph unicode="&#xf8;" glyph-name="gid99" horiz-adv-x="658" d="M4,0L549,536H654L109,0H4ZM314-12q-72,0-130.5,33.5T90.5,115T56,253q0,61 22,114.5t61.5,94t92,63.5T344,548q74,0 132.5-33.5T569,422t34-136q0-61-22.5-115T518,75.5T426,11T314-12Zm-1,75q59,0 106.5,31T495,176t28,111q0,54-23,96t-63.5,66T345,473q-58,0-105.5-30.5T164,362T136,251q0-54 23-96.5t63-67T313,63Z" />
      <glyph unicode="&#xf9;" glyph-name="gid113" horiz-adv-x="574" d="M232-12q-57,0-100,27.5T69,93T58,210l46,326h75L132,205q-6-43 7-75t41-49.5T248,63q42,0 77,19t58.5,54T414,219l45,317h75L459,0H384l14,104l17-6q-27-52-75.5-81T232-12Zm69,652L209,790H312l65-150H301Z" />
      <glyph unicode="&#xfa;" glyph-name="gid110" horiz-adv-x="574" d="M232-12q-57,0-100,27.5T69,93T58,210l46,326h75L132,205q-6-43 7-75t41-49.5T248,63q42,0 77,19t58.5,54T414,219l45,317h75L459,0H384l14,104l17-6q-27-52-75.5-81T232-12Zm69,652L410,790H513L377,640H301Z" />
      <glyph unicode="&#xfb;" glyph-name="gid111" horiz-adv-x="574" d="M232-12q-57,0-100,27.5T69,93T58,210l46,326h75L132,205q-6-43 7-75t41-49.5T248,63q42,0 77,19t58.5,54T414,219l45,317h75L459,0H384l14,104l17-6q-27-52-75.5-81T232-12ZM152,640L294,790h84l99-150H395l-62,91l-87-91H152Z" />
      <glyph unicode="&#xfc;" glyph-name="gid112" horiz-adv-x="574" d="M232-12q-57,0-100,27.5T69,93T58,210l46,326h75L132,205q-6-43 7-75t41-49.5T248,63q42,0 77,19t58.5,54T414,219l45,317h75L459,0H384l14,104l17-6q-27-52-75.5-81T232-12ZM200,640l14,100H314L300,640H200Zm180,0l14,100H494L480,640H380Z" />
      <glyph unicode="&#xfd;" glyph-name="gid118" horiz-adv-x="536" d="M23-220q-17,0-34,3t-32,9l6,69q10-1 24.5-3.5T17-145q34,0 57.5,9.5T118-104t42,60l46,78L196-32L49,537h79L247,67H222L478,537h85L233-70q-21-39-50.5-73.5T114-199T23-220ZM282,640L391,790H494L358,640H282Z" />
      <glyph unicode="&#xfe;" glyph-name="gid103" horiz-adv-x="666" d="M12-200L144,745h76L174,416l-25,22q35,51 90.5,80.5T363,548q75,0 131-34.5t86.5-93T611,289q0-61-21-115.5T530.5,77t-90-65.5T328-12q-70,0-127.5,32.5T117,110l15,10L88-200H12ZM326,63q59,0 105,31t73,82t27,111q0,54-22.5,96t-62,66T354,473q-59,0-105.5-30.5T176,362T150,253q0-55 23-98t62.5-67.5T326,63Z" />
      <glyph unicode="&#xff;" glyph-name="gid119" horiz-adv-x="536" d="M23-220q-17,0-34,3t-32,9l6,69q10-1 24.5-3.5T17-145q34,0 57.5,9.5T118-104t42,60l46,78L196-32L49,537h79L247,67H222L478,537h85L233-70q-21-39-50.5-73.5T114-199T23-220ZM181,640l14,100H295L281,640H181Zm180,0l14,100H475L461,640H361Z" />
      <glyph unicode="&#x2013;" glyph-name="gid201" horiz-adv-x="568" d="M69,233l10,70H499l-10-70H69Z" />
      <glyph unicode="&#x2014;" glyph-name="gid202" horiz-adv-x="898" d="M69,233l10,70H829l-10-70H69Z" />
      <glyph unicode="&#x2018;" glyph-name="gid214" horiz-adv-x="269" d="M116,527l12,84q8,58 38.5,96T248,757l-5-35q-31-8-47-29.5T173,637h38L196,527H116Z" />
      <glyph unicode="&#x2019;" glyph-name="gid215" horiz-adv-x="270" d="M115,515l5,35q31,8 47,29.5T190,635H152l15,110h80l-12-84q-7-58-38-96t-82-50Z" />
      <glyph unicode="&#x201a;" glyph-name="gid210" horiz-adv-x="269" d="M25-120l5,35q31,8 47,29.5T100,0H62L77,110h80L145,26q-7-58-38-96T25-120Z" />
      <glyph unicode="&#x201c;" glyph-name="gid212" horiz-adv-x="420" d="M214,527l12,84q8,58 38.5,96T346,757l-5-35q-31-8-47-29.5T271,637h38L294,527H214ZM64,527l12,84q8,58 38.5,96T196,757l-5-35q-31-8-47-29.5T121,637h38L144,527H64Z" />
      <glyph unicode="&#x201d;" glyph-name="gid213" horiz-adv-x="420" d="M214,515l5,35q31,8 47,29.5T289,635H251l15,110h80l-12-84q-7-58-38-96t-82-50ZM64,515l5,35q31,8 47,29.5T139,635H101l15,110h80l-12-84q-7-58-38-96T64,515Z" />
      <glyph unicode="&#x201e;" glyph-name="gid211" horiz-adv-x="420" d="M64-120l5,35q31,8 47,29.5T139,0H101l15,110h80L184,26q-7-58-38-96T64-120Zm150,0l5,35q31,8 47,29.5T289,0H251l15,110h80L334,26q-7-58-38-96t-82-50Z" />
      <glyph unicode="&#x2022;" glyph-name="gid195" horiz-adv-x="646" d="M296,48q-58,0-102,24t-68.5,67T101,237q0,69 34.5,126t93,91T358,488q56,0 98-25t65.5-67.5T545,299q0-50-20-95t-54.5-80.5T391,68T296,48Z" />
      <glyph unicode="&#x2039;" glyph-name="gid218" horiz-adv-x="306" d="M154,79L29,269L209,459h95L118,261L238,79H154Z" />
      <glyph unicode="&#x203a;" glyph-name="gid219" horiz-adv-x="306" d="M2,79L188,277L68,459h84L277,269L97,79H2Z" />
    </font>
</defs>
</svg>
